<?xml version="1.0" encoding="UTF-8" standalone="no"?>
<!DOCTYPE svg PUBLIC "-//W3C//DTD SVG 1.1//EN"
 "http://www.w3.org/Graphics/SVG/1.1/DTD/svg11.dtd">
<!-- Generated by graphviz version 3.0.0 (20221109.1736)
 -->
<!-- Title: GRAPH_0 Pages: 1 -->
<svg width="266pt" height="404pt"
 viewBox="0.00 0.00 266.00 404.00" xmlns="http://www.w3.org/2000/svg" xmlns:xlink="http://www.w3.org/1999/xlink">
<g id="graph0" class="graph" transform="scale(1 1) rotate(0) translate(4 400)">
<title>GRAPH_0</title>
<polygon fill="transparent" stroke="transparent" points="-4,4 -4,-400 262,-400 262,4 -4,4"/>
<!-- 0 -->
<g id="node1" class="node">
<title>0</title>
<polygon fill="#e5e5e5" stroke="#e5e5e5" points="258,-396 106,-396 106,-360 258,-360 258,-396"/>
<text text-anchor="middle" x="182" y="-381" font-family="Menlo" font-size="10.00">#1 Request</text>
<text text-anchor="middle" x="182" y="-370" font-family="Menlo" font-size="10.00">http://example.tld</text>
</g>
<!-- 5 -->
<g id="node2" class="node">
<title>5</title>
<polygon fill="#e5e5e5" stroke="#e5e5e5" points="220.5,-324 143.5,-324 143.5,-288 220.5,-288 220.5,-324"/>
<text text-anchor="middle" x="182" y="-309" font-family="Menlo" font-size="10.00">#4 Queue</text>
<text text-anchor="middle" x="182" y="-298" font-family="Menlo" font-size="10.00">&lt;class&gt;</text>
</g>
<!-- 0&#45;&gt;5 -->
<g id="edge1" class="edge">
<title>0&#45;&gt;5</title>
<path fill="none" stroke="#657b83" d="M182,-359.7C182,-351.98 182,-342.71 182,-334.11"/>
<polygon fill="#657b83" stroke="#657b83" points="185.5,-334.1 182,-324.1 178.5,-334.1 185.5,-334.1"/>
</g>
<!-- 1 -->
<g id="node3" class="node">
<title>1</title>
<polygon fill="#e5e5e5" stroke="#e5e5e5" points="202,-252 28,-252 28,-216 202,-216 202,-252"/>
<text text-anchor="middle" x="115" y="-237" font-family="Menlo" font-size="10.00">#2 Spawn new requests</text>
<text text-anchor="middle" x="115" y="-226" font-family="Menlo" font-size="10.00">&lt;event loop&gt;</text>
</g>
<!-- 5&#45;&gt;1 -->
<g id="edge6" class="edge">
<title>5&#45;&gt;1</title>
<path fill="none" stroke="#657b83" d="M165.44,-287.7C157.32,-279.22 147.41,-268.86 138.53,-259.58"/>
<polygon fill="#657b83" stroke="#657b83" points="140.81,-256.91 131.37,-252.1 135.76,-261.75 140.81,-256.91"/>
</g>
<!-- 2 -->
<g id="node4" class="node">
<title>2</title>
<polygon fill="#e5e5e5" stroke="#e5e5e5" points="212,-180 0,-180 0,-144 212,-144 212,-180"/>
<text text-anchor="middle" x="106" y="-165" font-family="Menlo" font-size="10.00">#2.1 Execute given request</text>
<text text-anchor="middle" x="106" y="-154" font-family="Menlo" font-size="10.00">&lt;event&gt;</text>
</g>
<!-- 1&#45;&gt;2 -->
<g id="edge2" class="edge">
<title>1&#45;&gt;2</title>
<path fill="none" stroke="#657b83" d="M112.78,-215.7C111.78,-207.98 110.59,-198.71 109.49,-190.11"/>
<polygon fill="#657b83" stroke="#657b83" points="112.95,-189.58 108.2,-180.1 106,-190.47 112.95,-189.58"/>
</g>
<!-- 3 -->
<g id="node5" class="node">
<title>3</title>
<polygon fill="#e5e5e5" stroke="#e5e5e5" points="201.5,-108 34.5,-108 34.5,-72 201.5,-72 201.5,-108"/>
<text text-anchor="middle" x="118" y="-93" font-family="Menlo" font-size="10.00">#2.2 Scrape response</text>
<text text-anchor="middle" x="118" y="-82" font-family="Menlo" font-size="10.00">&lt;event&gt;</text>
</g>
<!-- 2&#45;&gt;3 -->
<g id="edge3" class="edge">
<title>2&#45;&gt;3</title>
<path fill="none" stroke="#657b83" d="M108.97,-143.7C110.29,-135.98 111.88,-126.71 113.35,-118.11"/>
<polygon fill="#657b83" stroke="#657b83" points="116.83,-118.55 115.07,-108.1 109.93,-117.37 116.83,-118.55"/>
</g>
<!-- 4 -->
<g id="node6" class="node">
<title>4</title>
<polygon fill="#e5e5e5" stroke="#e5e5e5" points="256.5,-36 89.5,-36 89.5,0 256.5,0 256.5,-36"/>
<text text-anchor="middle" x="173" y="-21" font-family="Menlo" font-size="10.00">#3 Find new requests</text>
<text text-anchor="middle" x="173" y="-10" font-family="Menlo" font-size="10.00">&lt;event&gt;</text>
</g>
<!-- 3&#45;&gt;4 -->
<g id="edge4" class="edge">
<title>3&#45;&gt;4</title>
<path fill="none" stroke="#657b83" d="M131.6,-71.7C138.12,-63.39 146.07,-53.28 153.25,-44.14"/>
<polygon fill="#657b83" stroke="#657b83" points="156.13,-46.13 159.56,-36.1 150.63,-41.81 156.13,-46.13"/>
</g>
<!-- 4&#45;&gt;5 -->
<g id="edge5" class="edge">
<title>4&#45;&gt;5</title>
<path fill="none" stroke="#657b83" d="M188.24,-36.44C195.99,-46.24 204.83,-59.08 210,-72 222.02,-102.06 218.55,-111.72 221,-144 224.65,-192.07 226.13,-206.23 211,-252 207.99,-261.12 203.42,-270.49 198.79,-278.77"/>
<polygon fill="#657b83" stroke="#657b83" points="195.67,-277.19 193.63,-287.59 201.71,-280.73 195.67,-277.19"/>
</g>
</g>
</svg>
