<svg xmlns="http://www.w3.org/2000/svg" xmlns:xlink="http://www.w3.org/1999/xlink" xmlns:lucid="lucid" viewBox="20.00 20.00 1260.00 300.00"><g transform="translate(-180 -560)" lucid:page-tab-id="OOipZoNNwhIf"><path d="M200 590c0-5.52 4.48-10 10-10h1240c5.52 0 10 4.48 10 10v280c0 5.52-4.48 10-10 10H210c-5.52 0-10-4.48-10-10z" stroke="#000" stroke-opacity="0" stroke-width="3" fill="#fff" opacity=".85"></path><path d="M1351.74 800c-3.37 0-4.84-2.4-3.37-5.4l42.4-70.2c1.9-3 5-3 6.9 0l42.4 70.2c1.9 3 .6 5.4-3.37 5.4h-84.96zM1381.97 600h-78.06c-5.27 0-9.68 4.4-9.68 9.8V800h44.32c-.88-3.4 0-6.8 1.46-10.2l5.43-9.2h-36.53v-9.8h42.4l5.87-9.8h-48.27v-9.8h53.7l17.46-30.8c1.9-2.8 4.4-5.2 6.9-6.8 1.47-1 2.93-1.4 4.84-1.4v-103c0-4.8-4.4-9.2-9.83-9.2zm-4.84 39h-68.23v-9.8h68.23v9.8z" stroke="#000" stroke-opacity="0" fill="#415968"></path><use xlink:href="#a" transform="matrix(1,0,0,1,1264.2248891884265,809.0000000000001) translate(31.19999999999999 14.4)"></use><use xlink:href="#b" transform="matrix(1,0,0,1,1264.2248891884265,809.0000000000001) translate(98.05 14.4)"></use><path d="M1027.87 600h-78.12c-5.36 0-9.75 4.4-9.75 9.8V800h97.53V609.8c0-5.4-4.4-9.8-9.66-9.8zM1023 780.4h-68.37v-9.8H1023v9.8zm0-19.4h-68.37v-9.8H1023v9.8zm0-122h-68.37v-9.8H1023v9.8z" stroke="#000" stroke-opacity="0" fill="#415968"></path><use xlink:href="#c" transform="matrix(1,0,0,1,910,809.0000000000002) translate(39 14.4)"></use><path d="M348.48 600h-96.96c-6.36 0-11.52 6.2-11.52 13.8v172.4c0 7.6 5.16 13.8 11.52 13.8h96.96c6.36 0 11.52-6.2 11.52-13.8V613.8c0-7.6-5.16-13.8-11.52-13.8zM282 609h36.36c3.12 0 5.28.4 5.28 2.8 0 2.8-2.16 2.8-5.28 2.8H282c-3 0-5.16 0-5.16-2.8 0-2.4 2.52-2.8 5.16-2.8zm28.68 176.4h-20.64c-2.04 0-3.84-2-3.84-4.8 0-2.4 1.8-4.8 3.84-4.8h20.64c2.16 0 3.84 2.4 3.84 4.8s-1.68 4.8-3.84 4.8zm36.48-19h-94.32V623.8h94.32v142.6z" stroke="#000" stroke-opacity="0" fill="#415968"></path><use xlink:href="#d" transform="matrix(1,0,0,1,210,809.0000000000006) translate(65.75 14.4)"></use><use xlink:href="#e" transform="matrix(1,0,0,1,210,809.0000000000006) translate(6.5 36)"></use><use xlink:href="#f" transform="matrix(1,0,0,1,210,809.0000000000006) translate(50.7 36)"></use><use xlink:href="#g" transform="matrix(1,0,0,1,210,809.0000000000006) translate(70.7 36)"></use><use xlink:href="#h" transform="matrix(1,0,0,1,210,809.0000000000006) translate(112.7 36)"></use><use xlink:href="#i" transform="matrix(1,0,0,1,210,809.0000000000006) translate(150.55 36)"></use><use xlink:href="#j" transform="matrix(1,0,0,1,210,809.0000000000006) translate(8.549999999999997 57.6)"></use><use xlink:href="#k" transform="matrix(1,0,0,1,210,809.0000000000006) translate(33.55 57.6)"></use><use xlink:href="#l" transform="matrix(1,0,0,1,210,809.0000000000006) translate(118.55 57.6)"></use><path d="M1089.48 663.67h-50.95v-2h50.95zm186.24 0h-33.45v-2h33.45z" fill="#5e5e5e"></path><path d="M1038.55 663.67h-1.02v-2h1.02zM1291 662.67l-14.28 4.63v-9.27z" fill="#5e5e5e"></path><path d="M1294.22 662.67l-18.5 6v-12.02zm-16.5 3.26l10.03-3.26-10.03-3.26z" fill="#5e5e5e"></path><use xlink:href="#m" transform="matrix(1,0,0,1,1089.4798828658181,652.0000000000001) translate(0 14.222222222222223)"></use><use xlink:href="#n" transform="matrix(1,0,0,1,1089.4798828658181,652.0000000000001) translate(20.69135802469136 14.222222222222223)"></use><use xlink:href="#o" transform="matrix(1,0,0,1,1089.4798828658181,652.0000000000001) translate(91.65432098765433 14.222222222222223)"></use><path d="M1095.48 742.33h-39.45v-2h39.45zm197.74 0h-56.95v-2h56.95z" fill="#5e5e5e"></path><path d="M1294.22 742.33h-1.02v-2h1.02zM1055.03 745.97l-14.27-4.64 14.27-4.63z" fill="#5e5e5e"></path><path d="M1056.03 747.35l-18.5-6.02 18.5-6zm-12.03-6.02l10.03 3.26v-6.53z" fill="#5e5e5e"></path><use xlink:href="#p" transform="matrix(1,0,0,1,1095.4798828658181,730.6666666666667) translate(0 14.222222222222223)"></use><use xlink:href="#n" transform="matrix(1,0,0,1,1095.4798828658181,730.6666666666667) translate(20.69135802469136 14.222222222222223)"></use><use xlink:href="#q" transform="matrix(1,0,0,1,1095.4798828658181,730.6666666666667) translate(91.65432098765433 14.222222222222223)"></use><path d="M421.83 663.67H361v-2h60.83zm159.67 0h-43.33v-2h43.33z" fill="#5e5e5e"></path><path d="M361.03 663.67H360v-2h1.03zM596.76 662.67l-14.26 4.63v-9.27z" fill="#5e5e5e"></path><path d="M600 662.67l-18.5 6v-12.02zm-16.5 3.26l10.03-3.26-10.03-3.26z" fill="#5e5e5e"></path><use xlink:href="#r" transform="matrix(1,0,0,1,421.82716049382714,652.0000000000006) translate(0 14.222222222222223)"></use><use xlink:href="#s" transform="matrix(1,0,0,1,421.82716049382714,652.0000000000006) translate(20.69135802469136 14.222222222222223)"></use><path d="M405.53 743.67H378.5v-2h27.03zm193.47 0h-44.53v-2H599z" fill="#5e5e5e"></path><path d="M600 743.67h-1.03v-2H600zM377.5 747.3l-14.26-4.63 14.26-4.64z" fill="#5e5e5e"></path><path d="M378.5 748.68l-18.5-6 18.5-6.03zm-12.03-6l10.03 3.25v-6.52z" fill="#5e5e5e"></path><use xlink:href="#t" transform="matrix(1,0,0,1,405.53086419753083,721.3333333333338) translate(0.0049999999999954525 14.222222222222223)"></use><use xlink:href="#u" transform="matrix(1,0,0,1,405.53086419753083,721.3333333333338) translate(20.696358024691357 14.222222222222223)"></use><use xlink:href="#v" transform="matrix(1,0,0,1,405.53086419753083,721.3333333333338) translate(68.05438271604939 14.222222222222223)"></use><use xlink:href="#w" transform="matrix(1,0,0,1,405.53086419753083,721.3333333333338) translate(36.5729012345679 35.55555555555556)"></use><path d="M759.86 662.33H721v-2h38.86zm161.64 0h-45.3v-2h45.3z" fill="#5e5e5e"></path><path d="M721.03 662.33H720v-2h1.03zM936.76 661.33l-14.26 4.64v-9.27z" fill="#5e5e5e"></path><path d="M940 661.33l-18.5 6.02v-12.03zm-16.5 3.26l10.03-3.27-10.03-3.26z" fill="#5e5e5e"></path><use xlink:href="#x" transform="matrix(1,0,0,1,759.8590385257052,640.0000000000002) translate(0.005000000000002558 14.222222222222223)"></use><use xlink:href="#y" transform="matrix(1,0,0,1,759.8590385257052,640.0000000000002) translate(20.696358024691364 14.222222222222223)"></use><use xlink:href="#w" transform="matrix(1,0,0,1,759.8590385257052,640.0000000000002) translate(20.276604938271618 35.55555555555556)"></use><path d="M769.23 743.67H738.5v-2h30.73zm169.77 0h-20.83v-2H939z" fill="#5e5e5e"></path><path d="M940 743.67h-1.03v-2H940zM737.5 747.3l-14.26-4.63 14.26-4.64z" fill="#5e5e5e"></path><path d="M738.5 748.68l-18.5-6 18.5-6.03zm-12.03-6l10.03 3.25v-6.52z" fill="#5e5e5e"></path><g><use xlink:href="#z" transform="matrix(1,0,0,1,769.2333702728706,732.0000000000002) translate(0.0049999999999954525 14.222222222222223)"></use><use xlink:href="#u" transform="matrix(1,0,0,1,769.2333702728706,732.0000000000002) translate(20.696358024691357 14.222222222222223)"></use><use xlink:href="#A" transform="matrix(1,0,0,1,769.2333702728706,732.0000000000002) translate(68.05438271604939 14.222222222222223)"></use></g><path d="M600 647.5h30v24.05h-30V647.5zM633.36 647.5h53.28v24.05h-53.28V647.5zM690 647.5h30v24.05h-30V647.5zM600 674.5h56.64v24.03H600V674.5zM660 674.5h60v24.03h-60V674.5zM600 701.47h30v24.05h-30v-24.05zM633.36 701.47h53.28v24.05h-53.28v-24.05zM690 701.47h30v24.05h-30v-24.05zM600 728.46h56.64v24.04H600v-24.04zM660 728.46h60v24.04h-60v-24.04z" stroke="#000" stroke-opacity="0" fill="#415968"></path><g><use xlink:href="#B" transform="matrix(1,0,0,1,570,761.5000000000006) translate(43.05 14.4)"></use><use xlink:href="#C" transform="matrix(1,0,0,1,570,761.5000000000006) translate(27.174999999999997 36)"></use><use xlink:href="#D" transform="matrix(1,0,0,1,570,761.5000000000006) translate(76.125 36)"></use><use xlink:href="#E" transform="matrix(1,0,0,1,570,761.5000000000006) translate(97.075 36)"></use></g><defs><path d="M30-248c118-7 216 8 213 122C240-48 200 0 122 0H30v-248zM63-27c89 8 146-16 146-99s-60-101-146-95v194" id="F"></path><path d="M100-194c62-1 85 37 85 99 1 63-27 99-86 99S16-35 15-95c0-66 28-99 85-99zM99-20c44 1 53-31 53-75 0-43-8-75-51-75s-53 32-53 75 10 74 51 75" id="G"></path><path d="M210-169c-67 3-38 105-44 169h-31v-121c0-29-5-50-35-48C34-165 62-65 56 0H25l-1-190h30c1 10-1 24 2 32 10-44 99-50 107 0 11-21 27-35 58-36 85-2 47 119 55 194h-31v-121c0-29-5-49-35-48" id="H"></path><path d="M141-36C126-15 110 5 73 4 37 3 15-17 15-53c-1-64 63-63 125-63 3-35-9-54-41-54-24 1-41 7-42 31l-33-3c5-37 33-52 76-52 45 0 72 20 72 64v82c-1 20 7 32 28 27v20c-31 9-61-2-59-35zM48-53c0 20 12 33 32 33 41-3 63-29 60-74-43 2-92-5-92 41" id="I"></path><path d="M24-231v-30h32v30H24zM24 0v-190h32V0H24" id="J"></path><path d="M117-194c89-4 53 116 60 194h-32v-121c0-31-8-49-39-48C34-167 62-67 57 0H25l-1-190h30c1 10-1 24 2 32 11-22 29-35 61-36" id="K"></path><g id="a"><use transform="matrix(0.05,0,0,0.05,0,0)" xlink:href="#F"></use><use transform="matrix(0.05,0,0,0.05,12.950000000000001,0)" xlink:href="#G"></use><use transform="matrix(0.05,0,0,0.05,22.950000000000003,0)" xlink:href="#H"></use><use transform="matrix(0.05,0,0,0.05,37.900000000000006,0)" xlink:href="#I"></use><use transform="matrix(0.05,0,0,0.05,47.900000000000006,0)" xlink:href="#J"></use><use transform="matrix(0.05,0,0,0.05,51.85,0)" xlink:href="#K"></use></g><path d="M212-179c-10-28-35-45-73-45-59 0-87 40-87 99 0 60 29 101 89 101 43 0 62-24 78-52l27 14C228-24 195 4 139 4 59 4 22-46 18-125c-6-104 99-153 187-111 19 9 31 26 39 46" id="L"></path><path d="M59-47c-2 24 18 29 38 22v24C64 9 27 4 27-40v-127H5v-23h24l9-43h21v43h35v23H59v120" id="M"></path><path d="M114-163C36-179 61-72 57 0H25l-1-190h30c1 12-1 29 2 39 6-27 23-49 58-41v29" id="N"></path><path d="M24 0v-261h32V0H24" id="O"></path><path d="M100-194c63 0 86 42 84 106H49c0 40 14 67 53 68 26 1 43-12 49-29l28 8c-11 28-37 45-77 45C44 4 14-33 15-96c1-61 26-98 85-98zm52 81c6-60-76-77-97-28-3 7-6 17-6 28h103" id="P"></path><g id="b"><use transform="matrix(0.05,0,0,0.05,0,0)" xlink:href="#L"></use><use transform="matrix(0.05,0,0,0.05,12.950000000000001,0)" xlink:href="#G"></use><use transform="matrix(0.05,0,0,0.05,22.950000000000003,0)" xlink:href="#K"></use><use transform="matrix(0.05,0,0,0.05,32.95,0)" xlink:href="#M"></use><use transform="matrix(0.05,0,0,0.05,37.95,0)" xlink:href="#N"></use><use transform="matrix(0.05,0,0,0.05,43.900000000000006,0)" xlink:href="#G"></use><use transform="matrix(0.05,0,0,0.05,53.900000000000006,0)" xlink:href="#O"></use><use transform="matrix(0.05,0,0,0.05,57.85,0)" xlink:href="#O"></use><use transform="matrix(0.05,0,0,0.05,61.80000000000001,0)" xlink:href="#P"></use><use transform="matrix(0.05,0,0,0.05,71.80000000000001,0)" xlink:href="#N"></use></g><path d="M30 0v-248h187v28H63v79h144v27H63v87h162V0H30" id="Q"></path><path d="M141 0L90-78 38 0H4l68-98-65-92h35l48 74 47-74h35l-64 92 68 98h-35" id="R"></path><path d="M96-169c-40 0-48 33-48 73s9 75 48 75c24 0 41-14 43-38l32 2c-6 37-31 61-74 61-59 0-76-41-82-99-10-93 101-131 147-64 4 7 5 14 7 22l-32 3c-4-21-16-35-41-35" id="S"></path><path d="M106-169C34-169 62-67 57 0H25v-261h32l-1 103c12-21 28-36 61-36 89 0 53 116 60 194h-32v-121c2-32-8-49-39-48" id="T"></path><path d="M177-190C167-65 218 103 67 71c-23-6-38-20-44-43l32-5c15 47 100 32 89-28v-30C133-14 115 1 83 1 29 1 15-40 15-95c0-56 16-97 71-98 29-1 48 16 59 35 1-10 0-23 2-32h30zM94-22c36 0 50-32 50-73 0-42-14-75-50-75-39 0-46 34-46 75s6 73 46 73" id="U"></path><g id="c"><use transform="matrix(0.05,0,0,0.05,0,0)" xlink:href="#Q"></use><use transform="matrix(0.05,0,0,0.05,12,0)" xlink:href="#R"></use><use transform="matrix(0.05,0,0,0.05,21,0)" xlink:href="#S"></use><use transform="matrix(0.05,0,0,0.05,30,0)" xlink:href="#T"></use><use transform="matrix(0.05,0,0,0.05,40,0)" xlink:href="#I"></use><use transform="matrix(0.05,0,0,0.05,50,0)" xlink:href="#K"></use><use transform="matrix(0.05,0,0,0.05,60,0)" xlink:href="#U"></use><use transform="matrix(0.05,0,0,0.05,70,0)" xlink:href="#P"></use></g><path d="M137 0h-34L2-248h35l83 218 83-218h36" id="V"></path><g id="d"><use transform="matrix(0.05,0,0,0.05,0,0)" xlink:href="#V"></use><use transform="matrix(0.05,0,0,0.05,11.65,0)" xlink:href="#J"></use><use transform="matrix(0.05,0,0,0.05,15.600000000000001,0)" xlink:href="#S"></use><use transform="matrix(0.05,0,0,0.05,24.6,0)" xlink:href="#M"></use><use transform="matrix(0.05,0,0,0.05,29.6,0)" xlink:href="#J"></use><use transform="matrix(0.05,0,0,0.05,33.550000000000004,0)" xlink:href="#H"></use></g><path d="M127-220V0H93v-220H8v-28h204v28h-85" id="W"></path><path d="M135-143c-3-34-86-38-87 0 15 53 115 12 119 90S17 21 10-45l28-5c4 36 97 45 98 0-10-56-113-15-118-90-4-57 82-63 122-42 12 7 21 19 24 35" id="X"></path><g id="e"><use transform="matrix(0.05,0,0,0.05,0,0)" xlink:href="#W"></use><use transform="matrix(0.05,0,0,0.05,10.3,0)" xlink:href="#N"></use><use transform="matrix(0.05,0,0,0.05,16.25,0)" xlink:href="#J"></use><use transform="matrix(0.05,0,0,0.05,20.2,0)" xlink:href="#P"></use><use transform="matrix(0.05,0,0,0.05,30.200000000000003,0)" xlink:href="#X"></use></g><g id="f"><use transform="matrix(0.05,0,0,0.05,0,0)" xlink:href="#M"></use><use transform="matrix(0.05,0,0,0.05,5,0)" xlink:href="#G"></use></g><path d="M179-190L93 31C79 59 56 82 12 73V49c39 6 53-20 64-50L1-190h34L92-34l54-156h33" id="Y"></path><g id="g"><use transform="matrix(0.05,0,0,0.05,0,0)" xlink:href="#X"></use><use transform="matrix(0.05,0,0,0.05,9,0)" xlink:href="#Y"></use><use transform="matrix(0.05,0,0,0.05,18,0)" xlink:href="#K"></use><use transform="matrix(0.05,0,0,0.05,28,0)" xlink:href="#S"></use></g><g id="h"><use transform="matrix(0.05,0,0,0.05,0,0)" xlink:href="#H"></use><use transform="matrix(0.05,0,0,0.05,14.950000000000001,0)" xlink:href="#I"></use><use transform="matrix(0.05,0,0,0.05,24.950000000000003,0)" xlink:href="#J"></use><use transform="matrix(0.05,0,0,0.05,28.900000000000002,0)" xlink:href="#O"></use></g><path d="M108 0H70L1-190h34L89-25l56-165h34" id="Z"></path><g id="i"><use transform="matrix(0.05,0,0,0.05,0,0)" xlink:href="#Z"></use><use transform="matrix(0.05,0,0,0.05,9,0)" xlink:href="#J"></use><use transform="matrix(0.05,0,0,0.05,12.949999999999998,0)" xlink:href="#I"></use></g><g id="j"><use transform="matrix(0.05,0,0,0.05,0,0)" xlink:href="#I"></use><use transform="matrix(0.05,0,0,0.05,10,0)" xlink:href="#K"></use></g><g id="k"><use transform="matrix(0.05,0,0,0.05,0,0)" xlink:href="#Q"></use><use transform="matrix(0.05,0,0,0.05,12,0)" xlink:href="#R"></use><use transform="matrix(0.05,0,0,0.05,21,0)" xlink:href="#S"></use><use transform="matrix(0.05,0,0,0.05,30,0)" xlink:href="#T"></use><use transform="matrix(0.05,0,0,0.05,40,0)" xlink:href="#I"></use><use transform="matrix(0.05,0,0,0.05,50,0)" xlink:href="#K"></use><use transform="matrix(0.05,0,0,0.05,60,0)" xlink:href="#U"></use><use transform="matrix(0.05,0,0,0.05,70,0)" xlink:href="#P"></use></g><path d="M185-189c-5-48-123-54-124 2 14 75 158 14 163 119 3 78-121 87-175 55-17-10-28-26-33-46l33-7c5 56 141 63 141-1 0-78-155-14-162-118-5-82 145-84 179-34 5 7 8 16 11 25" id="aa"></path><g id="l"><use transform="matrix(0.05,0,0,0.05,0,0)" xlink:href="#aa"></use><use transform="matrix(0.05,0,0,0.05,12,0)" xlink:href="#P"></use><use transform="matrix(0.05,0,0,0.05,22,0)" xlink:href="#N"></use><use transform="matrix(0.05,0,0,0.05,27.950000000000003,0)" xlink:href="#Z"></use><use transform="matrix(0.05,0,0,0.05,36.95,0)" xlink:href="#P"></use><use transform="matrix(0.05,0,0,0.05,46.95,0)" xlink:href="#N"></use></g><path fill="#333" d="M128-127c34 4 56 21 59 58 7 91-148 94-172 28-4-9-6-17-7-26l51-5c1 24 16 35 40 36 23 0 39-12 38-36-1-31-31-36-65-34v-40c32 2 59-3 59-33 0-20-13-33-34-33s-33 13-35 32l-50-3c6-44 37-68 86-68 50 0 83 20 83 66 0 35-22 52-53 58" id="ab"></path><path fill="#333" d="M102-93c0 74-22 123-52 168H0C30 29 54-18 53-93c0-74-22-123-53-168h50c30 45 52 94 52 168" id="ac"></path><g id="m"><use transform="matrix(0.04938271604938272,0,0,0.04938271604938272,0,0)" xlink:href="#ab"></use><use transform="matrix(0.04938271604938272,0,0,0.04938271604938272,9.876543209876544,0)" xlink:href="#ac"></use></g><path fill="#333" d="M230 0l2-204L168 0h-37L68-204 70 0H24v-248h70l56 185 57-185h69V0h-46" id="ad"></path><path fill="#333" d="M133-34C117-15 103 5 69 4 32 3 11-16 11-54c-1-60 55-63 116-61 1-26-3-47-28-47-18 1-26 9-28 27l-52-2c7-38 36-58 82-57s74 22 75 68l1 82c-1 14 12 18 25 15v27c-30 8-71 5-69-32zm-48 3c29 0 43-24 42-57-32 0-66-3-65 30 0 17 8 27 23 27" id="ae"></path><path fill="#333" d="M25-224v-37h50v37H25zM25 0v-190h50V0H25" id="af"></path><path fill="#333" d="M25 0v-261h50V0H25" id="ag"></path><path fill="#333" d="M135-194c52 0 70 43 70 98 0 56-19 99-73 100-30 1-46-15-58-35L72 0H24l1-261h50v104c11-23 29-37 60-37zM114-30c31 0 40-27 40-66 0-37-7-63-39-63s-41 28-41 65c0 36 8 64 40 64" id="ah"></path><path fill="#333" d="M110-194c64 0 96 36 96 99 0 64-35 99-97 99-61 0-95-36-95-99 0-62 34-99 96-99zm-1 164c35 0 45-28 45-65 0-40-10-65-43-65-34 0-45 26-45 65 0 36 10 65 43 65" id="ai"></path><path fill="#333" d="M144 0l-44-69L55 0H2l70-98-66-92h53l41 62 40-62h54l-67 91 71 99h-54" id="aj"></path><g id="n"><use transform="matrix(0.04938271604938272,0,0,0.04938271604938272,0,0)" xlink:href="#ad"></use><use transform="matrix(0.04938271604938272,0,0,0.04938271604938272,14.765432098765434,0)" xlink:href="#ae"></use><use transform="matrix(0.04938271604938272,0,0,0.04938271604938272,24.641975308641978,0)" xlink:href="#af"></use><use transform="matrix(0.04938271604938272,0,0,0.04938271604938272,29.58024691358025,0)" xlink:href="#ag"></use><use transform="matrix(0.04938271604938272,0,0,0.04938271604938272,34.51851851851852,0)" xlink:href="#ah"></use><use transform="matrix(0.04938271604938272,0,0,0.04938271604938272,45.333333333333336,0)" xlink:href="#ai"></use><use transform="matrix(0.04938271604938272,0,0,0.04938271604938272,56.14814814814815,0)" xlink:href="#aj"></use></g><path fill="#333" d="M185-48c-13 30-37 53-82 52C43 2 14-33 14-96s30-98 90-98c62 0 83 45 84 108H66c0 31 8 55 39 56 18 0 30-7 34-22zm-45-69c5-46-57-63-70-21-2 6-4 13-4 21h74" id="ak"></path><path fill="#333" d="M137-138c1-29-70-34-71-4 15 46 118 7 119 86 1 83-164 76-172 9l43-7c4 19 20 25 44 25 33 8 57-30 24-41C81-84 22-81 20-136c-2-80 154-74 161-7" id="al"></path><path fill="#333" d="M115-3C79 11 28 4 28-45v-112H4v-33h27l15-45h31v45h36v33H77v99c-1 23 16 31 38 25v30" id="am"></path><path fill="#333" d="M110-251c83-7 118 89 53 130-17 10-36 21-38 46H78c2-56 65-53 71-103 2-21-15-35-38-34-25 1-41 14-44 38l-50-2c6-48 39-70 93-75zM77 0v-47h51V0H77" id="an"></path><g id="o"><use transform="matrix(0.04938271604938272,0,0,0.04938271604938272,0,0)" xlink:href="#ak"></use><use transform="matrix(0.04938271604938272,0,0,0.04938271604938272,9.876543209876544,0)" xlink:href="#aj"></use><use transform="matrix(0.04938271604938272,0,0,0.04938271604938272,19.75308641975309,0)" xlink:href="#af"></use><use transform="matrix(0.04938271604938272,0,0,0.04938271604938272,24.69135802469136,0)" xlink:href="#al"></use><use transform="matrix(0.04938271604938272,0,0,0.04938271604938272,34.567901234567906,0)" xlink:href="#am"></use><use transform="matrix(0.04938271604938272,0,0,0.04938271604938272,40.44444444444445,0)" xlink:href="#al"></use><use transform="matrix(0.04938271604938272,0,0,0.04938271604938272,50.320987654320994,0)" xlink:href="#an"></use></g><path fill="#333" d="M165-50V0h-47v-50H5v-38l105-160h55v161h33v37h-33zm-47-37l2-116L46-87h72" id="ao"></path><g id="p"><use transform="matrix(0.04938271604938272,0,0,0.04938271604938272,0,0)" xlink:href="#ao"></use><use transform="matrix(0.04938271604938272,0,0,0.04938271604938272,9.876543209876544,0)" xlink:href="#ac"></use></g><path fill="#333" d="M121-226c-27-7-43 5-38 36h38v33H83V0H34v-157H6v-33h28c-9-59 32-81 87-68v32" id="ap"></path><path fill="#333" d="M85 4C-2 5 27-109 22-190h50c7 57-23 150 33 157 60-5 35-97 40-157h50l1 190h-47c-2-12 1-28-3-38-12 25-28 42-61 42" id="aq"></path><path fill="#333" d="M135-194c87-1 58 113 63 194h-50c-7-57 23-157-34-157-59 0-34 97-39 157H25l-1-190h47c2 12-1 28 3 38 12-26 28-41 61-42" id="ar"></path><path fill="#333" d="M88-194c31-1 46 15 58 34l-1-101h50l1 261h-48c-2-10 0-23-3-31C134-8 116 4 84 4 32 4 16-41 15-95c0-56 19-97 73-99zm17 164c33 0 40-30 41-66 1-37-9-64-41-64s-38 30-39 65c0 43 13 65 39 65" id="as"></path><g id="q"><use transform="matrix(0.04938271604938272,0,0,0.04938271604938272,0,0)" xlink:href="#ap"></use><use transform="matrix(0.04938271604938272,0,0,0.04938271604938272,5.8765432098765435,0)" xlink:href="#ai"></use><use transform="matrix(0.04938271604938272,0,0,0.04938271604938272,16.691358024691358,0)" xlink:href="#aq"></use><use transform="matrix(0.04938271604938272,0,0,0.04938271604938272,27.50617283950617,0)" xlink:href="#ar"></use><use transform="matrix(0.04938271604938272,0,0,0.04938271604938272,38.32098765432099,0)" xlink:href="#as"></use></g><path fill="#333" d="M23 0v-37h61v-169l-59 37v-38l62-41h46v211h57V0H23" id="at"></path><g id="r"><use transform="matrix(0.04938271604938272,0,0,0.04938271604938272,0,0)" xlink:href="#at"></use><use transform="matrix(0.04938271604938272,0,0,0.04938271604938272,9.876543209876544,0)" xlink:href="#ac"></use></g><path fill="#333" d="M199 0l-22-63H83L61 0H9l90-248h61L250 0h-51zm-33-102l-36-108c-10 38-24 72-36 108h72" id="au"></path><path fill="#333" d="M190-63c-7 42-38 67-86 67-59 0-84-38-90-98-12-110 154-137 174-36l-49 2c-2-19-15-32-35-32-30 0-35 28-38 64-6 74 65 87 74 30" id="av"></path><path fill="#333" d="M128 0H69L1-190h53L99-40l48-150h52" id="aw"></path><path fill="#333" d="M169-182c-1-43-94-46-97-3 18 66 151 10 154 114 3 95-165 93-204 36-6-8-10-19-12-30l50-8c3 46 112 56 116 5-17-69-150-10-154-114-4-87 153-88 188-35 5 8 8 18 10 28" id="ax"></path><path fill="#333" d="M123 10C108 53 80 86 19 72V37c35 8 53-11 59-39L3-190h52l48 148c12-52 28-100 44-148h51" id="ay"></path><g id="s"><use transform="matrix(0.04938271604938272,0,0,0.04938271604938272,0,0)" xlink:href="#au"></use><use transform="matrix(0.04938271604938272,0,0,0.04938271604938272,12.790123456790125,0)" xlink:href="#av"></use><use transform="matrix(0.04938271604938272,0,0,0.04938271604938272,22.66666666666667,0)" xlink:href="#am"></use><use transform="matrix(0.04938271604938272,0,0,0.04938271604938272,28.54320987654322,0)" xlink:href="#af"></use><use transform="matrix(0.04938271604938272,0,0,0.04938271604938272,33.48148148148149,0)" xlink:href="#aw"></use><use transform="matrix(0.04938271604938272,0,0,0.04938271604938272,43.35802469135803,0)" xlink:href="#ak"></use><use transform="matrix(0.04938271604938272,0,0,0.04938271604938272,53.23456790123457,0)" xlink:href="#ax"></use><use transform="matrix(0.04938271604938272,0,0,0.04938271604938272,65.08641975308643,0)" xlink:href="#ay"></use><use transform="matrix(0.04938271604938272,0,0,0.04938271604938272,74.96296296296298,0)" xlink:href="#ar"></use><use transform="matrix(0.04938271604938272,0,0,0.04938271604938272,85.77777777777779,0)" xlink:href="#av"></use></g><path fill="#333" d="M115-159c48 0 72 30 72 78 0 54-30 85-83 85-64 0-91-50-91-122 0-98 58-163 141-120 15 8 21 24 27 44l-47 6c-5-31-48-31-61-4-7 14-11 33-11 60 9-17 28-27 53-27zM102-35c24 0 36-20 36-45s-11-43-37-43c-23 0-36 14-36 38 0 27 11 50 37 50" id="az"></path><g id="t"><use transform="matrix(0.04938271604938272,0,0,0.04938271604938272,0,0)" xlink:href="#az"></use><use transform="matrix(0.04938271604938272,0,0,0.04938271604938272,9.876543209876544,0)" xlink:href="#ac"></use></g><g id="u"><use transform="matrix(0.04938271604938272,0,0,0.04938271604938272,0,0)" xlink:href="#ax"></use><use transform="matrix(0.04938271604938272,0,0,0.04938271604938272,11.851851851851853,0)" xlink:href="#ay"></use><use transform="matrix(0.04938271604938272,0,0,0.04938271604938272,21.7283950617284,0)" xlink:href="#ar"></use><use transform="matrix(0.04938271604938272,0,0,0.04938271604938272,32.543209876543216,0)" xlink:href="#av"></use></g><g id="v"><use transform="matrix(0.04938271604938272,0,0,0.04938271604938272,0,0)" xlink:href="#al"></use><use transform="matrix(0.04938271604938272,0,0,0.04938271604938272,9.876543209876544,0)" xlink:href="#aq"></use><use transform="matrix(0.04938271604938272,0,0,0.04938271604938272,20.69135802469136,0)" xlink:href="#av"></use><use transform="matrix(0.04938271604938272,0,0,0.04938271604938272,30.567901234567906,0)" xlink:href="#av"></use><use transform="matrix(0.04938271604938272,0,0,0.04938271604938272,40.44444444444445,0)" xlink:href="#ak"></use><use transform="matrix(0.04938271604938272,0,0,0.04938271604938272,50.320987654320994,0)" xlink:href="#ak"></use><use transform="matrix(0.04938271604938272,0,0,0.04938271604938272,60.19753086419754,0)" xlink:href="#as"></use><use transform="matrix(0.04938271604938272,0,0,0.04938271604938272,71.01234567901236,0)" xlink:href="#al"></use></g><path fill="#333" d="M67-93c0 74 22 123 53 168H70C40 30 18-18 18-93s22-123 52-168h50c-32 44-53 94-53 168" id="aA"></path><path fill="#333" d="M135-194c53 0 70 44 70 98 0 56-19 98-73 100-31 1-45-17-59-34 3 33 2 69 2 105H25l-1-265h48c2 10 0 23 3 31 11-24 29-35 60-35zM114-30c33 0 39-31 40-66 0-38-9-64-40-64-56 0-55 130 0 130" id="aB"></path><path fill="#333" d="M135-150c-39-12-60 13-60 57V0H25l-1-190h47c2 13-1 29 3 40 6-28 27-53 61-41v41" id="aC"></path><g id="w"><use transform="matrix(0.04938271604938272,0,0,0.04938271604938272,0,0)" xlink:href="#aA"></use><use transform="matrix(0.04938271604938272,0,0,0.04938271604938272,5.8765432098765435,0)" xlink:href="#aB"></use><use transform="matrix(0.04938271604938272,0,0,0.04938271604938272,16.691358024691358,0)" xlink:href="#aC"></use><use transform="matrix(0.04938271604938272,0,0,0.04938271604938272,23.604938271604937,0)" xlink:href="#ai"></use><use transform="matrix(0.04938271604938272,0,0,0.04938271604938272,34.41975308641975,0)" xlink:href="#aj"></use><use transform="matrix(0.04938271604938272,0,0,0.04938271604938272,44.2962962962963,0)" xlink:href="#af"></use><use transform="matrix(0.04938271604938272,0,0,0.04938271604938272,49.23456790123457,0)" xlink:href="#ak"></use><use transform="matrix(0.04938271604938272,0,0,0.04938271604938272,59.111111111111114,0)" xlink:href="#as"></use><use transform="matrix(0.04938271604938272,0,0,0.04938271604938272,69.92592592592592,0)" xlink:href="#ac"></use></g><path fill="#333" d="M182-182c0 78-84 86-111 141h115V0H12c-6-101 99-100 120-180 1-22-12-31-33-32-23 0-32 14-35 34l-49-3c5-45 32-70 84-70 51 0 83 22 83 69" id="aD"></path><g id="x"><use transform="matrix(0.04938271604938272,0,0,0.04938271604938272,0,0)" xlink:href="#aD"></use><use transform="matrix(0.04938271604938272,0,0,0.04938271604938272,9.876543209876544,0)" xlink:href="#ac"></use></g><g id="y"><use transform="matrix(0.04938271604938272,0,0,0.04938271604938272,0,0)" xlink:href="#au"></use><use transform="matrix(0.04938271604938272,0,0,0.04938271604938272,12.790123456790125,0)" xlink:href="#av"></use><use transform="matrix(0.04938271604938272,0,0,0.04938271604938272,22.66666666666667,0)" xlink:href="#am"></use><use transform="matrix(0.04938271604938272,0,0,0.04938271604938272,28.54320987654322,0)" xlink:href="#af"></use><use transform="matrix(0.04938271604938272,0,0,0.04938271604938272,33.48148148148149,0)" xlink:href="#aw"></use><use transform="matrix(0.04938271604938272,0,0,0.04938271604938272,43.35802469135803,0)" xlink:href="#ak"></use><use transform="matrix(0.04938271604938272,0,0,0.04938271604938272,53.23456790123457,0)" xlink:href="#ax"></use><use transform="matrix(0.04938271604938272,0,0,0.04938271604938272,65.08641975308643,0)" xlink:href="#ay"></use><use transform="matrix(0.04938271604938272,0,0,0.04938271604938272,74.96296296296298,0)" xlink:href="#ar"></use><use transform="matrix(0.04938271604938272,0,0,0.04938271604938272,85.77777777777779,0)" xlink:href="#av"></use></g><path fill="#333" d="M139-81c0-46-55-55-73-27H18l9-140h149v37H72l-4 63c44-38 133-4 122 66C201 21 21 35 11-62l49-4c5 18 15 30 39 30 26 0 40-18 40-45" id="aE"></path><g id="z"><use transform="matrix(0.04938271604938272,0,0,0.04938271604938272,0,0)" xlink:href="#aE"></use><use transform="matrix(0.04938271604938272,0,0,0.04938271604938272,9.876543209876544,0)" xlink:href="#ac"></use></g><g id="A"><use transform="matrix(0.04938271604938272,0,0,0.04938271604938272,0,0)" xlink:href="#al"></use><use transform="matrix(0.04938271604938272,0,0,0.04938271604938272,9.876543209876544,0)" xlink:href="#aq"></use><use transform="matrix(0.04938271604938272,0,0,0.04938271604938272,20.69135802469136,0)" xlink:href="#av"></use><use transform="matrix(0.04938271604938272,0,0,0.04938271604938272,30.567901234567906,0)" xlink:href="#av"></use><use transform="matrix(0.04938271604938272,0,0,0.04938271604938272,40.44444444444445,0)" xlink:href="#ak"></use><use transform="matrix(0.04938271604938272,0,0,0.04938271604938272,50.320987654320994,0)" xlink:href="#ak"></use><use transform="matrix(0.04938271604938272,0,0,0.04938271604938272,60.19753086419754,0)" xlink:href="#as"></use><use transform="matrix(0.04938271604938272,0,0,0.04938271604938272,71.01234567901236,0)" xlink:href="#al"></use></g><path d="M33 0v-248h34V0H33" id="aF"></path><path d="M115-194c55 1 70 41 70 98S169 2 115 4C84 4 66-9 55-30l1 105H24l-1-265h31l2 30c10-21 28-34 59-34zm-8 174c40 0 45-34 45-75s-6-73-45-74c-42 0-51 32-51 76 0 43 10 73 51 73" id="aG"></path><g id="B"><use transform="matrix(0.05,0,0,0.05,0,0)" xlink:href="#aF"></use><use transform="matrix(0.05,0,0,0.05,5,0)" xlink:href="#K"></use><use transform="matrix(0.05,0,0,0.05,15,0)" xlink:href="#M"></use><use transform="matrix(0.05,0,0,0.05,20,0)" xlink:href="#P"></use><use transform="matrix(0.05,0,0,0.05,30,0)" xlink:href="#N"></use><use transform="matrix(0.05,0,0,0.05,35.95,0)" xlink:href="#S"></use><use transform="matrix(0.05,0,0,0.05,44.95,0)" xlink:href="#P"></use><use transform="matrix(0.05,0,0,0.05,54.95,0)" xlink:href="#aG"></use><use transform="matrix(0.05,0,0,0.05,64.95,0)" xlink:href="#M"></use><use transform="matrix(0.05,0,0,0.05,69.95,0)" xlink:href="#J"></use><use transform="matrix(0.05,0,0,0.05,73.9,0)" xlink:href="#K"></use><use transform="matrix(0.05,0,0,0.05,83.9,0)" xlink:href="#U"></use></g><g id="C"><use transform="matrix(0.05,0,0,0.05,0,0)" xlink:href="#aG"></use><use transform="matrix(0.05,0,0,0.05,10,0)" xlink:href="#N"></use><use transform="matrix(0.05,0,0,0.05,15.949999999999998,0)" xlink:href="#G"></use><use transform="matrix(0.05,0,0,0.05,25.950000000000003,0)" xlink:href="#R"></use><use transform="matrix(0.05,0,0,0.05,34.95,0)" xlink:href="#Y"></use></g><g id="D"><use transform="matrix(0.05,0,0,0.05,0,0)" xlink:href="#G"></use><use transform="matrix(0.05,0,0,0.05,10,0)" xlink:href="#N"></use></g><path d="M101-234c-31-9-42 10-38 44h38v23H63V0H32v-167H5v-23h27c-7-52 17-82 69-68v24" id="aH"></path><path d="M206 0h-36l-40-164L89 0H53L-1-190h32L70-26l43-164h34l41 164 42-164h31" id="aI"></path><g id="E"><use transform="matrix(0.05,0,0,0.05,0,0)" xlink:href="#aH"></use><use transform="matrix(0.05,0,0,0.05,5,0)" xlink:href="#J"></use><use transform="matrix(0.05,0,0,0.05,8.95,0)" xlink:href="#N"></use><use transform="matrix(0.05,0,0,0.05,14.899999999999999,0)" xlink:href="#P"></use><use transform="matrix(0.05,0,0,0.05,24.9,0)" xlink:href="#aI"></use><use transform="matrix(0.05,0,0,0.05,37.85,0)" xlink:href="#I"></use><use transform="matrix(0.05,0,0,0.05,47.85,0)" xlink:href="#O"></use><use transform="matrix(0.05,0,0,0.05,51.800000000000004,0)" xlink:href="#O"></use></g></defs></g></svg>