<svg xmlns="http://www.w3.org/2000/svg" xmlns:xlink="http://www.w3.org/1999/xlink" xmlns:lucid="lucid" viewBox="20.00 20.00 1380.00 300.00"><g transform="translate(-40 -560)" lucid:page-tab-id="0_0"><path d="M60 590c0-5.52 4.48-10 10-10h1360c5.52 0 10 4.48 10 10v280c0 5.52-4.48 10-10 10H70c-5.52 0-10-4.48-10-10z" stroke="#000" stroke-opacity="0" stroke-width="3" fill="#fff" opacity=".85"></path><path d="M1337.52 800c-3.38 0-4.84-2.4-3.38-5.4l42.4-70.2c1.92-3 5-3 6.9 0l42.4 70.2c1.92 3 .6 5.4-3.36 5.4h-84.96zM1367.74 600h-78.06c-5.28 0-9.68 4.4-9.68 9.8V800h44.3c-.87-3.4 0-6.8 1.48-10.2l5.43-9.2h-36.53v-9.8h42.4l5.88-9.8h-48.28v-9.8h53.7l17.47-30.8c1.9-2.8 4.4-5.2 6.9-6.8 1.46-1 2.93-1.4 4.84-1.4v-103c0-4.8-4.4-9.2-9.84-9.2zm-4.84 39h-68.23v-9.8h68.23v9.8z" stroke="#000" stroke-opacity="0" fill="#415968"></path><use xlink:href="#a" transform="matrix(1,0,0,1,1250,809.0000000000001) translate(33.17499999999998 14.4)"></use><use xlink:href="#b" transform="matrix(1,0,0,1,1250,809.0000000000001) translate(100.02499999999999 14.4)"></use><path d="M281.28 701.98c11.2 5.16 18.46 17.06 18.46 30.67 0 15.6-9.67 28.95-23.08 32.4l-4.4 1.05H113.4c-18.46 0-33.4-16.8-33.4-37.02 0-20.22 14.94-37 33.4-37 1.54 0 2.42 0 3.96.4 5.5-9.8 14.94-15.35 25.48-15.35 2.86 0 5.5.4 8.35 1.32v-1.32c0-24.06 17.35-43.23 39.1-43.23 14.95 0 28.8 10.05 35.17 25.12 5.5-3.57 11.86-5.55 18.45-5.55 20.88 0 37.8 18.77 37.8 41.77.22 2.12 0 4.23-.44 6.74z" stroke="#000" stroke-opacity="0" fill="#415968"></path><use xlink:href="#c" transform="matrix(1,0,0,1,50,775.0950764006792) translate(52.75 14.4)"></use><path d="M914.73 600h-78.1c-5.38 0-9.77 4.4-9.77 9.8V800h97.53V609.8c0-5.4-4.4-9.8-9.67-9.8zm-4.87 180.4H841.5v-9.8h68.36v9.8zm0-19.4H841.5v-9.8h68.36v9.8zm0-122H841.5v-9.8h68.36v9.8z" stroke="#000" stroke-opacity="0" fill="#415968"></path><use xlink:href="#d" transform="matrix(1,0,0,1,796.8636270794027,809) translate(1.1749999999999972 14.4)"></use><use xlink:href="#e" transform="matrix(1,0,0,1,796.8636270794027,809) translate(110.97500000000001 14.4)"></use><use xlink:href="#f" transform="matrix(1,0,0,1,796.8636270794027,809) translate(21.049999999999997 36)"></use><use xlink:href="#g" transform="matrix(1,0,0,1,796.8636270794027,809) translate(84.05 36)"></use><path d="M591.78 600h-96.96c-6.36 0-11.52 6.2-11.52 13.8v172.4c0 7.6 5.16 13.8 11.52 13.8h96.96c6.36 0 11.52-6.2 11.52-13.8V613.8c0-7.6-5.16-13.8-11.52-13.8zm-66.48 9h36.36c3.12 0 5.28.4 5.28 2.8 0 2.8-2.16 2.8-5.28 2.8H525.3c-3 0-5.16 0-5.16-2.8 0-2.4 2.52-2.8 5.16-2.8zm28.68 176.4h-20.64c-2.04 0-3.84-2-3.84-4.8 0-2.4 1.8-4.8 3.84-4.8h20.64c2.16 0 3.84 2.4 3.84 4.8s-1.68 4.8-3.84 4.8zm36.48-19h-94.32V623.8h94.32v142.6z" stroke="#000" stroke-opacity="0" fill="#415968"></path><use xlink:href="#h" transform="matrix(1,0,0,1,453.30011081157346,809) translate(65.75 14.4)"></use><use xlink:href="#i" transform="matrix(1,0,0,1,453.30011081157346,809) translate(19.57499999999999 36)"></use><use xlink:href="#j" transform="matrix(1,0,0,1,453.30011081157346,809) translate(75.425 36)"></use><use xlink:href="#k" transform="matrix(1,0,0,1,453.30011081157346,809) translate(145.425 36)"></use><use xlink:href="#l" transform="matrix(1,0,0,1,453.30011081157346,809) translate(2.75 57.6)"></use><path d="M1025.8 622.33H925.4v-2h100.4zm235.7 0h-82.9v-2h82.9zM925.4 622.33h-1v-2h1zM1276.76 621.33l-14.26 4.64v-9.27z" fill="#5e5e5e"></path><path d="M1280 621.33l-18.5 6.02v-12.03zm-16.5 3.26l10.03-3.27-10.03-3.26z" fill="#5e5e5e"></path><use xlink:href="#m" transform="matrix(1,0,0,1,1025.7992518113062,610.6666666666667) translate(0 14.222222222222223)"></use><use xlink:href="#n" transform="matrix(1,0,0,1,1025.7992518113062,610.6666666666667) translate(20.69135802469136 14.222222222222223)"></use><use xlink:href="#o" transform="matrix(1,0,0,1,1025.7992518113062,610.6666666666667) translate(91.65432098765433 14.222222222222223)"></use><path d="M1015.58 670.33h-72.7v-2h72.7zm263.42 0h-90.2v-2h90.2z" fill="#5e5e5e"></path><path d="M1280 670.33h-1.03v-2h1.03zM941.9 673.97l-14.27-4.64 14.26-4.63z" fill="#5e5e5e"></path><path d="M942.9 675.35l-18.5-6.02 18.5-6zm-12.04-6.02l10.03 3.26v-6.53z" fill="#5e5e5e"></path><use xlink:href="#p" transform="matrix(1,0,0,1,1015.5770295890841,658.6666666666669) translate(0 14.222222222222223)"></use><use xlink:href="#n" transform="matrix(1,0,0,1,1015.5770295890841,658.6666666666669) translate(20.69135802469136 14.222222222222223)"></use><use xlink:href="#q" transform="matrix(1,0,0,1,1015.5770295890841,658.6666666666669) translate(91.65432098765433 14.222222222222223)"></use><use xlink:href="#r" transform="matrix(1,0,0,1,1015.5770295890841,658.6666666666669) translate(124.09876543209877 14.222222222222223)"></use><path d="M958.7 723.67h-33.3v-2h33.3zm302.8 0h-15.8v-2h15.8zM925.4 723.67h-1v-2h1zM1276.76 722.67l-14.26 4.63v-9.27z" fill="#5e5e5e"></path><path d="M1280 722.67l-18.5 6v-12.02zm-16.5 3.26l10.03-3.26-10.03-3.26z" fill="#5e5e5e"></path><use xlink:href="#s" transform="matrix(1,0,0,1,958.6881407001952,712) translate(0 14.222222222222223)"></use><use xlink:href="#t" transform="matrix(1,0,0,1,958.6881407001952,712) translate(20.69135802469136 14.222222222222223)"></use><use xlink:href="#u" transform="matrix(1,0,0,1,958.6881407001952,712) translate(55.20987654320988 14.222222222222223)"></use><use xlink:href="#v" transform="matrix(1,0,0,1,958.6881407001952,712) translate(191.40740740740742 14.222222222222223)"></use><use xlink:href="#w" transform="matrix(1,0,0,1,958.6881407001952,712) translate(219.95061728395063 14.222222222222223)"></use><path d="M998.24 777H942.9v-2h55.34zm280.76 0h-72.86v-2H1279z" fill="#5e5e5e"></path><path d="M1280 777h-1.03v-2h1.03zM941.9 780.64L927.6 776l14.27-4.64z" fill="#5e5e5e"></path><path d="M942.9 782l-18.5-6 18.5-6zm-12.04-6l10.03 3.26v-6.52z" fill="#5e5e5e"></path><use xlink:href="#x" transform="matrix(1,0,0,1,998.2436962557508,765.3333333333335) translate(0 14.222222222222223)"></use><use xlink:href="#y" transform="matrix(1,0,0,1,998.2436962557508,765.3333333333335) translate(20.69135802469136 14.222222222222223)"></use><path d="M656.9 663.67h-52.6v-2h52.6zm151.46 0h-35.1v-2h35.1z" fill="#5e5e5e"></path><path d="M604.33 663.67h-1.03v-2h1.03zM823.63 662.67l-14.27 4.63v-9.27z" fill="#5e5e5e"></path><path d="M826.86 662.67l-18.5 6v-12.02zm-16.5 3.26l10.03-3.26-10.04-3.26z" fill="#5e5e5e"></path><g><use xlink:href="#z" transform="matrix(1,0,0,1,656.9090294393152,652) translate(0 14.222222222222223)"></use><use xlink:href="#A" transform="matrix(1,0,0,1,656.9090294393152,652) translate(20.69135802469136 14.222222222222223)"></use></g><path d="M626.54 743.67h-4.74v-2h4.74zm199.32 0h-22.23v-2h22.23z" fill="#5e5e5e"></path><path d="M826.86 743.67h-1.02v-2h1.02zM620.8 747.3l-14.26-4.63 14.26-4.64z" fill="#5e5e5e"></path><path d="M621.8 748.68l-18.5-6 18.5-6.03zm-12.03-6l10.03 3.25v-6.52z" fill="#5e5e5e"></path><g><use xlink:href="#B" transform="matrix(1,0,0,1,626.5386590689449,732) translate(0 14.222222222222223)"></use><use xlink:href="#C" transform="matrix(1,0,0,1,626.5386590689449,732) translate(20.69135802469136 14.222222222222223)"></use><use xlink:href="#D" transform="matrix(1,0,0,1,626.5386590689449,732) translate(71.55555555555557 14.222222222222223)"></use><use xlink:href="#E" transform="matrix(1,0,0,1,626.5386590689449,732) translate(106.12345679012347 14.222222222222223)"></use></g><path d="M300.63 663.13H267.9v-2h32.73zm164.17 0h-15.23v-2h15.23z" fill="#5e5e5e"></path><path d="M267.93 663.05l-.6-.6-1.72-1.32h2.33zM480.06 662.13l-14.26 4.64v-9.27z" fill="#5e5e5e"></path><path d="M483.3 662.13l-18.5 6v-12zm-16.5 3.26l10.03-3.27-10.03-3.26z" fill="#5e5e5e"></path><g><use xlink:href="#F" transform="matrix(1,0,0,1,300.6324104656993,651.4645796782293) translate(0 14.222222222222223)"></use><use xlink:href="#G" transform="matrix(1,0,0,1,300.6324104656993,651.4645796782293) translate(20.69135802469136 14.222222222222223)"></use><use xlink:href="#H" transform="matrix(1,0,0,1,300.6324104656993,651.4645796782293) translate(68.0493827160494 14.222222222222223)"></use></g><path d="M358.8 746.33h-42.9v-2h42.9zm123.5 0h-60.4v-2h60.4z" fill="#5e5e5e"></path><path d="M483.3 746.33h-1.03v-2h1.03zM314.9 749.97l-14.27-4.64 14.27-4.63z" fill="#5e5e5e"></path><path d="M315.9 751.35l-18.5-6.02 18.5-6zm-12.03-6.02l10.03 3.26v-6.53z" fill="#5e5e5e"></path><g><use xlink:href="#I" transform="matrix(1,0,0,1,358.7934341881006,734.6666666666667) translate(0 14.222222222222223)"></use><use xlink:href="#J" transform="matrix(1,0,0,1,358.7934341881006,734.6666666666667) translate(20.69135802469136 14.222222222222223)"></use></g><defs><path d="M30-248c118-7 216 8 213 122C240-48 200 0 122 0H30v-248zM63-27c89 8 146-16 146-99s-60-101-146-95v194" id="K"></path><path d="M100-194c62-1 85 37 85 99 1 63-27 99-86 99S16-35 15-95c0-66 28-99 85-99zM99-20c44 1 53-31 53-75 0-43-8-75-51-75s-53 32-53 75 10 74 51 75" id="L"></path><path d="M210-169c-67 3-38 105-44 169h-31v-121c0-29-5-50-35-48C34-165 62-65 56 0H25l-1-190h30c1 10-1 24 2 32 10-44 99-50 107 0 11-21 27-35 58-36 85-2 47 119 55 194h-31v-121c0-29-5-49-35-48" id="M"></path><path d="M141-36C126-15 110 5 73 4 37 3 15-17 15-53c-1-64 63-63 125-63 3-35-9-54-41-54-24 1-41 7-42 31l-33-3c5-37 33-52 76-52 45 0 72 20 72 64v82c-1 20 7 32 28 27v20c-31 9-61-2-59-35zM48-53c0 20 12 33 32 33 41-3 63-29 60-74-43 2-92-5-92 41" id="N"></path><path d="M24-231v-30h32v30H24zM24 0v-190h32V0H24" id="O"></path><path d="M117-194c89-4 53 116 60 194h-32v-121c0-31-8-49-39-48C34-167 62-67 57 0H25l-1-190h30c1 10-1 24 2 32 11-22 29-35 61-36" id="P"></path><g id="a"><use transform="matrix(0.05,0,0,0.05,0,0)" xlink:href="#K"></use><use transform="matrix(0.05,0,0,0.05,12.950000000000001,0)" xlink:href="#L"></use><use transform="matrix(0.05,0,0,0.05,22.950000000000003,0)" xlink:href="#M"></use><use transform="matrix(0.05,0,0,0.05,37.900000000000006,0)" xlink:href="#N"></use><use transform="matrix(0.05,0,0,0.05,47.900000000000006,0)" xlink:href="#O"></use><use transform="matrix(0.05,0,0,0.05,51.85,0)" xlink:href="#P"></use></g><path d="M96-169c-40 0-48 33-48 73s9 75 48 75c24 0 41-14 43-38l32 2c-6 37-31 61-74 61-59 0-76-41-82-99-10-93 101-131 147-64 4 7 5 14 7 22l-32 3c-4-21-16-35-41-35" id="Q"></path><path d="M59-47c-2 24 18 29 38 22v24C64 9 27 4 27-40v-127H5v-23h24l9-43h21v43h35v23H59v120" id="R"></path><path d="M114-163C36-179 61-72 57 0H25l-1-190h30c1 12-1 29 2 39 6-27 23-49 58-41v29" id="S"></path><path d="M24 0v-261h32V0H24" id="T"></path><path d="M100-194c63 0 86 42 84 106H49c0 40 14 67 53 68 26 1 43-12 49-29l28 8c-11 28-37 45-77 45C44 4 14-33 15-96c1-61 26-98 85-98zm52 81c6-60-76-77-97-28-3 7-6 17-6 28h103" id="U"></path><g id="b"><use transform="matrix(0.05,0,0,0.05,0,0)" xlink:href="#Q"></use><use transform="matrix(0.05,0,0,0.05,9,0)" xlink:href="#L"></use><use transform="matrix(0.05,0,0,0.05,19,0)" xlink:href="#P"></use><use transform="matrix(0.05,0,0,0.05,29,0)" xlink:href="#R"></use><use transform="matrix(0.05,0,0,0.05,34,0)" xlink:href="#S"></use><use transform="matrix(0.05,0,0,0.05,39.95,0)" xlink:href="#L"></use><use transform="matrix(0.05,0,0,0.05,49.95,0)" xlink:href="#T"></use><use transform="matrix(0.05,0,0,0.05,53.900000000000006,0)" xlink:href="#T"></use><use transform="matrix(0.05,0,0,0.05,57.85,0)" xlink:href="#U"></use><use transform="matrix(0.05,0,0,0.05,67.85000000000001,0)" xlink:href="#S"></use></g><path d="M84 4C-5 8 30-112 23-190h32v120c0 31 7 50 39 49 72-2 45-101 50-169h31l1 190h-30c-1-10 1-25-2-33-11 22-28 36-60 37" id="V"></path><path d="M143 0L79-87 56-68V0H24v-261h32v163l83-92h37l-77 82L181 0h-38" id="W"></path><path d="M33 0v-38h34V0H33" id="X"></path><path d="M101-234c-31-9-42 10-38 44h38v23H63V0H32v-167H5v-23h27c-7-52 17-82 69-68v24" id="Y"></path><path d="M126-127c33 6 58 20 58 59 0 88-139 92-164 29-3-8-5-16-6-25l32-3c6 27 21 44 54 44 32 0 52-15 52-46 0-38-36-46-79-43v-28c39 1 72-4 72-42 0-27-17-43-46-43-28 0-47 15-49 41l-32-3c6-42 35-63 81-64 48-1 79 21 79 65 0 36-21 52-52 59" id="Z"></path><path d="M110-160c48 1 74 30 74 79 0 53-28 85-80 85-65 0-83-55-86-122-5-90 50-162 133-122 14 7 22 21 27 39l-31 6c-5-40-67-38-82-6-9 19-15 44-15 74 11-20 30-34 60-33zm-7 138c34 0 49-23 49-58s-16-56-50-56c-29 0-50 16-49 49 1 36 15 65 50 65" id="aa"></path><path d="M54-142c48-35 137-8 131 61C196 18 31 33 14-55l32-4c7 23 22 37 52 37 35-1 51-22 54-58 4-55-73-65-99-34H22l8-134h141v27H59" id="ab"></path><g id="c"><use transform="matrix(0.05,0,0,0.05,0,0)" xlink:href="#L"></use><use transform="matrix(0.05,0,0,0.05,10,0)" xlink:href="#V"></use><use transform="matrix(0.05,0,0,0.05,20,0)" xlink:href="#R"></use><use transform="matrix(0.05,0,0,0.05,25,0)" xlink:href="#T"></use><use transform="matrix(0.05,0,0,0.05,28.950000000000003,0)" xlink:href="#L"></use><use transform="matrix(0.05,0,0,0.05,38.95,0)" xlink:href="#L"></use><use transform="matrix(0.05,0,0,0.05,48.95,0)" xlink:href="#W"></use><use transform="matrix(0.05,0,0,0.05,57.95,0)" xlink:href="#X"></use><use transform="matrix(0.05,0,0,0.05,62.95,0)" xlink:href="#L"></use><use transform="matrix(0.05,0,0,0.05,72.95,0)" xlink:href="#Y"></use><use transform="matrix(0.05,0,0,0.05,77.60000000000001,0)" xlink:href="#Y"></use><use transform="matrix(0.05,0,0,0.05,82.60000000000001,0)" xlink:href="#O"></use><use transform="matrix(0.05,0,0,0.05,86.55000000000001,0)" xlink:href="#Q"></use><use transform="matrix(0.05,0,0,0.05,95.55000000000001,0)" xlink:href="#U"></use><use transform="matrix(0.05,0,0,0.05,105.55000000000001,0)" xlink:href="#Z"></use><use transform="matrix(0.05,0,0,0.05,115.55000000000001,0)" xlink:href="#aa"></use><use transform="matrix(0.05,0,0,0.05,125.55000000000001,0)" xlink:href="#ab"></use><use transform="matrix(0.05,0,0,0.05,135.55,0)" xlink:href="#X"></use><use transform="matrix(0.05,0,0,0.05,140.55,0)" xlink:href="#Q"></use><use transform="matrix(0.05,0,0,0.05,149.55,0)" xlink:href="#L"></use><use transform="matrix(0.05,0,0,0.05,159.55,0)" xlink:href="#M"></use></g><path d="M140-251c81 0 123 46 123 126C263-46 219 4 140 4 59 4 17-45 17-125s42-126 123-126zm0 227c63 0 89-41 89-101s-29-99-89-99c-61 0-89 39-89 99S79-25 140-24" id="ac"></path><path d="M16-82v-28h88v28H16" id="ad"></path><path d="M30-248c87 1 191-15 191 75 0 78-77 80-158 76V0H30v-248zm33 125c57 0 124 11 124-50 0-59-68-47-124-48v98" id="ae"></path><path d="M135-143c-3-34-86-38-87 0 15 53 115 12 119 90S17 21 10-45l28-5c4 36 97 45 98 0-10-56-113-15-118-90-4-57 82-63 122-42 12 7 21 19 24 35" id="af"></path><g id="d"><use transform="matrix(0.05,0,0,0.05,0,0)" xlink:href="#ac"></use><use transform="matrix(0.05,0,0,0.05,14,0)" xlink:href="#P"></use><use transform="matrix(0.05,0,0,0.05,24,0)" xlink:href="#ad"></use><use transform="matrix(0.05,0,0,0.05,29.950000000000003,0)" xlink:href="#ae"></use><use transform="matrix(0.05,0,0,0.05,41.95,0)" xlink:href="#S"></use><use transform="matrix(0.05,0,0,0.05,47.900000000000006,0)" xlink:href="#U"></use><use transform="matrix(0.05,0,0,0.05,57.900000000000006,0)" xlink:href="#M"></use><use transform="matrix(0.05,0,0,0.05,72.85000000000001,0)" xlink:href="#O"></use><use transform="matrix(0.05,0,0,0.05,76.80000000000001,0)" xlink:href="#af"></use><use transform="matrix(0.05,0,0,0.05,85.80000000000001,0)" xlink:href="#U"></use><use transform="matrix(0.05,0,0,0.05,95.80000000000001,0)" xlink:href="#af"></use></g><path d="M212-179c-10-28-35-45-73-45-59 0-87 40-87 99 0 60 29 101 89 101 43 0 62-24 78-52l27 14C228-24 195 4 139 4 59 4 22-46 18-125c-6-104 99-153 187-111 19 9 31 26 39 46" id="ag"></path><g id="e"><use transform="matrix(0.05,0,0,0.05,0,0)" xlink:href="#ag"></use><use transform="matrix(0.05,0,0,0.05,12.950000000000001,0)" xlink:href="#T"></use><use transform="matrix(0.05,0,0,0.05,16.900000000000002,0)" xlink:href="#O"></use><use transform="matrix(0.05,0,0,0.05,20.85,0)" xlink:href="#U"></use><use transform="matrix(0.05,0,0,0.05,30.85,0)" xlink:href="#P"></use><use transform="matrix(0.05,0,0,0.05,40.85,0)" xlink:href="#R"></use></g><path d="M205 0l-28-72H64L36 0H1l101-248h38L239 0h-34zm-38-99l-47-123c-12 45-31 82-46 123h93" id="ah"></path><g id="f"><use transform="matrix(0.05,0,0,0.05,0,0)" xlink:href="#ah"></use><use transform="matrix(0.05,0,0,0.05,12,0)" xlink:href="#Q"></use><use transform="matrix(0.05,0,0,0.05,21,0)" xlink:href="#Q"></use><use transform="matrix(0.05,0,0,0.05,30,0)" xlink:href="#U"></use><use transform="matrix(0.05,0,0,0.05,40,0)" xlink:href="#af"></use><use transform="matrix(0.05,0,0,0.05,49,0)" xlink:href="#af"></use></g><path d="M185-189c-5-48-123-54-124 2 14 75 158 14 163 119 3 78-121 87-175 55-17-10-28-26-33-46l33-7c5 56 141 63 141-1 0-78-155-14-162-118-5-82 145-84 179-34 5 7 8 16 11 25" id="ai"></path><path d="M108 0H70L1-190h34L89-25l56-165h34" id="aj"></path><g id="g"><use transform="matrix(0.05,0,0,0.05,0,0)" xlink:href="#ai"></use><use transform="matrix(0.05,0,0,0.05,12,0)" xlink:href="#U"></use><use transform="matrix(0.05,0,0,0.05,22,0)" xlink:href="#S"></use><use transform="matrix(0.05,0,0,0.05,27.950000000000003,0)" xlink:href="#aj"></use><use transform="matrix(0.05,0,0,0.05,36.95,0)" xlink:href="#U"></use><use transform="matrix(0.05,0,0,0.05,46.95,0)" xlink:href="#S"></use></g><path d="M137 0h-34L2-248h35l83 218 83-218h36" id="ak"></path><g id="h"><use transform="matrix(0.05,0,0,0.05,0,0)" xlink:href="#ak"></use><use transform="matrix(0.05,0,0,0.05,11.65,0)" xlink:href="#O"></use><use transform="matrix(0.05,0,0,0.05,15.600000000000001,0)" xlink:href="#Q"></use><use transform="matrix(0.05,0,0,0.05,24.6,0)" xlink:href="#R"></use><use transform="matrix(0.05,0,0,0.05,29.6,0)" xlink:href="#O"></use><use transform="matrix(0.05,0,0,0.05,33.550000000000004,0)" xlink:href="#M"></use></g><g id="i"><use transform="matrix(0.05,0,0,0.05,0,0)" xlink:href="#ae"></use><use transform="matrix(0.05,0,0,0.05,12,0)" xlink:href="#S"></use><use transform="matrix(0.05,0,0,0.05,17.95,0)" xlink:href="#L"></use><use transform="matrix(0.05,0,0,0.05,27.950000000000003,0)" xlink:href="#Y"></use><use transform="matrix(0.05,0,0,0.05,32.95,0)" xlink:href="#O"></use><use transform="matrix(0.05,0,0,0.05,36.900000000000006,0)" xlink:href="#T"></use><use transform="matrix(0.05,0,0,0.05,40.85000000000001,0)" xlink:href="#U"></use></g><path d="M115-194c55 1 70 41 70 98S169 2 115 4C84 4 66-9 55-30l1 105H24l-1-265h31l2 30c10-21 28-34 59-34zm-8 174c40 0 45-34 45-75s-6-73-45-74c-42 0-51 32-51 76 0 43 10 73 51 73" id="al"></path><path d="M85-194c31 0 48 13 60 33l-1-100h32l1 261h-30c-2-10 0-23-3-31C134-8 116 4 85 4 32 4 16-35 15-94c0-66 23-100 70-100zm9 24c-40 0-46 34-46 75 0 40 6 74 45 74 42 0 51-32 51-76 0-42-9-74-50-73" id="am"></path><g id="j"><use transform="matrix(0.05,0,0,0.05,0,0)" xlink:href="#V"></use><use transform="matrix(0.05,0,0,0.05,10,0)" xlink:href="#al"></use><use transform="matrix(0.05,0,0,0.05,20,0)" xlink:href="#am"></use><use transform="matrix(0.05,0,0,0.05,30,0)" xlink:href="#N"></use><use transform="matrix(0.05,0,0,0.05,40,0)" xlink:href="#R"></use><use transform="matrix(0.05,0,0,0.05,45,0)" xlink:href="#U"></use><use transform="matrix(0.05,0,0,0.05,55,0)" xlink:href="#am"></use></g><g id="k"><use transform="matrix(0.05,0,0,0.05,0,0)" xlink:href="#R"></use><use transform="matrix(0.05,0,0,0.05,5,0)" xlink:href="#L"></use></g><g id="l"><use transform="matrix(0.05,0,0,0.05,0,0)" xlink:href="#L"></use><use transform="matrix(0.05,0,0,0.05,10,0)" xlink:href="#V"></use><use transform="matrix(0.05,0,0,0.05,20,0)" xlink:href="#R"></use><use transform="matrix(0.05,0,0,0.05,25,0)" xlink:href="#T"></use><use transform="matrix(0.05,0,0,0.05,28.950000000000003,0)" xlink:href="#L"></use><use transform="matrix(0.05,0,0,0.05,38.95,0)" xlink:href="#L"></use><use transform="matrix(0.05,0,0,0.05,48.95,0)" xlink:href="#W"></use><use transform="matrix(0.05,0,0,0.05,57.95,0)" xlink:href="#X"></use><use transform="matrix(0.05,0,0,0.05,62.95,0)" xlink:href="#L"></use><use transform="matrix(0.05,0,0,0.05,72.95,0)" xlink:href="#Y"></use><use transform="matrix(0.05,0,0,0.05,77.60000000000001,0)" xlink:href="#Y"></use><use transform="matrix(0.05,0,0,0.05,82.60000000000001,0)" xlink:href="#O"></use><use transform="matrix(0.05,0,0,0.05,86.55000000000001,0)" xlink:href="#Q"></use><use transform="matrix(0.05,0,0,0.05,95.55000000000001,0)" xlink:href="#U"></use><use transform="matrix(0.05,0,0,0.05,105.55000000000001,0)" xlink:href="#Z"></use><use transform="matrix(0.05,0,0,0.05,115.55000000000001,0)" xlink:href="#aa"></use><use transform="matrix(0.05,0,0,0.05,125.55000000000001,0)" xlink:href="#ab"></use><use transform="matrix(0.05,0,0,0.05,135.55,0)" xlink:href="#X"></use><use transform="matrix(0.05,0,0,0.05,140.55,0)" xlink:href="#Q"></use><use transform="matrix(0.05,0,0,0.05,149.55,0)" xlink:href="#L"></use><use transform="matrix(0.05,0,0,0.05,159.55,0)" xlink:href="#M"></use></g><path fill="#333" d="M182-182c0 78-84 86-111 141h115V0H12c-6-101 99-100 120-180 1-22-12-31-33-32-23 0-32 14-35 34l-49-3c5-45 32-70 84-70 51 0 83 22 83 69" id="an"></path><path fill="#333" d="M102-93c0 74-22 123-52 168H0C30 29 54-18 53-93c0-74-22-123-53-168h50c30 45 52 94 52 168" id="ao"></path><g id="m"><use transform="matrix(0.04938271604938272,0,0,0.04938271604938272,0,0)" xlink:href="#an"></use><use transform="matrix(0.04938271604938272,0,0,0.04938271604938272,9.876543209876544,0)" xlink:href="#ao"></use></g><path fill="#333" d="M230 0l2-204L168 0h-37L68-204 70 0H24v-248h70l56 185 57-185h69V0h-46" id="ap"></path><path fill="#333" d="M133-34C117-15 103 5 69 4 32 3 11-16 11-54c-1-60 55-63 116-61 1-26-3-47-28-47-18 1-26 9-28 27l-52-2c7-38 36-58 82-57s74 22 75 68l1 82c-1 14 12 18 25 15v27c-30 8-71 5-69-32zm-48 3c29 0 43-24 42-57-32 0-66-3-65 30 0 17 8 27 23 27" id="aq"></path><path fill="#333" d="M25-224v-37h50v37H25zM25 0v-190h50V0H25" id="ar"></path><path fill="#333" d="M25 0v-261h50V0H25" id="as"></path><path fill="#333" d="M135-194c52 0 70 43 70 98 0 56-19 99-73 100-30 1-46-15-58-35L72 0H24l1-261h50v104c11-23 29-37 60-37zM114-30c31 0 40-27 40-66 0-37-7-63-39-63s-41 28-41 65c0 36 8 64 40 64" id="at"></path><path fill="#333" d="M110-194c64 0 96 36 96 99 0 64-35 99-97 99-61 0-95-36-95-99 0-62 34-99 96-99zm-1 164c35 0 45-28 45-65 0-40-10-65-43-65-34 0-45 26-45 65 0 36 10 65 43 65" id="au"></path><path fill="#333" d="M144 0l-44-69L55 0H2l70-98-66-92h53l41 62 40-62h54l-67 91 71 99h-54" id="av"></path><g id="n"><use transform="matrix(0.04938271604938272,0,0,0.04938271604938272,0,0)" xlink:href="#ap"></use><use transform="matrix(0.04938271604938272,0,0,0.04938271604938272,14.765432098765434,0)" xlink:href="#aq"></use><use transform="matrix(0.04938271604938272,0,0,0.04938271604938272,24.641975308641978,0)" xlink:href="#ar"></use><use transform="matrix(0.04938271604938272,0,0,0.04938271604938272,29.58024691358025,0)" xlink:href="#as"></use><use transform="matrix(0.04938271604938272,0,0,0.04938271604938272,34.51851851851852,0)" xlink:href="#at"></use><use transform="matrix(0.04938271604938272,0,0,0.04938271604938272,45.333333333333336,0)" xlink:href="#au"></use><use transform="matrix(0.04938271604938272,0,0,0.04938271604938272,56.14814814814815,0)" xlink:href="#av"></use></g><path fill="#333" d="M185-48c-13 30-37 53-82 52C43 2 14-33 14-96s30-98 90-98c62 0 83 45 84 108H66c0 31 8 55 39 56 18 0 30-7 34-22zm-45-69c5-46-57-63-70-21-2 6-4 13-4 21h74" id="aw"></path><path fill="#333" d="M137-138c1-29-70-34-71-4 15 46 118 7 119 86 1 83-164 76-172 9l43-7c4 19 20 25 44 25 33 8 57-30 24-41C81-84 22-81 20-136c-2-80 154-74 161-7" id="ax"></path><path fill="#333" d="M115-3C79 11 28 4 28-45v-112H4v-33h27l15-45h31v45h36v33H77v99c-1 23 16 31 38 25v30" id="ay"></path><path fill="#333" d="M110-251c83-7 118 89 53 130-17 10-36 21-38 46H78c2-56 65-53 71-103 2-21-15-35-38-34-25 1-41 14-44 38l-50-2c6-48 39-70 93-75zM77 0v-47h51V0H77" id="az"></path><g id="o"><use transform="matrix(0.04938271604938272,0,0,0.04938271604938272,0,0)" xlink:href="#aw"></use><use transform="matrix(0.04938271604938272,0,0,0.04938271604938272,9.876543209876544,0)" xlink:href="#av"></use><use transform="matrix(0.04938271604938272,0,0,0.04938271604938272,19.75308641975309,0)" xlink:href="#ar"></use><use transform="matrix(0.04938271604938272,0,0,0.04938271604938272,24.69135802469136,0)" xlink:href="#ax"></use><use transform="matrix(0.04938271604938272,0,0,0.04938271604938272,34.567901234567906,0)" xlink:href="#ay"></use><use transform="matrix(0.04938271604938272,0,0,0.04938271604938272,40.44444444444445,0)" xlink:href="#ax"></use><use transform="matrix(0.04938271604938272,0,0,0.04938271604938272,50.320987654320994,0)" xlink:href="#az"></use></g><path fill="#333" d="M128-127c34 4 56 21 59 58 7 91-148 94-172 28-4-9-6-17-7-26l51-5c1 24 16 35 40 36 23 0 39-12 38-36-1-31-31-36-65-34v-40c32 2 59-3 59-33 0-20-13-33-34-33s-33 13-35 32l-50-3c6-44 37-68 86-68 50 0 83 20 83 66 0 35-22 52-53 58" id="aA"></path><g id="p"><use transform="matrix(0.04938271604938272,0,0,0.04938271604938272,0,0)" xlink:href="#aA"></use><use transform="matrix(0.04938271604938272,0,0,0.04938271604938272,9.876543209876544,0)" xlink:href="#ao"></use></g><path fill="#333" d="M135-194c87-1 58 113 63 194h-50c-7-57 23-157-34-157-59 0-34 97-39 157H25l-1-190h47c2 12-1 28 3 38 12-26 28-41 61-42" id="aB"></path><g id="q"><use transform="matrix(0.04938271604938272,0,0,0.04938271604938272,0,0)" xlink:href="#aB"></use><use transform="matrix(0.04938271604938272,0,0,0.04938271604938272,10.814814814814815,0)" xlink:href="#au"></use><use transform="matrix(0.04938271604938272,0,0,0.04938271604938272,21.62962962962963,0)" xlink:href="#ay"></use></g><path fill="#333" d="M121-226c-27-7-43 5-38 36h38v33H83V0H34v-157H6v-33h28c-9-59 32-81 87-68v32" id="aC"></path><path fill="#333" d="M85 4C-2 5 27-109 22-190h50c7 57-23 150 33 157 60-5 35-97 40-157h50l1 190h-47c-2-12 1-28-3-38-12 25-28 42-61 42" id="aD"></path><path fill="#333" d="M88-194c31-1 46 15 58 34l-1-101h50l1 261h-48c-2-10 0-23-3-31C134-8 116 4 84 4 32 4 16-41 15-95c0-56 19-97 73-99zm17 164c33 0 40-30 41-66 1-37-9-64-41-64s-38 30-39 65c0 43 13 65 39 65" id="aE"></path><g id="r"><use transform="matrix(0.04938271604938272,0,0,0.04938271604938272,0,0)" xlink:href="#aC"></use><use transform="matrix(0.04938271604938272,0,0,0.04938271604938272,5.8765432098765435,0)" xlink:href="#au"></use><use transform="matrix(0.04938271604938272,0,0,0.04938271604938272,16.691358024691358,0)" xlink:href="#aD"></use><use transform="matrix(0.04938271604938272,0,0,0.04938271604938272,27.50617283950617,0)" xlink:href="#aB"></use><use transform="matrix(0.04938271604938272,0,0,0.04938271604938272,38.32098765432099,0)" xlink:href="#aE"></use></g><path fill="#333" d="M165-50V0h-47v-50H5v-38l105-160h55v161h33v37h-33zm-47-37l2-116L46-87h72" id="aF"></path><g id="s"><use transform="matrix(0.04938271604938272,0,0,0.04938271604938272,0,0)" xlink:href="#aF"></use><use transform="matrix(0.04938271604938272,0,0,0.04938271604938272,9.876543209876544,0)" xlink:href="#ao"></use></g><path fill="#333" d="M67-125c0 54 23 88 75 88 28 0 53-7 68-21v-34h-60v-39h108v91C232-14 192 4 140 4 58 4 20-42 15-125 8-236 126-280 215-234c19 10 29 26 37 47l-47 15c-11-23-29-39-63-39-53 1-75 33-75 86" id="aG"></path><g id="t"><use transform="matrix(0.04938271604938272,0,0,0.04938271604938272,0,0)" xlink:href="#aG"></use><use transform="matrix(0.04938271604938272,0,0,0.04938271604938272,13.827160493827162,0)" xlink:href="#aw"></use><use transform="matrix(0.04938271604938272,0,0,0.04938271604938272,23.703703703703706,0)" xlink:href="#ay"></use></g><path fill="#333" d="M136-208V0H84v-208H4v-40h212v40h-80" id="aH"></path><path fill="#333" d="M135-150c-39-12-60 13-60 57V0H25l-1-190h47c2 13-1 29 3 40 6-28 27-53 61-41v41" id="aI"></path><path fill="#333" d="M195-6C206 82 75 100 31 46c-4-6-6-13-8-21l49-6c3 16 16 24 34 25 40 0 42-37 40-79-11 22-30 35-61 35-53 0-70-43-70-97 0-56 18-96 73-97 30 0 46 14 59 34l2-30h47zm-90-29c32 0 41-27 41-63 0-35-9-62-40-62-32 0-39 29-40 63 0 36 9 62 39 62" id="aJ"></path><path fill="#333" d="M140-251c80 0 125 45 125 126S219 4 139 4C58 4 15-44 15-125s44-126 125-126zm-1 214c52 0 73-35 73-88 0-50-21-86-72-86-52 0-73 35-73 86s22 88 72 88" id="aK"></path><path fill="#333" d="M275 0h-61l-44-196L126 0H64L0-248h53L97-49l45-199h58l43 199 44-199h52" id="aL"></path><path fill="#333" d="M199 0l-22-63H83L61 0H9l90-248h61L250 0h-51zm-33-102l-36-108c-10 38-24 72-36 108h72" id="aM"></path><path fill="#333" d="M238-95c0 69-44 99-111 99C63 4 22-25 22-93v-155h51v151c-1 38 19 59 55 60 90 1 49-130 58-211h52v153" id="aN"></path><path fill="#333" d="M240-174c0 40-23 61-54 70L253 0h-59l-57-94H76V0H24v-248c93 4 217-23 216 74zM76-134c48-2 112 12 112-38 0-48-66-32-112-35v73" id="aO"></path><path fill="#333" d="M24 0v-248h52v208h133V0H24" id="aP"></path><g id="u"><use transform="matrix(0.04938271604938272,0,0,0.04938271604938272,0,0)" xlink:href="#aH"></use><use transform="matrix(0.04938271604938272,0,0,0.04938271604938272,9.481481481481481,0)" xlink:href="#aq"></use><use transform="matrix(0.04938271604938272,0,0,0.04938271604938272,19.358024691358025,0)" xlink:href="#aI"></use><use transform="matrix(0.04938271604938272,0,0,0.04938271604938272,26.271604938271608,0)" xlink:href="#aJ"></use><use transform="matrix(0.04938271604938272,0,0,0.04938271604938272,37.086419753086425,0)" xlink:href="#aw"></use><use transform="matrix(0.04938271604938272,0,0,0.04938271604938272,46.96296296296297,0)" xlink:href="#ay"></use><use transform="matrix(0.04938271604938272,0,0,0.04938271604938272,52.83950617283951,0)" xlink:href="#aK"></use><use transform="matrix(0.04938271604938272,0,0,0.04938271604938272,66.66666666666667,0)" xlink:href="#aL"></use><use transform="matrix(0.04938271604938272,0,0,0.04938271604938272,82.41975308641975,0)" xlink:href="#aM"></use><use transform="matrix(0.04938271604938272,0,0,0.04938271604938272,95.20987654320987,0)" xlink:href="#aN"></use><use transform="matrix(0.04938271604938272,0,0,0.04938271604938272,108.00000000000001,0)" xlink:href="#aO"></use><use transform="matrix(0.04938271604938272,0,0,0.04938271604938272,120.79012345679013,0)" xlink:href="#aP"></use></g><g id="v"><use transform="matrix(0.04938271604938272,0,0,0.04938271604938272,0,0)" xlink:href="#aC"></use><use transform="matrix(0.04938271604938272,0,0,0.04938271604938272,5.8765432098765435,0)" xlink:href="#au"></use><use transform="matrix(0.04938271604938272,0,0,0.04938271604938272,16.691358024691358,0)" xlink:href="#aI"></use></g><path fill="#333" d="M220-157c-53 9-28 100-34 157h-49v-107c1-27-5-49-29-50C55-147 81-57 75 0H25l-1-190h47c2 12-1 28 3 38 10-53 101-56 108 0 13-22 24-43 59-42 82 1 51 116 57 194h-49v-107c-1-25-5-48-29-50" id="aQ"></path><g id="w"><use transform="matrix(0.04938271604938272,0,0,0.04938271604938272,0,0)" xlink:href="#aQ"></use><use transform="matrix(0.04938271604938272,0,0,0.04938271604938272,15.80246913580247,0)" xlink:href="#aq"></use><use transform="matrix(0.04938271604938272,0,0,0.04938271604938272,25.679012345679016,0)" xlink:href="#ar"></use><use transform="matrix(0.04938271604938272,0,0,0.04938271604938272,30.617283950617285,0)" xlink:href="#as"></use><use transform="matrix(0.04938271604938272,0,0,0.04938271604938272,35.55555555555556,0)" xlink:href="#at"></use><use transform="matrix(0.04938271604938272,0,0,0.04938271604938272,46.370370370370374,0)" xlink:href="#au"></use><use transform="matrix(0.04938271604938272,0,0,0.04938271604938272,57.18518518518519,0)" xlink:href="#av"></use></g><path fill="#333" d="M139-81c0-46-55-55-73-27H18l9-140h149v37H72l-4 63c44-38 133-4 122 66C201 21 21 35 11-62l49-4c5 18 15 30 39 30 26 0 40-18 40-45" id="aR"></path><g id="x"><use transform="matrix(0.04938271604938272,0,0,0.04938271604938272,0,0)" xlink:href="#aR"></use><use transform="matrix(0.04938271604938272,0,0,0.04938271604938272,9.876543209876544,0)" xlink:href="#ao"></use></g><path fill="#333" d="M147 0L96-86 75-71V0H25v-261h50v150l67-79h53l-66 74L201 0h-54" id="aS"></path><path fill="#333" d="M24 0v-54h51V0H24" id="aT"></path><path fill="#333" d="M190-63c-7 42-38 67-86 67-59 0-84-38-90-98-12-110 154-137 174-36l-49 2c-2-19-15-32-35-32-30 0-35 28-38 64-6 74 65 87 74 30" id="aU"></path><path fill="#333" d="M115-159c48 0 72 30 72 78 0 54-30 85-83 85-64 0-91-50-91-122 0-98 58-163 141-120 15 8 21 24 27 44l-47 6c-5-31-48-31-61-4-7 14-11 33-11 60 9-17 28-27 53-27zM102-35c24 0 36-20 36-45s-11-43-37-43c-23 0-36 14-36 38 0 27 11 50 37 50" id="aV"></path><g id="y"><use transform="matrix(0.04938271604938272,0,0,0.04938271604938272,0,0)" xlink:href="#au"></use><use transform="matrix(0.04938271604938272,0,0,0.04938271604938272,10.814814814814815,0)" xlink:href="#aD"></use><use transform="matrix(0.04938271604938272,0,0,0.04938271604938272,21.62962962962963,0)" xlink:href="#ay"></use><use transform="matrix(0.04938271604938272,0,0,0.04938271604938272,27.506172839506174,0)" xlink:href="#as"></use><use transform="matrix(0.04938271604938272,0,0,0.04938271604938272,32.44444444444444,0)" xlink:href="#au"></use><use transform="matrix(0.04938271604938272,0,0,0.04938271604938272,43.25925925925926,0)" xlink:href="#au"></use><use transform="matrix(0.04938271604938272,0,0,0.04938271604938272,54.074074074074076,0)" xlink:href="#aS"></use><use transform="matrix(0.04938271604938272,0,0,0.04938271604938272,63.95061728395062,0)" xlink:href="#aT"></use><use transform="matrix(0.04938271604938272,0,0,0.04938271604938272,68.88888888888889,0)" xlink:href="#au"></use><use transform="matrix(0.04938271604938272,0,0,0.04938271604938272,79.7037037037037,0)" xlink:href="#aC"></use><use transform="matrix(0.04938271604938272,0,0,0.04938271604938272,85.58024691358024,0)" xlink:href="#aC"></use><use transform="matrix(0.04938271604938272,0,0,0.04938271604938272,91.45679012345678,0)" xlink:href="#ar"></use><use transform="matrix(0.04938271604938272,0,0,0.04938271604938272,96.39506172839506,0)" xlink:href="#aU"></use><use transform="matrix(0.04938271604938272,0,0,0.04938271604938272,106.27160493827161,0)" xlink:href="#aw"></use><use transform="matrix(0.04938271604938272,0,0,0.04938271604938272,116.14814814814815,0)" xlink:href="#aA"></use><use transform="matrix(0.04938271604938272,0,0,0.04938271604938272,126.0246913580247,0)" xlink:href="#aV"></use><use transform="matrix(0.04938271604938272,0,0,0.04938271604938272,135.90123456790124,0)" xlink:href="#aR"></use><use transform="matrix(0.04938271604938272,0,0,0.04938271604938272,145.77777777777777,0)" xlink:href="#aT"></use><use transform="matrix(0.04938271604938272,0,0,0.04938271604938272,150.71604938271605,0)" xlink:href="#aU"></use><use transform="matrix(0.04938271604938272,0,0,0.04938271604938272,160.5925925925926,0)" xlink:href="#au"></use><use transform="matrix(0.04938271604938272,0,0,0.04938271604938272,171.40740740740742,0)" xlink:href="#aQ"></use></g><path fill="#333" d="M23 0v-37h61v-169l-59 37v-38l62-41h46v211h57V0H23" id="aW"></path><g id="z"><use transform="matrix(0.04938271604938272,0,0,0.04938271604938272,0,0)" xlink:href="#aW"></use><use transform="matrix(0.04938271604938272,0,0,0.04938271604938272,9.876543209876544,0)" xlink:href="#ao"></use></g><path fill="#333" d="M128 0H69L1-190h53L99-40l48-150h52" id="aX"></path><path fill="#333" d="M169-182c-1-43-94-46-97-3 18 66 151 10 154 114 3 95-165 93-204 36-6-8-10-19-12-30l50-8c3 46 112 56 116 5-17-69-150-10-154-114-4-87 153-88 188-35 5 8 8 18 10 28" id="aY"></path><path fill="#333" d="M123 10C108 53 80 86 19 72V37c35 8 53-11 59-39L3-190h52l48 148c12-52 28-100 44-148h51" id="aZ"></path><g id="A"><use transform="matrix(0.04938271604938272,0,0,0.04938271604938272,0,0)" xlink:href="#aM"></use><use transform="matrix(0.04938271604938272,0,0,0.04938271604938272,12.790123456790125,0)" xlink:href="#aU"></use><use transform="matrix(0.04938271604938272,0,0,0.04938271604938272,22.66666666666667,0)" xlink:href="#ay"></use><use transform="matrix(0.04938271604938272,0,0,0.04938271604938272,28.54320987654322,0)" xlink:href="#ar"></use><use transform="matrix(0.04938271604938272,0,0,0.04938271604938272,33.48148148148149,0)" xlink:href="#aX"></use><use transform="matrix(0.04938271604938272,0,0,0.04938271604938272,43.35802469135803,0)" xlink:href="#aw"></use><use transform="matrix(0.04938271604938272,0,0,0.04938271604938272,53.23456790123457,0)" xlink:href="#aY"></use><use transform="matrix(0.04938271604938272,0,0,0.04938271604938272,65.08641975308643,0)" xlink:href="#aZ"></use><use transform="matrix(0.04938271604938272,0,0,0.04938271604938272,74.96296296296298,0)" xlink:href="#aB"></use><use transform="matrix(0.04938271604938272,0,0,0.04938271604938272,85.77777777777779,0)" xlink:href="#aU"></use></g><g id="B"><use transform="matrix(0.04938271604938272,0,0,0.04938271604938272,0,0)" xlink:href="#aV"></use><use transform="matrix(0.04938271604938272,0,0,0.04938271604938272,9.876543209876544,0)" xlink:href="#ao"></use></g><path fill="#333" d="M186 0v-106H76V0H24v-248h52v99h110v-99h50V0h-50" id="ba"></path><path fill="#333" d="M24-248c93 1 206-16 204 79-1 75-69 88-152 82V0H24v-248zm52 121c47 0 100 7 100-41 0-47-54-39-100-39v80" id="bb"></path><g id="C"><use transform="matrix(0.04938271604938272,0,0,0.04938271604938272,0,0)" xlink:href="#ba"></use><use transform="matrix(0.04938271604938272,0,0,0.04938271604938272,12.790123456790125,0)" xlink:href="#aH"></use><use transform="matrix(0.04938271604938272,0,0,0.04938271604938272,23.60493827160494,0)" xlink:href="#aH"></use><use transform="matrix(0.04938271604938272,0,0,0.04938271604938272,34.41975308641975,0)" xlink:href="#bb"></use></g><g id="D"><use transform="matrix(0.04938271604938272,0,0,0.04938271604938272,0,0)" xlink:href="#aF"></use><use transform="matrix(0.04938271604938272,0,0,0.04938271604938272,9.876543209876544,0)" xlink:href="#aR"></use><use transform="matrix(0.04938271604938272,0,0,0.04938271604938272,19.75308641975309,0)" xlink:href="#aW"></use></g><g id="E"><use transform="matrix(0.04938271604938272,0,0,0.04938271604938272,0,0)" xlink:href="#aO"></use><use transform="matrix(0.04938271604938272,0,0,0.04938271604938272,12.790123456790125,0)" xlink:href="#aw"></use><use transform="matrix(0.04938271604938272,0,0,0.04938271604938272,22.66666666666667,0)" xlink:href="#aE"></use><use transform="matrix(0.04938271604938272,0,0,0.04938271604938272,33.48148148148149,0)" xlink:href="#ar"></use><use transform="matrix(0.04938271604938272,0,0,0.04938271604938272,38.41975308641976,0)" xlink:href="#aI"></use><use transform="matrix(0.04938271604938272,0,0,0.04938271604938272,45.33333333333334,0)" xlink:href="#aw"></use><use transform="matrix(0.04938271604938272,0,0,0.04938271604938272,55.209876543209894,0)" xlink:href="#aU"></use><use transform="matrix(0.04938271604938272,0,0,0.04938271604938272,65.08641975308643,0)" xlink:href="#ay"></use></g><path fill="#333" d="M138-131c27 9 52 24 51 61 0 53-36 74-89 74S11-19 11-69c0-35 22-54 51-61-78-25-46-121 38-121 51 0 83 19 83 66 0 30-18 49-45 54zm-38-16c24 0 32-13 32-36 1-23-11-34-32-34-22 0-33 12-32 34 0 22 9 36 32 36zm1 116c27 0 37-17 37-43 0-25-13-39-39-39-24 0-37 15-37 40 0 27 11 42 39 42" id="bc"></path><g id="F"><use transform="matrix(0.04938271604938272,0,0,0.04938271604938272,0,0)" xlink:href="#bc"></use><use transform="matrix(0.04938271604938272,0,0,0.04938271604938272,9.876543209876544,0)" xlink:href="#ao"></use></g><g id="G"><use transform="matrix(0.04938271604938272,0,0,0.04938271604938272,0,0)" xlink:href="#aY"></use><use transform="matrix(0.04938271604938272,0,0,0.04938271604938272,11.851851851851853,0)" xlink:href="#aZ"></use><use transform="matrix(0.04938271604938272,0,0,0.04938271604938272,21.7283950617284,0)" xlink:href="#aB"></use><use transform="matrix(0.04938271604938272,0,0,0.04938271604938272,32.543209876543216,0)" xlink:href="#aU"></use></g><g id="H"><use transform="matrix(0.04938271604938272,0,0,0.04938271604938272,0,0)" xlink:href="#ax"></use><use transform="matrix(0.04938271604938272,0,0,0.04938271604938272,9.876543209876544,0)" xlink:href="#aD"></use><use transform="matrix(0.04938271604938272,0,0,0.04938271604938272,20.69135802469136,0)" xlink:href="#aU"></use><use transform="matrix(0.04938271604938272,0,0,0.04938271604938272,30.567901234567906,0)" xlink:href="#aU"></use><use transform="matrix(0.04938271604938272,0,0,0.04938271604938272,40.44444444444445,0)" xlink:href="#aw"></use><use transform="matrix(0.04938271604938272,0,0,0.04938271604938272,50.320987654320994,0)" xlink:href="#aw"></use><use transform="matrix(0.04938271604938272,0,0,0.04938271604938272,60.19753086419754,0)" xlink:href="#aE"></use><use transform="matrix(0.04938271604938272,0,0,0.04938271604938272,71.01234567901236,0)" xlink:href="#ax"></use></g><path fill="#333" d="M52 0c1-96 47-148 87-207H15v-41h169v40c-36 62-79 113-81 208H52" id="bd"></path><g id="I"><use transform="matrix(0.04938271604938272,0,0,0.04938271604938272,0,0)" xlink:href="#bd"></use><use transform="matrix(0.04938271604938272,0,0,0.04938271604938272,9.876543209876544,0)" xlink:href="#ao"></use></g><g id="J"><use transform="matrix(0.04938271604938272,0,0,0.04938271604938272,0,0)" xlink:href="#aY"></use><use transform="matrix(0.04938271604938272,0,0,0.04938271604938272,11.851851851851853,0)" xlink:href="#aZ"></use><use transform="matrix(0.04938271604938272,0,0,0.04938271604938272,21.7283950617284,0)" xlink:href="#aB"></use><use transform="matrix(0.04938271604938272,0,0,0.04938271604938272,32.543209876543216,0)" xlink:href="#aU"></use></g></defs></g></svg>