<svg xmlns="http://www.w3.org/2000/svg" xmlns:xlink="http://www.w3.org/1999/xlink" xmlns:lucid="lucid" viewBox="20.00 20.00 1640.00 740.00"><g transform="translate(160 -440)" lucid:page-tab-id="u6ipPreYSrj4"><path d="M-140 470c0-5.52 4.48-10 10-10h1620c5.52 0 10 4.48 10 10v720c0 5.52-4.48 10-10 10H-130c-5.52 0-10-4.48-10-10z" stroke="#000" stroke-opacity="0" stroke-width="3" fill="#fff" opacity=".85"></path><path d="M863.47 579.98l25.4 19.72v5.33c0 13.93-11.38 25.25-25.4 25.25-14 0-25.4-11.32-25.4-25.25v-5.33zM877.94 637.3c16.1 0 29.06 9.67 29.06 25.43v31.86h-16.7v-22.36h-2.88v22.35H840.1v-22.36h-2.87v22.35H820v-31.87c0-15.76 12.96-25.44 29.06-25.44z" fill="#740000"></path><path d="M863.45 574.6c13.9.1 25.1 11.43 25 25.26-.1 13.83-11.5 24.95-25.4 24.85-13.8-.1-24.95-11.2-25-25 0-13.87 11.4-25.1 25.35-25.1h.05zM877.94 631.96c16.1 0 29.06 9.68 29.06 25.44v31.86h-16.7v-22.4h-2.88v22.4H840.1v-22.4h-2.87v22.4H820V657.4c0-15.76 12.96-25.44 29.06-25.44z" fill="#c92d39"></path><use xlink:href="#a" transform="matrix(1,0,0,1,820,694.6000000000001) translate(15.401234567901241 19.22222222222222)"></use><path d="M399.1 544.6H321c-5.37 0-9.76 4.4-9.76 9.8v190.2h97.52V554.4c0-5.4-4.4-9.8-9.65-9.8zM394.24 725h-68.36v-9.8h68.36v9.8zm0-19.4h-68.36v-9.8h68.36v9.8zm0-122h-68.36v-9.8h68.36v9.8z" stroke="#000" stroke-opacity="0" fill="#c92d39"></path><use xlink:href="#b" transform="matrix(1,0,0,1,281.2375,753.6000000000003) translate(10.025000000000006 14.4)"></use><use xlink:href="#c" transform="matrix(1,0,0,1,281.2375,753.6000000000003) translate(67.97500000000001 14.4)"></use><path d="M944.53 921.63l-.92 3.42-2.52 2.53-3.42.92h-184.9l-2.63.7-1.78 1.8-.7 2.63V949h-2v-15.63l.9-3.42 2.54-2.53 3.4-.92h184.9l2.64-.7 1.78-1.8.7-2.63v-98.2h2zm-3.45-277.1l2.53 2.52.93 3.42V780.5h-2V650.72l-.7-2.64-1.8-1.8-2.63-.7h-32.87v-2h33.13z" fill="#5e5e5e"></path><path d="M904.56 645.6h-.5l-.4-.82-.85-1.18h1.76zM746.64 964.26L742 950h9.28z" fill="#5e5e5e"></path><path d="M746.64 967.5l-6-18.5h12zm-3.26-16.5l3.26 10.03L749.9 951z" fill="#5e5e5e"></path><use xlink:href="#d" transform="matrix(1,0,0,1,789.2354433311218,780.4897748229795) translate(35.288950617283945 14.222222222222223)"></use><use xlink:href="#e" transform="matrix(1,0,0,1,789.2354433311218,780.4897748229795) translate(55.980308641975306 14.222222222222223)"></use><use xlink:href="#f" transform="matrix(1,0,0,1,789.2354433311218,780.4897748229795) translate(106.84450617283952 14.222222222222223)"></use><use xlink:href="#g" transform="matrix(1,0,0,1,789.2354433311218,780.4897748229795) translate(181.70870370370372 14.222222222222223)"></use><use xlink:href="#h" transform="matrix(1,0,0,1,789.2354433311218,780.4897748229795) translate(0.0049999999999954525 35.55555555555556)"></use><use xlink:href="#i" transform="matrix(1,0,0,1,789.2354433311218,780.4897748229795) translate(31.560555555555553 35.55555555555556)"></use><use xlink:href="#j" transform="matrix(1,0,0,1,789.2354433311218,780.4897748229795) translate(53.190185185185186 35.55555555555556)"></use><use xlink:href="#k" transform="matrix(1,0,0,1,789.2354433311218,780.4897748229795) translate(123.2148765432099 35.55555555555556)"></use><use xlink:href="#l" transform="matrix(1,0,0,1,789.2354433311218,780.4897748229795) translate(179.4617901234568 35.55555555555556)"></use><use xlink:href="#m" transform="matrix(1,0,0,1,789.2354433311218,780.4897748229795) translate(201.09141975308643 35.55555555555556)"></use><use xlink:href="#n" transform="matrix(1,0,0,1,789.2354433311218,780.4897748229795) translate(255.26425925925926 35.55555555555556)"></use><path d="M1397.52 1120c-3.38 0-4.84-2.4-3.38-5.4l42.4-70.2c1.92-3 5-3 6.9 0l42.4 70.2c1.92 3 .6 5.4-3.36 5.4h-84.96zM1427.74 920h-78.06c-5.28 0-9.68 4.4-9.68 9.8V1120h44.3c-.87-3.4 0-6.8 1.48-10.2l5.43-9.2h-36.53v-9.8h42.4l5.88-9.8h-48.28v-9.8h53.7l17.47-30.8c1.9-2.8 4.4-5.2 6.9-6.8 1.46-1 2.93-1.4 4.84-1.4v-103c0-4.8-4.4-9.2-9.84-9.2zm-4.84 39h-68.23v-9.8h68.23v9.8z" stroke="#000" stroke-opacity="0" fill="#415968"></path><use xlink:href="#o" transform="matrix(1,0,0,1,1310,1129.0000000000005) translate(31.19999999999999 14.4)"></use><use xlink:href="#p" transform="matrix(1,0,0,1,1310,1129.0000000000005) translate(98.05 14.4)"></use><path d="M1127.87 920h-78.12c-5.36 0-9.75 4.4-9.75 9.8V1120h97.53V929.8c0-5.4-4.4-9.8-9.66-9.8zm-4.88 180.4h-68.37v-9.8H1123v9.8zm0-19.4h-68.37v-9.8H1123v9.8zm0-122h-68.37v-9.8H1123v9.8z" stroke="#000" stroke-opacity="0" fill="#415968"></path><use xlink:href="#q" transform="matrix(1,0,0,1,1010,1129.0000000000005) translate(39 14.4)"></use><path d="M408.48 920h-96.96c-6.36 0-11.52 6.2-11.52 13.8v172.4c0 7.6 5.16 13.8 11.52 13.8h96.96c6.36 0 11.52-6.2 11.52-13.8V933.8c0-7.6-5.16-13.8-11.52-13.8zM342 929h36.36c3.12 0 5.28.4 5.28 2.8 0 2.8-2.16 2.8-5.28 2.8H342c-3 0-5.16 0-5.16-2.8 0-2.4 2.52-2.8 5.16-2.8zm28.68 176.4h-20.64c-2.04 0-3.84-2-3.84-4.8 0-2.4 1.8-4.8 3.84-4.8h20.64c2.16 0 3.84 2.4 3.84 4.8s-1.68 4.8-3.84 4.8zm36.48-19h-94.32V943.8h94.32v142.6z" stroke="#000" stroke-opacity="0" fill="#415968"></path><use xlink:href="#r" transform="matrix(1,0,0,1,270,1129.0000000000005) translate(65.75 14.4)"></use><use xlink:href="#s" transform="matrix(1,0,0,1,270,1129.0000000000005) translate(6.5 36)"></use><use xlink:href="#t" transform="matrix(1,0,0,1,270,1129.0000000000005) translate(50.7 36)"></use><use xlink:href="#u" transform="matrix(1,0,0,1,270,1129.0000000000005) translate(70.7 36)"></use><use xlink:href="#v" transform="matrix(1,0,0,1,270,1129.0000000000005) translate(112.7 36)"></use><use xlink:href="#w" transform="matrix(1,0,0,1,270,1129.0000000000005) translate(150.55 36)"></use><use xlink:href="#x" transform="matrix(1,0,0,1,270,1129.0000000000005) translate(8.549999999999997 57.6)"></use><use xlink:href="#y" transform="matrix(1,0,0,1,270,1129.0000000000005) translate(33.55 57.6)"></use><use xlink:href="#z" transform="matrix(1,0,0,1,270,1129.0000000000005) translate(118.55 57.6)"></use><path d="M481.83 983.67H421v-2h60.83zm159.67 0h-43.33v-2h43.33z" fill="#5e5e5e"></path><path d="M421.03 983.67H420v-2h1.03zM656.76 982.67l-14.26 4.63v-9.27z" fill="#5e5e5e"></path><path d="M660 982.67l-18.5 6v-12.02zm-16.5 3.26l10.03-3.26-10.03-3.26z" fill="#5e5e5e"></path><use xlink:href="#A" transform="matrix(1,0,0,1,481.82716049382714,972.0000000000005) translate(0 14.222222222222223)"></use><use xlink:href="#B" transform="matrix(1,0,0,1,481.82716049382714,972.0000000000005) translate(20.69135802469136 14.222222222222223)"></use><path d="M452.32 1063.67H438.5v-2h13.82zm206.68 0h-31.32v-2H659z" fill="#5e5e5e"></path><path d="M660 1063.67h-1.03v-2H660zM437.5 1067.3l-14.26-4.63 14.26-4.64z" fill="#5e5e5e"></path><path d="M438.5 1068.68l-18.5-6 18.5-6.03zm-12.03-6l10.03 3.25v-6.52z" fill="#5e5e5e"></path><use xlink:href="#C" transform="matrix(1,0,0,1,452.32098765432096,1041.333333333334) translate(0.0049999999999954525 14.222222222222223)"></use><use xlink:href="#D" transform="matrix(1,0,0,1,452.32098765432096,1041.333333333334) translate(20.696358024691357 14.222222222222223)"></use><use xlink:href="#E" transform="matrix(1,0,0,1,452.32098765432096,1041.333333333334) translate(96.49882716049385 14.222222222222223)"></use><use xlink:href="#F" transform="matrix(1,0,0,1,452.32098765432096,1041.333333333334) translate(29.042037037037048 35.55555555555556)"></use><use xlink:href="#G" transform="matrix(1,0,0,1,452.32098765432096,1041.333333333334) translate(69.48648148148149 35.55555555555556)"></use><path d="M837.68 982.33H781v-2h56.68zm183.82 0h-67.47v-2h67.47z" fill="#5e5e5e"></path><path d="M781.03 982.33H780v-2h1.03zM1036.76 981.33l-14.26 4.64v-9.27z" fill="#5e5e5e"></path><path d="M1040 981.33l-18.5 6.02v-12.03zm-16.5 3.26l10.03-3.27-10.03-3.26z" fill="#5e5e5e"></path><use xlink:href="#H" transform="matrix(1,0,0,1,837.6830163496832,960.0000000000001) translate(0.005000000000002558 14.222222222222223)"></use><use xlink:href="#I" transform="matrix(1,0,0,1,837.6830163496832,960.0000000000001) translate(20.696358024691364 14.222222222222223)"></use><use xlink:href="#J" transform="matrix(1,0,0,1,837.6830163496832,960.0000000000001) translate(20.276604938271618 35.55555555555556)"></use><path d="M822.8 1063.67h-24.3v-2h24.3zm216.2 0h-41.8v-2h41.8z" fill="#5e5e5e"></path><path d="M1040 1063.67h-1.03v-2h1.03zM797.5 1067.3l-14.26-4.63 14.26-4.64z" fill="#5e5e5e"></path><path d="M798.5 1068.68l-18.5-6 18.5-6.03zm-12.03-6l10.03 3.25v-6.52z" fill="#5e5e5e"></path><use xlink:href="#K" transform="matrix(1,0,0,1,822.8148148148148,1041.3333333333337) translate(0.0049999999999954525 14.222222222222223)"></use><use xlink:href="#L" transform="matrix(1,0,0,1,822.8148148148148,1041.3333333333337) translate(20.696358024691357 14.222222222222223)"></use><use xlink:href="#M" transform="matrix(1,0,0,1,822.8148148148148,1041.3333333333337) translate(110.37537037037038 14.222222222222223)"></use><use xlink:href="#N" transform="matrix(1,0,0,1,822.8148148148148,1041.3333333333337) translate(136.94327160493827 14.222222222222223)"></use><use xlink:href="#F" transform="matrix(1,0,0,1,822.8148148148148,1041.3333333333337) translate(28.548209876543197 35.55555555555556)"></use><use xlink:href="#G" transform="matrix(1,0,0,1,822.8148148148148,1041.3333333333337) translate(68.99265432098764 35.55555555555556)"></use><path d="M660 967.5h30v24.05h-30V967.5zM693.36 967.5h53.28v24.05h-53.28V967.5zM750 967.5h30v24.05h-30V967.5zM660 994.5h56.64v24.03H660V994.5zM720 994.5h60v24.03h-60V994.5zM660 1021.47h30v24.05h-30v-24.05zM693.36 1021.47h53.28v24.05h-53.28v-24.05zM750 1021.47h30v24.05h-30v-24.05zM660 1048.46h56.64v24.04H660v-24.04zM720 1048.46h60v24.04h-60v-24.04z" stroke="#000" stroke-opacity="0" fill="#415968"></path><use xlink:href="#O" transform="matrix(1,0,0,1,630,1081.5000000000005) translate(43.05 14.4)"></use><use xlink:href="#P" transform="matrix(1,0,0,1,630,1081.5000000000005) translate(27.174999999999997 36)"></use><use xlink:href="#Q" transform="matrix(1,0,0,1,630,1081.5000000000005) translate(76.125 36)"></use><use xlink:href="#R" transform="matrix(1,0,0,1,630,1081.5000000000005) translate(97.075 36)"></use><path d="M-32.13 920h-78.12c-5.36 0-9.75 4.4-9.75 9.8V1120h97.53V929.8c0-5.4-4.4-9.8-9.66-9.8zM-37 1100.4h-68.37v-9.8H-37v9.8zm0-19.4h-68.37v-9.8H-37v9.8zm0-122h-68.37v-9.8H-37v9.8z" stroke="#000" stroke-opacity="0" fill="#c92d39"></path><use xlink:href="#b" transform="matrix(1,0,0,1,-150,1129.0000000000005) translate(23.574999999999996 14.4)"></use><use xlink:href="#S" transform="matrix(1,0,0,1,-150,1129.0000000000005) translate(81.525 14.4)"></use><path d="M-3.2 981H-21.5v-2H-3.2zm284.7 0h-33.35v-2h33.35zM296.76 980l-14.26 4.64v-9.28z" fill="#5e5e5e"></path><path d="M300 980l-18.5 6v-12zm-16.5 3.26l10.03-3.26-10.03-3.26zM-21.45 981h-1.03v-2h1.03z" fill="#5e5e5e"></path><g><use xlink:href="#T" transform="matrix(1,0,0,1,-3.211820744629023,958.6666666666666) translate(37.14080246913579 14.222222222222223)"></use><use xlink:href="#e" transform="matrix(1,0,0,1,-3.211820744629023,958.6666666666666) translate(57.83216049382715 14.222222222222223)"></use><use xlink:href="#U" transform="matrix(1,0,0,1,-3.211820744629023,958.6666666666666) translate(108.69635802469136 14.222222222222223)"></use><use xlink:href="#V" transform="matrix(1,0,0,1,-3.211820744629023,958.6666666666666) translate(143.26425925925926 14.222222222222223)"></use><use xlink:href="#W" transform="matrix(1,0,0,1,-3.211820744629023,958.6666666666666) translate(0.0049999999999954525 35.55555555555556)"></use><use xlink:href="#X" transform="matrix(1,0,0,1,-3.211820744629023,958.6666666666666) translate(92.69635802469136 35.55555555555556)"></use><use xlink:href="#Y" transform="matrix(1,0,0,1,-3.211820744629023,958.6666666666666) translate(164.69635802469136 35.55555555555556)"></use></g><path d="M64.3 1066.33H-3.98v-2H64.3zm234.7 0H180.64v-2H299zM-4.97 1069.97l-14.27-4.64 14.27-4.63z" fill="#5e5e5e"></path><path d="M-3.97 1071.35l-18.5-6.02 18.5-6zm-12.03-6.02l10.03 3.26v-6.53zM300 1066.33h-1.03v-2H300z" fill="#5e5e5e"></path><g><use xlink:href="#Z" transform="matrix(1,0,0,1,64.29435209487717,1054.6666666666665) translate(0.005000000000002558 14.222222222222223)"></use><use xlink:href="#B" transform="matrix(1,0,0,1,64.29435209487717,1054.6666666666665) translate(20.696358024691364 14.222222222222223)"></use></g><path d="M272.24 891.87l.7 2.64 1.8 1.8 2.63.7h36.56l3.42.92 2.53 2.53.92 3.42V919h-2v-14.87l-.7-2.64-1.8-1.8-2.63-.7H277.1l-3.4-.92-2.54-2.53-.92-3.42v-57.46h2zm20.5-240.27h-15.37l-2.64.7-1.78 1.8-.7 2.63v156.6h-2V656.47l.9-3.42 2.54-2.53 3.4-.92h15.64z" fill="#5e5e5e"></path><path d="M320.8 920h-2v-1.03h2zM308 650.6l-14.26 4.64v-9.28z" fill="#5e5e5e"></path><path d="M311.24 650.6l-18.5 6v-12zm-16.5 3.26l10.03-3.26-10.03-3.26z" fill="#5e5e5e"></path><g><use xlink:href="#aa" transform="matrix(1,0,0,1,213.06466049382715,813.3333333333334) translate(0 14.222222222222223)"></use><use xlink:href="#B" transform="matrix(1,0,0,1,213.06466049382715,813.3333333333334) translate(20.69135802469136 14.222222222222223)"></use></g><path d="M694.36 949h-2V681.2h2zm-267.1-298.8v-2h28.2v2zM426.26 653.84L412 649.2l14.26-4.64z" fill="#5e5e5e"></path><path d="M427.26 655.2l-18.5-6 18.5-6zm-12.03-6l10.03 3.26v-6.52zM693.36 964.26L688.72 950H698z" fill="#5e5e5e"></path><path d="M693.36 967.5l-6-18.5h12zM690.1 951l3.26 10.03 3.26-10.03z" fill="#5e5e5e"></path><g><use xlink:href="#ab" transform="matrix(1,0,0,1,455.4548459220377,617.2000000000002) translate(29.042037037037034 14.222222222222223)"></use><use xlink:href="#ac" transform="matrix(1,0,0,1,455.4548459220377,617.2000000000002) translate(49.733395061728395 14.222222222222223)"></use><use xlink:href="#ad" transform="matrix(1,0,0,1,455.4548459220377,617.2000000000002) translate(109.78277777777778 14.222222222222223)"></use><use xlink:href="#ae" transform="matrix(1,0,0,1,455.4548459220377,617.2000000000002) translate(198.52351851851856 14.222222222222223)"></use><use xlink:href="#af" transform="matrix(1,0,0,1,455.4548459220377,617.2000000000002) translate(266.57290123456795 14.222222222222223)"></use><use xlink:href="#ag" transform="matrix(1,0,0,1,455.4548459220377,617.2000000000002) translate(15.437098765432125 35.55555555555556)"></use><use xlink:href="#ah" transform="matrix(1,0,0,1,455.4548459220377,617.2000000000002) translate(116.02969135802473 35.55555555555556)"></use><use xlink:href="#l" transform="matrix(1,0,0,1,455.4548459220377,617.2000000000002) translate(194.89388888888894 35.55555555555556)"></use><use xlink:href="#ai" transform="matrix(1,0,0,1,455.4548459220377,617.2000000000002) translate(216.52351851851856 35.55555555555556)"></use><use xlink:href="#aj" transform="matrix(1,0,0,1,455.4548459220377,617.2000000000002) translate(248.02969135802473 35.55555555555556)"></use><use xlink:href="#ak" transform="matrix(1,0,0,1,455.4548459220377,617.2000000000002) translate(0.0049999999999954525 56.88888888888889)"></use><use xlink:href="#al" transform="matrix(1,0,0,1,455.4548459220377,617.2000000000002) translate(61.09141975308642 56.88888888888889)"></use><use xlink:href="#l" transform="matrix(1,0,0,1,455.4548459220377,617.2000000000002) translate(144.8938888888889 56.88888888888889)"></use><use xlink:href="#am" transform="matrix(1,0,0,1,455.4548459220377,617.2000000000002) translate(166.52351851851853 56.88888888888889)"></use><use xlink:href="#an" transform="matrix(1,0,0,1,455.4548459220377,617.2000000000002) translate(228.5975925925926 56.88888888888889)"></use><use xlink:href="#ao" transform="matrix(1,0,0,1,455.4548459220377,617.2000000000002) translate(244.3506790123457 56.88888888888889)"></use><use xlink:href="#ap" transform="matrix(1,0,0,1,455.4548459220377,617.2000000000002) translate(269.04203703703706 56.88888888888889)"></use></g><path d="M491 874.13l-.92 3.42-2.53 2.53-3.42.92h-88.86l-2.65.7-1.77 1.8-.72 2.63v15.37h-2v-15.63l.93-3.42 2.53-2.53 3.4-.92h88.87l2.64-.7 1.8-1.8.7-2.63v-40.72h2zm-3.45-168.87l2.53 2.53.92 3.4v100.6h-2V711.48l-.7-2.65-1.8-1.77-2.63-.72h-74.1v-2h74.36z" fill="#5e5e5e"></path><path d="M409.8 706.33h-1.04v-2h1.03zM389.13 916.76l-4.63-14.26h9.27z" fill="#5e5e5e"></path><path d="M389.13 920l-6-18.5h12.02zm-3.26-16.5l3.26 10.03 3.26-10.03z" fill="#5e5e5e"></path><g><use xlink:href="#aq" transform="matrix(1,0,0,1,410.5925925925926,811.8143208661419) translate(0.0049999999999954525 14.222222222222223)"></use><use xlink:href="#ar" transform="matrix(1,0,0,1,410.5925925925926,811.8143208661419) translate(30.5729012345679 14.222222222222223)"></use><use xlink:href="#as" transform="matrix(1,0,0,1,410.5925925925926,811.8143208661419) translate(77.93092592592593 14.222222222222223)"></use></g><path d="M861.05 504.52l2.53 2.53.92 3.42v63.13h-2v-62.87l-.7-2.64-1.8-1.8-2.63-.7H770v-2h87.63zm-376.97 1.08H366.72l-2.64.7-1.78 1.8-.7 2.63v15.37h-2v-15.63l.9-3.42 2.54-2.53 3.4-.92H484.1z" fill="#5e5e5e"></path><path d="M864.5 574.7l-1.05-.1-.95.1v-1.12h2zM360.6 541.36l-4.65-14.26h9.27z" fill="#5e5e5e"></path><path d="M360.6 544.6l-6.03-18.5h12.03zm-3.27-16.5l3.26 10.03 3.24-10.03z" fill="#5e5e5e"></path><g><use xlink:href="#T" transform="matrix(1,0,0,1,484.08207225784884,483.2666666666668) translate(40.37537037037035 14.222222222222223)"></use><use xlink:href="#at" transform="matrix(1,0,0,1,484.08207225784884,483.2666666666668) translate(61.06672839506171 14.222222222222223)"></use><use xlink:href="#au" transform="matrix(1,0,0,1,484.08207225784884,483.2666666666668) translate(125.21487654320987 14.222222222222223)"></use><use xlink:href="#av" transform="matrix(1,0,0,1,484.08207225784884,483.2666666666668) translate(144.96796296296296 14.222222222222223)"></use><use xlink:href="#l" transform="matrix(1,0,0,1,484.08207225784884,483.2666666666668) translate(185.41240740740741 14.222222222222223)"></use><use xlink:href="#aw" transform="matrix(1,0,0,1,484.08207225784884,483.2666666666668) translate(207.04203703703703 14.222222222222223)"></use><use xlink:href="#ax" transform="matrix(1,0,0,1,484.08207225784884,483.2666666666668) translate(0.0049999999999954525 35.55555555555556)"></use><use xlink:href="#ay" transform="matrix(1,0,0,1,484.08207225784884,483.2666666666668) translate(98.62228395061729 35.55555555555556)"></use><use xlink:href="#az" transform="matrix(1,0,0,1,484.08207225784884,483.2666666666668) translate(120.25191358024692 35.55555555555556)"></use><use xlink:href="#aA" transform="matrix(1,0,0,1,484.08207225784884,483.2666666666668) translate(186.37537037037038 35.55555555555556)"></use></g><path d="M1171.77 1025.6h-15.74v-2h15.74zm149.73 0h-15.75v-2h15.75zM1155.03 1029.24l-14.27-4.64 14.27-4.64z" fill="#5e5e5e"></path><path d="M1156.03 1030.6l-18.5-6 18.5-6zm-12.03-6l10.03 3.26v-6.52zM1336.76 1024.6l-14.26 4.64v-9.28z" fill="#5e5e5e"></path><path d="M1340 1024.6l-18.5 6v-12zm-16.5 3.26l10.03-3.26-10.03-3.26z" fill="#5e5e5e"></path><g><use xlink:href="#aB" transform="matrix(1,0,0,1,1171.7748456790123,1003.266666666667) translate(0.0049999999999954525 14.222222222222223)"></use><use xlink:href="#aC" transform="matrix(1,0,0,1,1171.7748456790123,1003.266666666667) translate(31.486481481481462 35.55555555555556)"></use><use xlink:href="#aD" transform="matrix(1,0,0,1,1171.7748456790123,1003.266666666667) translate(56.17783950617282 35.55555555555556)"></use></g><defs><path fill="#333" d="M197 0v-115H63V0H30v-248h33v105h134v-105h34V0h-34" id="aE"></path><path fill="#333" d="M141-36C126-15 110 5 73 4 37 3 15-17 15-53c-1-64 63-63 125-63 3-35-9-54-41-54-24 1-41 7-42 31l-33-3c5-37 33-52 76-52 45 0 72 20 72 64v82c-1 20 7 32 28 27v20c-31 9-61-2-59-35zM48-53c0 20 12 33 32 33 41-3 63-29 60-74-43 2-92-5-92 41" id="aF"></path><path fill="#333" d="M96-169c-40 0-48 33-48 73s9 75 48 75c24 0 41-14 43-38l32 2c-6 37-31 61-74 61-59 0-76-41-82-99-10-93 101-131 147-64 4 7 5 14 7 22l-32 3c-4-21-16-35-41-35" id="aG"></path><path fill="#333" d="M143 0L79-87 56-68V0H24v-261h32v163l83-92h37l-77 82L181 0h-38" id="aH"></path><path fill="#333" d="M100-194c63 0 86 42 84 106H49c0 40 14 67 53 68 26 1 43-12 49-29l28 8c-11 28-37 45-77 45C44 4 14-33 15-96c1-61 26-98 85-98zm52 81c6-60-76-77-97-28-3 7-6 17-6 28h103" id="aI"></path><path fill="#333" d="M114-163C36-179 61-72 57 0H25l-1-190h30c1 12-1 29 2 39 6-27 23-49 58-41v29" id="aJ"></path><g id="a"><use transform="matrix(0.049382716049382706,0,0,0.049382716049382706,0,0)" xlink:href="#aE"></use><use transform="matrix(0.049382716049382706,0,0,0.049382716049382706,12.790123456790122,0)" xlink:href="#aF"></use><use transform="matrix(0.049382716049382706,0,0,0.049382716049382706,22.666666666666664,0)" xlink:href="#aG"></use><use transform="matrix(0.049382716049382706,0,0,0.049382716049382706,31.55555555555555,0)" xlink:href="#aH"></use><use transform="matrix(0.049382716049382706,0,0,0.049382716049382706,40.444444444444436,0)" xlink:href="#aI"></use><use transform="matrix(0.049382716049382706,0,0,0.049382716049382706,50.32098765432097,0)" xlink:href="#aJ"></use></g><path d="M233-177c-1 41-23 64-60 70L243 0h-38l-65-103H63V0H30v-248c88 3 205-21 203 71zM63-129c60-2 137 13 137-47 0-61-80-42-137-45v92" id="aK"></path><path d="M100-194c62-1 85 37 85 99 1 63-27 99-86 99S16-35 15-95c0-66 28-99 85-99zM99-20c44 1 53-31 53-75 0-43-8-75-51-75s-53 32-53 75 10 74 51 75" id="aL"></path><path d="M177-190C167-65 218 103 67 71c-23-6-38-20-44-43l32-5c15 47 100 32 89-28v-30C133-14 115 1 83 1 29 1 15-40 15-95c0-56 16-97 71-98 29-1 48 16 59 35 1-10 0-23 2-32h30zM94-22c36 0 50-32 50-73 0-42-14-75-50-75-39 0-46 34-46 75s6 73 46 73" id="aM"></path><path d="M84 4C-5 8 30-112 23-190h32v120c0 31 7 50 39 49 72-2 45-101 50-169h31l1 190h-30c-1-10 1-25-2-33-11 22-28 36-60 37" id="aN"></path><path d="M100-194c63 0 86 42 84 106H49c0 40 14 67 53 68 26 1 43-12 49-29l28 8c-11 28-37 45-77 45C44 4 14-33 15-96c1-61 26-98 85-98zm52 81c6-60-76-77-97-28-3 7-6 17-6 28h103" id="aO"></path><g id="b"><use transform="matrix(0.05,0,0,0.05,0,0)" xlink:href="#aK"></use><use transform="matrix(0.05,0,0,0.05,12.950000000000001,0)" xlink:href="#aL"></use><use transform="matrix(0.05,0,0,0.05,22.950000000000003,0)" xlink:href="#aM"></use><use transform="matrix(0.05,0,0,0.05,32.95,0)" xlink:href="#aN"></use><use transform="matrix(0.05,0,0,0.05,42.95,0)" xlink:href="#aO"></use></g><path d="M30 0v-248h187v28H63v79h144v27H63v87h162V0H30" id="aP"></path><path d="M141 0L90-78 38 0H4l68-98-65-92h35l48 74 47-74h35l-64 92 68 98h-35" id="aQ"></path><path d="M96-169c-40 0-48 33-48 73s9 75 48 75c24 0 41-14 43-38l32 2c-6 37-31 61-74 61-59 0-76-41-82-99-10-93 101-131 147-64 4 7 5 14 7 22l-32 3c-4-21-16-35-41-35" id="aR"></path><path d="M106-169C34-169 62-67 57 0H25v-261h32l-1 103c12-21 28-36 61-36 89 0 53 116 60 194h-32v-121c2-32-8-49-39-48" id="aS"></path><path d="M141-36C126-15 110 5 73 4 37 3 15-17 15-53c-1-64 63-63 125-63 3-35-9-54-41-54-24 1-41 7-42 31l-33-3c5-37 33-52 76-52 45 0 72 20 72 64v82c-1 20 7 32 28 27v20c-31 9-61-2-59-35zM48-53c0 20 12 33 32 33 41-3 63-29 60-74-43 2-92-5-92 41" id="aT"></path><path d="M117-194c89-4 53 116 60 194h-32v-121c0-31-8-49-39-48C34-167 62-67 57 0H25l-1-190h30c1 10-1 24 2 32 11-22 29-35 61-36" id="aU"></path><g id="c"><use transform="matrix(0.05,0,0,0.05,0,0)" xlink:href="#aP"></use><use transform="matrix(0.05,0,0,0.05,12,0)" xlink:href="#aQ"></use><use transform="matrix(0.05,0,0,0.05,21,0)" xlink:href="#aR"></use><use transform="matrix(0.05,0,0,0.05,30,0)" xlink:href="#aS"></use><use transform="matrix(0.05,0,0,0.05,40,0)" xlink:href="#aT"></use><use transform="matrix(0.05,0,0,0.05,50,0)" xlink:href="#aU"></use><use transform="matrix(0.05,0,0,0.05,60,0)" xlink:href="#aM"></use><use transform="matrix(0.05,0,0,0.05,70,0)" xlink:href="#aO"></use></g><path fill="#333" d="M23 0v-37h61v-169l-59 37v-38l62-41h46v211h57V0H23" id="aV"></path><path fill="#333" d="M102-93c0 74-22 123-52 168H0C30 29 54-18 53-93c0-74-22-123-53-168h50c30 45 52 94 52 168" id="aW"></path><g id="d"><use transform="matrix(0.04938271604938272,0,0,0.04938271604938272,0,0)" xlink:href="#aV"></use><use transform="matrix(0.04938271604938272,0,0,0.04938271604938272,9.876543209876544,0)" xlink:href="#aW"></use></g><path fill="#333" d="M186 0v-106H76V0H24v-248h52v99h110v-99h50V0h-50" id="aX"></path><path fill="#333" d="M136-208V0H84v-208H4v-40h212v40h-80" id="aY"></path><path fill="#333" d="M24-248c93 1 206-16 204 79-1 75-69 88-152 82V0H24v-248zm52 121c47 0 100 7 100-41 0-47-54-39-100-39v80" id="aZ"></path><g id="e"><use transform="matrix(0.04938271604938272,0,0,0.04938271604938272,0,0)" xlink:href="#aX"></use><use transform="matrix(0.04938271604938272,0,0,0.04938271604938272,12.790123456790125,0)" xlink:href="#aY"></use><use transform="matrix(0.04938271604938272,0,0,0.04938271604938272,23.60493827160494,0)" xlink:href="#aY"></use><use transform="matrix(0.04938271604938272,0,0,0.04938271604938272,34.41975308641975,0)" xlink:href="#aZ"></use></g><path fill="#333" d="M240-174c0 40-23 61-54 70L253 0h-59l-57-94H76V0H24v-248c93 4 217-23 216 74zM76-134c48-2 112 12 112-38 0-48-66-32-112-35v73" id="ba"></path><path fill="#333" d="M185-48c-13 30-37 53-82 52C43 2 14-33 14-96s30-98 90-98c62 0 83 45 84 108H66c0 31 8 55 39 56 18 0 30-7 34-22zm-45-69c5-46-57-63-70-21-2 6-4 13-4 21h74" id="bb"></path><path fill="#333" d="M84 4C32 4 15-41 15-95c0-55 18-99 73-99 29 0 47 12 58 34l2-30h48l-1 265h-49V-32C136-9 114 4 84 4zm21-34c32 0 41-29 41-66 0-36-9-64-40-64-33 0-39 30-40 65 0 43 13 65 39 65" id="bc"></path><path fill="#333" d="M85 4C-2 5 27-109 22-190h50c7 57-23 150 33 157 60-5 35-97 40-157h50l1 190h-47c-2-12 1-28-3-38-12 25-28 42-61 42" id="bd"></path><path fill="#333" d="M137-138c1-29-70-34-71-4 15 46 118 7 119 86 1 83-164 76-172 9l43-7c4 19 20 25 44 25 33 8 57-30 24-41C81-84 22-81 20-136c-2-80 154-74 161-7" id="be"></path><path fill="#333" d="M115-3C79 11 28 4 28-45v-112H4v-33h27l15-45h31v45h36v33H77v99c-1 23 16 31 38 25v30" id="bf"></path><g id="f"><use transform="matrix(0.04938271604938272,0,0,0.04938271604938272,0,0)" xlink:href="#ba"></use><use transform="matrix(0.04938271604938272,0,0,0.04938271604938272,12.790123456790125,0)" xlink:href="#bb"></use><use transform="matrix(0.04938271604938272,0,0,0.04938271604938272,22.66666666666667,0)" xlink:href="#bc"></use><use transform="matrix(0.04938271604938272,0,0,0.04938271604938272,33.48148148148149,0)" xlink:href="#bd"></use><use transform="matrix(0.04938271604938272,0,0,0.04938271604938272,44.296296296296305,0)" xlink:href="#bb"></use><use transform="matrix(0.04938271604938272,0,0,0.04938271604938272,54.17283950617284,0)" xlink:href="#be"></use><use transform="matrix(0.04938271604938272,0,0,0.04938271604938272,64.0493827160494,0)" xlink:href="#bf"></use></g><path fill="#333" d="M169-182c-1-43-94-46-97-3 18 66 151 10 154 114 3 95-165 93-204 36-6-8-10-19-12-30l50-8c3 46 112 56 116 5-17-69-150-10-154-114-4-87 153-88 188-35 5 8 8 18 10 28" id="bg"></path><path fill="#333" d="M220-157c-53 9-28 100-34 157h-49v-107c1-27-5-49-29-50C55-147 81-57 75 0H25l-1-190h47c2 12-1 28 3 38 10-53 101-56 108 0 13-22 24-43 59-42 82 1 51 116 57 194h-49v-107c-1-25-5-48-29-50" id="bh"></path><path fill="#333" d="M195-6C206 82 75 100 31 46c-4-6-6-13-8-21l49-6c3 16 16 24 34 25 40 0 42-37 40-79-11 22-30 35-61 35-53 0-70-43-70-97 0-56 18-96 73-97 30 0 46 14 59 34l2-30h47zm-90-29c32 0 41-27 41-63 0-35-9-62-40-62-32 0-39 29-40 63 0 36 9 62 39 62" id="bi"></path><path fill="#333" d="M25 0v-261h50V0H25" id="bj"></path><path fill="#333" d="M25-224v-37h50v37H25zM25 0v-190h50V0H25" id="bk"></path><path fill="#333" d="M135-194c87-1 58 113 63 194h-50c-7-57 23-157-34-157-59 0-34 97-39 157H25l-1-190h47c2 12-1 28 3 38 12-26 28-41 61-42" id="bl"></path><g id="g"><use transform="matrix(0.04938271604938272,0,0,0.04938271604938272,0,0)" xlink:href="#bg"></use><use transform="matrix(0.04938271604938272,0,0,0.04938271604938272,11.851851851851853,0)" xlink:href="#bh"></use><use transform="matrix(0.04938271604938272,0,0,0.04938271604938272,27.654320987654323,0)" xlink:href="#bd"></use><use transform="matrix(0.04938271604938272,0,0,0.04938271604938272,38.46913580246914,0)" xlink:href="#bi"></use><use transform="matrix(0.04938271604938272,0,0,0.04938271604938272,49.283950617283956,0)" xlink:href="#bi"></use><use transform="matrix(0.04938271604938272,0,0,0.04938271604938272,60.09876543209877,0)" xlink:href="#bj"></use><use transform="matrix(0.04938271604938272,0,0,0.04938271604938272,65.03703703703704,0)" xlink:href="#bk"></use><use transform="matrix(0.04938271604938272,0,0,0.04938271604938272,69.97530864197532,0)" xlink:href="#bl"></use><use transform="matrix(0.04938271604938272,0,0,0.04938271604938272,80.79012345679013,0)" xlink:href="#bi"></use></g><path fill="#333" d="M135-150c-39-12-60 13-60 57V0H25l-1-190h47c2 13-1 29 3 40 6-28 27-53 61-41v41" id="bm"></path><path fill="#333" d="M123 10C108 53 80 86 19 72V37c35 8 53-11 59-39L3-190h52l48 148c12-52 28-100 44-148h51" id="bn"></path><g id="h"><use transform="matrix(0.04938271604938272,0,0,0.04938271604938272,0,0)" xlink:href="#aY"></use><use transform="matrix(0.04938271604938272,0,0,0.04938271604938272,9.82716049382716,0)" xlink:href="#bm"></use><use transform="matrix(0.04938271604938272,0,0,0.04938271604938272,16.74074074074074,0)" xlink:href="#bn"></use></g><path fill="#333" d="M110-194c64 0 96 36 96 99 0 64-35 99-97 99-61 0-95-36-95-99 0-62 34-99 96-99zm-1 164c35 0 45-28 45-65 0-40-10-65-43-65-34 0-45 26-45 65 0 36 10 65 43 65" id="bo"></path><g id="i"><use transform="matrix(0.04938271604938272,0,0,0.04938271604938272,0,0)" xlink:href="#bf"></use><use transform="matrix(0.04938271604938272,0,0,0.04938271604938272,5.8765432098765435,0)" xlink:href="#bo"></use></g><path fill="#333" d="M88-194c31-1 46 15 58 34l-1-101h50l1 261h-48c-2-10 0-23-3-31C134-8 116 4 84 4 32 4 16-41 15-95c0-56 19-97 73-99zm17 164c33 0 40-30 41-66 1-37-9-64-41-64s-38 30-39 65c0 43 13 65 39 65" id="bp"></path><path fill="#333" d="M190-63c-7 42-38 67-86 67-59 0-84-38-90-98-12-110 154-137 174-36l-49 2c-2-19-15-32-35-32-30 0-35 28-38 64-6 74 65 87 74 30" id="bq"></path><g id="j"><use transform="matrix(0.04938271604938272,0,0,0.04938271604938272,0,0)" xlink:href="#bm"></use><use transform="matrix(0.04938271604938272,0,0,0.04938271604938272,6.913580246913581,0)" xlink:href="#bb"></use><use transform="matrix(0.04938271604938272,0,0,0.04938271604938272,16.790123456790127,0)" xlink:href="#bp"></use><use transform="matrix(0.04938271604938272,0,0,0.04938271604938272,27.604938271604947,0)" xlink:href="#bk"></use><use transform="matrix(0.04938271604938272,0,0,0.04938271604938272,32.543209876543216,0)" xlink:href="#bm"></use><use transform="matrix(0.04938271604938272,0,0,0.04938271604938272,39.4567901234568,0)" xlink:href="#bb"></use><use transform="matrix(0.04938271604938272,0,0,0.04938271604938272,49.33333333333334,0)" xlink:href="#bq"></use><use transform="matrix(0.04938271604938272,0,0,0.04938271604938272,59.209876543209894,0)" xlink:href="#bf"></use></g><path fill="#333" d="M128 0H69L1-190h53L99-40l48-150h52" id="br"></path><g id="k"><use transform="matrix(0.04938271604938272,0,0,0.04938271604938272,0,0)" xlink:href="#br"></use><use transform="matrix(0.04938271604938272,0,0,0.04938271604938272,9.876543209876544,0)" xlink:href="#bk"></use><use transform="matrix(0.04938271604938272,0,0,0.04938271604938272,14.814814814814817,0)" xlink:href="#bq"></use><use transform="matrix(0.04938271604938272,0,0,0.04938271604938272,24.69135802469136,0)" xlink:href="#bf"></use><use transform="matrix(0.04938271604938272,0,0,0.04938271604938272,30.567901234567906,0)" xlink:href="#bk"></use><use transform="matrix(0.04938271604938272,0,0,0.04938271604938272,35.50617283950618,0)" xlink:href="#bh"></use></g><g id="l"><use transform="matrix(0.04938271604938272,0,0,0.04938271604938272,0,0)" xlink:href="#bf"></use><use transform="matrix(0.04938271604938272,0,0,0.04938271604938272,5.8765432098765435,0)" xlink:href="#bo"></use></g><g id="m"><use transform="matrix(0.04938271604938272,0,0,0.04938271604938272,0,0)" xlink:href="#bm"></use><use transform="matrix(0.04938271604938272,0,0,0.04938271604938272,6.913580246913581,0)" xlink:href="#bo"></use><use transform="matrix(0.04938271604938272,0,0,0.04938271604938272,17.728395061728396,0)" xlink:href="#bi"></use><use transform="matrix(0.04938271604938272,0,0,0.04938271604938272,28.543209876543205,0)" xlink:href="#bd"></use><use transform="matrix(0.04938271604938272,0,0,0.04938271604938272,39.358024691358025,0)" xlink:href="#bb"></use></g><g id="n"><use transform="matrix(0.04938271604938272,0,0,0.04938271604938272,0,0)" xlink:href="#be"></use><use transform="matrix(0.04938271604938272,0,0,0.04938271604938272,9.876543209876544,0)" xlink:href="#bb"></use><use transform="matrix(0.04938271604938272,0,0,0.04938271604938272,19.75308641975309,0)" xlink:href="#bm"></use><use transform="matrix(0.04938271604938272,0,0,0.04938271604938272,26.666666666666668,0)" xlink:href="#br"></use><use transform="matrix(0.04938271604938272,0,0,0.04938271604938272,36.543209876543216,0)" xlink:href="#bb"></use><use transform="matrix(0.04938271604938272,0,0,0.04938271604938272,46.41975308641976,0)" xlink:href="#bm"></use></g><path d="M30-248c118-7 216 8 213 122C240-48 200 0 122 0H30v-248zM63-27c89 8 146-16 146-99s-60-101-146-95v194" id="bs"></path><path d="M210-169c-67 3-38 105-44 169h-31v-121c0-29-5-50-35-48C34-165 62-65 56 0H25l-1-190h30c1 10-1 24 2 32 10-44 99-50 107 0 11-21 27-35 58-36 85-2 47 119 55 194h-31v-121c0-29-5-49-35-48" id="bt"></path><path d="M24-231v-30h32v30H24zM24 0v-190h32V0H24" id="bu"></path><g id="o"><use transform="matrix(0.05,0,0,0.05,0,0)" xlink:href="#bs"></use><use transform="matrix(0.05,0,0,0.05,12.950000000000001,0)" xlink:href="#aL"></use><use transform="matrix(0.05,0,0,0.05,22.950000000000003,0)" xlink:href="#bt"></use><use transform="matrix(0.05,0,0,0.05,37.900000000000006,0)" xlink:href="#aT"></use><use transform="matrix(0.05,0,0,0.05,47.900000000000006,0)" xlink:href="#bu"></use><use transform="matrix(0.05,0,0,0.05,51.85,0)" xlink:href="#aU"></use></g><path d="M212-179c-10-28-35-45-73-45-59 0-87 40-87 99 0 60 29 101 89 101 43 0 62-24 78-52l27 14C228-24 195 4 139 4 59 4 22-46 18-125c-6-104 99-153 187-111 19 9 31 26 39 46" id="bv"></path><path d="M59-47c-2 24 18 29 38 22v24C64 9 27 4 27-40v-127H5v-23h24l9-43h21v43h35v23H59v120" id="bw"></path><path d="M114-163C36-179 61-72 57 0H25l-1-190h30c1 12-1 29 2 39 6-27 23-49 58-41v29" id="bx"></path><path d="M24 0v-261h32V0H24" id="by"></path><g id="p"><use transform="matrix(0.05,0,0,0.05,0,0)" xlink:href="#bv"></use><use transform="matrix(0.05,0,0,0.05,12.950000000000001,0)" xlink:href="#aL"></use><use transform="matrix(0.05,0,0,0.05,22.950000000000003,0)" xlink:href="#aU"></use><use transform="matrix(0.05,0,0,0.05,32.95,0)" xlink:href="#bw"></use><use transform="matrix(0.05,0,0,0.05,37.95,0)" xlink:href="#bx"></use><use transform="matrix(0.05,0,0,0.05,43.900000000000006,0)" xlink:href="#aL"></use><use transform="matrix(0.05,0,0,0.05,53.900000000000006,0)" xlink:href="#by"></use><use transform="matrix(0.05,0,0,0.05,57.85,0)" xlink:href="#by"></use><use transform="matrix(0.05,0,0,0.05,61.80000000000001,0)" xlink:href="#aO"></use><use transform="matrix(0.05,0,0,0.05,71.80000000000001,0)" xlink:href="#bx"></use></g><g id="q"><use transform="matrix(0.05,0,0,0.05,0,0)" xlink:href="#aP"></use><use transform="matrix(0.05,0,0,0.05,12,0)" xlink:href="#aQ"></use><use transform="matrix(0.05,0,0,0.05,21,0)" xlink:href="#aR"></use><use transform="matrix(0.05,0,0,0.05,30,0)" xlink:href="#aS"></use><use transform="matrix(0.05,0,0,0.05,40,0)" xlink:href="#aT"></use><use transform="matrix(0.05,0,0,0.05,50,0)" xlink:href="#aU"></use><use transform="matrix(0.05,0,0,0.05,60,0)" xlink:href="#aM"></use><use transform="matrix(0.05,0,0,0.05,70,0)" xlink:href="#aO"></use></g><path d="M137 0h-34L2-248h35l83 218 83-218h36" id="bz"></path><g id="r"><use transform="matrix(0.05,0,0,0.05,0,0)" xlink:href="#bz"></use><use transform="matrix(0.05,0,0,0.05,11.65,0)" xlink:href="#bu"></use><use transform="matrix(0.05,0,0,0.05,15.600000000000001,0)" xlink:href="#aR"></use><use transform="matrix(0.05,0,0,0.05,24.6,0)" xlink:href="#bw"></use><use transform="matrix(0.05,0,0,0.05,29.6,0)" xlink:href="#bu"></use><use transform="matrix(0.05,0,0,0.05,33.550000000000004,0)" xlink:href="#bt"></use></g><path d="M127-220V0H93v-220H8v-28h204v28h-85" id="bA"></path><path d="M135-143c-3-34-86-38-87 0 15 53 115 12 119 90S17 21 10-45l28-5c4 36 97 45 98 0-10-56-113-15-118-90-4-57 82-63 122-42 12 7 21 19 24 35" id="bB"></path><g id="s"><use transform="matrix(0.05,0,0,0.05,0,0)" xlink:href="#bA"></use><use transform="matrix(0.05,0,0,0.05,10.3,0)" xlink:href="#bx"></use><use transform="matrix(0.05,0,0,0.05,16.25,0)" xlink:href="#bu"></use><use transform="matrix(0.05,0,0,0.05,20.2,0)" xlink:href="#aO"></use><use transform="matrix(0.05,0,0,0.05,30.200000000000003,0)" xlink:href="#bB"></use></g><g id="t"><use transform="matrix(0.05,0,0,0.05,0,0)" xlink:href="#bw"></use><use transform="matrix(0.05,0,0,0.05,5,0)" xlink:href="#aL"></use></g><path d="M179-190L93 31C79 59 56 82 12 73V49c39 6 53-20 64-50L1-190h34L92-34l54-156h33" id="bC"></path><g id="u"><use transform="matrix(0.05,0,0,0.05,0,0)" xlink:href="#bB"></use><use transform="matrix(0.05,0,0,0.05,9,0)" xlink:href="#bC"></use><use transform="matrix(0.05,0,0,0.05,18,0)" xlink:href="#aU"></use><use transform="matrix(0.05,0,0,0.05,28,0)" xlink:href="#aR"></use></g><g id="v"><use transform="matrix(0.05,0,0,0.05,0,0)" xlink:href="#bt"></use><use transform="matrix(0.05,0,0,0.05,14.950000000000001,0)" xlink:href="#aT"></use><use transform="matrix(0.05,0,0,0.05,24.950000000000003,0)" xlink:href="#bu"></use><use transform="matrix(0.05,0,0,0.05,28.900000000000002,0)" xlink:href="#by"></use></g><path d="M108 0H70L1-190h34L89-25l56-165h34" id="bD"></path><g id="w"><use transform="matrix(0.05,0,0,0.05,0,0)" xlink:href="#bD"></use><use transform="matrix(0.05,0,0,0.05,9,0)" xlink:href="#bu"></use><use transform="matrix(0.05,0,0,0.05,12.949999999999998,0)" xlink:href="#aT"></use></g><g id="x"><use transform="matrix(0.05,0,0,0.05,0,0)" xlink:href="#aT"></use><use transform="matrix(0.05,0,0,0.05,10,0)" xlink:href="#aU"></use></g><g id="y"><use transform="matrix(0.05,0,0,0.05,0,0)" xlink:href="#aP"></use><use transform="matrix(0.05,0,0,0.05,12,0)" xlink:href="#aQ"></use><use transform="matrix(0.05,0,0,0.05,21,0)" xlink:href="#aR"></use><use transform="matrix(0.05,0,0,0.05,30,0)" xlink:href="#aS"></use><use transform="matrix(0.05,0,0,0.05,40,0)" xlink:href="#aT"></use><use transform="matrix(0.05,0,0,0.05,50,0)" xlink:href="#aU"></use><use transform="matrix(0.05,0,0,0.05,60,0)" xlink:href="#aM"></use><use transform="matrix(0.05,0,0,0.05,70,0)" xlink:href="#aO"></use></g><path d="M185-189c-5-48-123-54-124 2 14 75 158 14 163 119 3 78-121 87-175 55-17-10-28-26-33-46l33-7c5 56 141 63 141-1 0-78-155-14-162-118-5-82 145-84 179-34 5 7 8 16 11 25" id="bE"></path><g id="z"><use transform="matrix(0.05,0,0,0.05,0,0)" xlink:href="#bE"></use><use transform="matrix(0.05,0,0,0.05,12,0)" xlink:href="#aO"></use><use transform="matrix(0.05,0,0,0.05,22,0)" xlink:href="#bx"></use><use transform="matrix(0.05,0,0,0.05,27.950000000000003,0)" xlink:href="#bD"></use><use transform="matrix(0.05,0,0,0.05,36.95,0)" xlink:href="#aO"></use><use transform="matrix(0.05,0,0,0.05,46.95,0)" xlink:href="#bx"></use></g><path fill="#333" d="M182-182c0 78-84 86-111 141h115V0H12c-6-101 99-100 120-180 1-22-12-31-33-32-23 0-32 14-35 34l-49-3c5-45 32-70 84-70 51 0 83 22 83 69" id="bF"></path><g id="A"><use transform="matrix(0.04938271604938272,0,0,0.04938271604938272,0,0)" xlink:href="#bF"></use><use transform="matrix(0.04938271604938272,0,0,0.04938271604938272,9.876543209876544,0)" xlink:href="#aW"></use></g><path fill="#333" d="M199 0l-22-63H83L61 0H9l90-248h61L250 0h-51zm-33-102l-36-108c-10 38-24 72-36 108h72" id="bG"></path><g id="B"><use transform="matrix(0.04938271604938272,0,0,0.04938271604938272,0,0)" xlink:href="#bG"></use><use transform="matrix(0.04938271604938272,0,0,0.04938271604938272,12.790123456790125,0)" xlink:href="#bq"></use><use transform="matrix(0.04938271604938272,0,0,0.04938271604938272,22.66666666666667,0)" xlink:href="#bf"></use><use transform="matrix(0.04938271604938272,0,0,0.04938271604938272,28.54320987654322,0)" xlink:href="#bk"></use><use transform="matrix(0.04938271604938272,0,0,0.04938271604938272,33.48148148148149,0)" xlink:href="#br"></use><use transform="matrix(0.04938271604938272,0,0,0.04938271604938272,43.35802469135803,0)" xlink:href="#bb"></use><use transform="matrix(0.04938271604938272,0,0,0.04938271604938272,53.23456790123457,0)" xlink:href="#bg"></use><use transform="matrix(0.04938271604938272,0,0,0.04938271604938272,65.08641975308643,0)" xlink:href="#bn"></use><use transform="matrix(0.04938271604938272,0,0,0.04938271604938272,74.96296296296298,0)" xlink:href="#bl"></use><use transform="matrix(0.04938271604938272,0,0,0.04938271604938272,85.77777777777779,0)" xlink:href="#bq"></use></g><path fill="#333" d="M139-81c0-46-55-55-73-27H18l9-140h149v37H72l-4 63c44-38 133-4 122 66C201 21 21 35 11-62l49-4c5 18 15 30 39 30 26 0 40-18 40-45" id="bH"></path><g id="C"><use transform="matrix(0.04938271604938272,0,0,0.04938271604938272,0,0)" xlink:href="#bH"></use><use transform="matrix(0.04938271604938272,0,0,0.04938271604938272,9.876543209876544,0)" xlink:href="#aW"></use></g><path fill="#333" d="M135-194c53 0 70 44 70 98 0 56-19 98-73 100-31 1-45-17-59-34 3 33 2 69 2 105H25l-1-265h48c2 10 0 23 3 31 11-24 29-35 60-35zM114-30c33 0 39-31 40-66 0-38-9-64-40-64-56 0-55 130 0 130" id="bI"></path><path fill="#333" d="M121-226c-27-7-43 5-38 36h38v33H83V0H34v-157H6v-33h28c-9-59 32-81 87-68v32" id="bJ"></path><g id="D"><use transform="matrix(0.04938271604938272,0,0,0.04938271604938272,0,0)" xlink:href="#bg"></use><use transform="matrix(0.04938271604938272,0,0,0.04938271604938272,11.851851851851853,0)" xlink:href="#bI"></use><use transform="matrix(0.04938271604938272,0,0,0.04938271604938272,22.666666666666668,0)" xlink:href="#bo"></use><use transform="matrix(0.04938271604938272,0,0,0.04938271604938272,33.48148148148148,0)" xlink:href="#bo"></use><use transform="matrix(0.04938271604938272,0,0,0.04938271604938272,44.2962962962963,0)" xlink:href="#bJ"></use><use transform="matrix(0.04938271604938272,0,0,0.04938271604938272,50.17283950617284,0)" xlink:href="#bb"></use><use transform="matrix(0.04938271604938272,0,0,0.04938271604938272,60.04938271604939,0)" xlink:href="#bp"></use></g><g id="E"><use transform="matrix(0.04938271604938272,0,0,0.04938271604938272,0,0)" xlink:href="#bm"></use><use transform="matrix(0.04938271604938272,0,0,0.04938271604938272,6.913580246913581,0)" xlink:href="#bb"></use><use transform="matrix(0.04938271604938272,0,0,0.04938271604938272,16.790123456790127,0)" xlink:href="#be"></use><use transform="matrix(0.04938271604938272,0,0,0.04938271604938272,26.666666666666668,0)" xlink:href="#bI"></use><use transform="matrix(0.04938271604938272,0,0,0.04938271604938272,37.48148148148149,0)" xlink:href="#bo"></use><use transform="matrix(0.04938271604938272,0,0,0.04938271604938272,48.296296296296305,0)" xlink:href="#bl"></use><use transform="matrix(0.04938271604938272,0,0,0.04938271604938272,59.111111111111114,0)" xlink:href="#be"></use><use transform="matrix(0.04938271604938272,0,0,0.04938271604938272,68.98765432098767,0)" xlink:href="#bb"></use></g><path fill="#333" d="M67-93c0 74 22 123 53 168H70C40 30 18-18 18-93s22-123 52-168h50c-32 44-53 94-53 168" id="bK"></path><path fill="#333" d="M128-127c34 4 56 21 59 58 7 91-148 94-172 28-4-9-6-17-7-26l51-5c1 24 16 35 40 36 23 0 39-12 38-36-1-31-31-36-65-34v-40c32 2 59-3 59-33 0-20-13-33-34-33s-33 13-35 32l-50-3c6-44 37-68 86-68 50 0 83 20 83 66 0 35-22 52-53 58" id="bL"></path><path fill="#333" d="M101-251c68 0 84 54 84 127C185-50 166 4 99 4S15-52 14-124c-1-75 17-127 87-127zm-1 216c37-5 36-46 36-89s4-89-36-89c-39 0-36 45-36 89 0 43-3 85 36 89" id="bM"></path><g id="F"><use transform="matrix(0.04938271604938272,0,0,0.04938271604938272,0,0)" xlink:href="#bK"></use><use transform="matrix(0.04938271604938272,0,0,0.04938271604938272,5.8765432098765435,0)" xlink:href="#bL"></use><use transform="matrix(0.04938271604938272,0,0,0.04938271604938272,15.753086419753087,0)" xlink:href="#bM"></use><use transform="matrix(0.04938271604938272,0,0,0.04938271604938272,25.629629629629633,0)" xlink:href="#aV"></use></g><g id="G"><use transform="matrix(0.04938271604938272,0,0,0.04938271604938272,0,0)" xlink:href="#ba"></use><use transform="matrix(0.04938271604938272,0,0,0.04938271604938272,12.790123456790125,0)" xlink:href="#bb"></use><use transform="matrix(0.04938271604938272,0,0,0.04938271604938272,22.66666666666667,0)" xlink:href="#bp"></use><use transform="matrix(0.04938271604938272,0,0,0.04938271604938272,33.48148148148149,0)" xlink:href="#bk"></use><use transform="matrix(0.04938271604938272,0,0,0.04938271604938272,38.41975308641976,0)" xlink:href="#bm"></use><use transform="matrix(0.04938271604938272,0,0,0.04938271604938272,45.33333333333334,0)" xlink:href="#bb"></use><use transform="matrix(0.04938271604938272,0,0,0.04938271604938272,55.209876543209894,0)" xlink:href="#bq"></use><use transform="matrix(0.04938271604938272,0,0,0.04938271604938272,65.08641975308643,0)" xlink:href="#bf"></use><use transform="matrix(0.04938271604938272,0,0,0.04938271604938272,70.96296296296298,0)" xlink:href="#aW"></use></g><g id="H"><use transform="matrix(0.04938271604938272,0,0,0.04938271604938272,0,0)" xlink:href="#bL"></use><use transform="matrix(0.04938271604938272,0,0,0.04938271604938272,9.876543209876544,0)" xlink:href="#aW"></use></g><g id="I"><use transform="matrix(0.04938271604938272,0,0,0.04938271604938272,0,0)" xlink:href="#bG"></use><use transform="matrix(0.04938271604938272,0,0,0.04938271604938272,12.790123456790125,0)" xlink:href="#bq"></use><use transform="matrix(0.04938271604938272,0,0,0.04938271604938272,22.66666666666667,0)" xlink:href="#bf"></use><use transform="matrix(0.04938271604938272,0,0,0.04938271604938272,28.54320987654322,0)" xlink:href="#bk"></use><use transform="matrix(0.04938271604938272,0,0,0.04938271604938272,33.48148148148149,0)" xlink:href="#br"></use><use transform="matrix(0.04938271604938272,0,0,0.04938271604938272,43.35802469135803,0)" xlink:href="#bb"></use><use transform="matrix(0.04938271604938272,0,0,0.04938271604938272,53.23456790123457,0)" xlink:href="#bg"></use><use transform="matrix(0.04938271604938272,0,0,0.04938271604938272,65.08641975308643,0)" xlink:href="#bn"></use><use transform="matrix(0.04938271604938272,0,0,0.04938271604938272,74.96296296296298,0)" xlink:href="#bl"></use><use transform="matrix(0.04938271604938272,0,0,0.04938271604938272,85.77777777777779,0)" xlink:href="#bq"></use></g><path fill="#333" d="M144 0l-44-69L55 0H2l70-98-66-92h53l41 62 40-62h54l-67 91 71 99h-54" id="bN"></path><g id="J"><use transform="matrix(0.04938271604938272,0,0,0.04938271604938272,0,0)" xlink:href="#bK"></use><use transform="matrix(0.04938271604938272,0,0,0.04938271604938272,5.8765432098765435,0)" xlink:href="#bI"></use><use transform="matrix(0.04938271604938272,0,0,0.04938271604938272,16.691358024691358,0)" xlink:href="#bm"></use><use transform="matrix(0.04938271604938272,0,0,0.04938271604938272,23.604938271604937,0)" xlink:href="#bo"></use><use transform="matrix(0.04938271604938272,0,0,0.04938271604938272,34.41975308641975,0)" xlink:href="#bN"></use><use transform="matrix(0.04938271604938272,0,0,0.04938271604938272,44.2962962962963,0)" xlink:href="#bk"></use><use transform="matrix(0.04938271604938272,0,0,0.04938271604938272,49.23456790123457,0)" xlink:href="#bb"></use><use transform="matrix(0.04938271604938272,0,0,0.04938271604938272,59.111111111111114,0)" xlink:href="#bp"></use><use transform="matrix(0.04938271604938272,0,0,0.04938271604938272,69.92592592592592,0)" xlink:href="#aW"></use></g><path fill="#333" d="M165-50V0h-47v-50H5v-38l105-160h55v161h33v37h-33zm-47-37l2-116L46-87h72" id="bO"></path><g id="K"><use transform="matrix(0.04938271604938272,0,0,0.04938271604938272,0,0)" xlink:href="#bO"></use><use transform="matrix(0.04938271604938272,0,0,0.04938271604938272,9.876543209876544,0)" xlink:href="#aW"></use></g><g id="L"><use transform="matrix(0.04938271604938272,0,0,0.04938271604938272,0,0)" xlink:href="#ba"></use><use transform="matrix(0.04938271604938272,0,0,0.04938271604938272,12.790123456790125,0)" xlink:href="#bb"></use><use transform="matrix(0.04938271604938272,0,0,0.04938271604938272,22.66666666666667,0)" xlink:href="#be"></use><use transform="matrix(0.04938271604938272,0,0,0.04938271604938272,32.543209876543216,0)" xlink:href="#bI"></use><use transform="matrix(0.04938271604938272,0,0,0.04938271604938272,43.35802469135803,0)" xlink:href="#bo"></use><use transform="matrix(0.04938271604938272,0,0,0.04938271604938272,54.17283950617284,0)" xlink:href="#bl"></use><use transform="matrix(0.04938271604938272,0,0,0.04938271604938272,64.98765432098766,0)" xlink:href="#be"></use><use transform="matrix(0.04938271604938272,0,0,0.04938271604938272,74.8641975308642,0)" xlink:href="#bb"></use></g><g id="M"><use transform="matrix(0.04938271604938272,0,0,0.04938271604938272,0,0)" xlink:href="#bo"></use><use transform="matrix(0.04938271604938272,0,0,0.04938271604938272,10.814814814814815,0)" xlink:href="#bl"></use></g><g id="N"><use transform="matrix(0.04938271604938272,0,0,0.04938271604938272,0,0)" xlink:href="#aX"></use><use transform="matrix(0.04938271604938272,0,0,0.04938271604938272,12.790123456790125,0)" xlink:href="#ba"></use><use transform="matrix(0.04938271604938272,0,0,0.04938271604938272,25.58024691358025,0)" xlink:href="#bg"></use></g><path d="M33 0v-248h34V0H33" id="bP"></path><path d="M115-194c55 1 70 41 70 98S169 2 115 4C84 4 66-9 55-30l1 105H24l-1-265h31l2 30c10-21 28-34 59-34zm-8 174c40 0 45-34 45-75s-6-73-45-74c-42 0-51 32-51 76 0 43 10 73 51 73" id="bQ"></path><g id="O"><use transform="matrix(0.05,0,0,0.05,0,0)" xlink:href="#bP"></use><use transform="matrix(0.05,0,0,0.05,5,0)" xlink:href="#aU"></use><use transform="matrix(0.05,0,0,0.05,15,0)" xlink:href="#bw"></use><use transform="matrix(0.05,0,0,0.05,20,0)" xlink:href="#aO"></use><use transform="matrix(0.05,0,0,0.05,30,0)" xlink:href="#bx"></use><use transform="matrix(0.05,0,0,0.05,35.95,0)" xlink:href="#aR"></use><use transform="matrix(0.05,0,0,0.05,44.95,0)" xlink:href="#aO"></use><use transform="matrix(0.05,0,0,0.05,54.95,0)" xlink:href="#bQ"></use><use transform="matrix(0.05,0,0,0.05,64.95,0)" xlink:href="#bw"></use><use transform="matrix(0.05,0,0,0.05,69.95,0)" xlink:href="#bu"></use><use transform="matrix(0.05,0,0,0.05,73.9,0)" xlink:href="#aU"></use><use transform="matrix(0.05,0,0,0.05,83.9,0)" xlink:href="#aM"></use></g><g id="P"><use transform="matrix(0.05,0,0,0.05,0,0)" xlink:href="#bQ"></use><use transform="matrix(0.05,0,0,0.05,10,0)" xlink:href="#bx"></use><use transform="matrix(0.05,0,0,0.05,15.949999999999998,0)" xlink:href="#aL"></use><use transform="matrix(0.05,0,0,0.05,25.950000000000003,0)" xlink:href="#aQ"></use><use transform="matrix(0.05,0,0,0.05,34.95,0)" xlink:href="#bC"></use></g><g id="Q"><use transform="matrix(0.05,0,0,0.05,0,0)" xlink:href="#aL"></use><use transform="matrix(0.05,0,0,0.05,10,0)" xlink:href="#bx"></use></g><path d="M101-234c-31-9-42 10-38 44h38v23H63V0H32v-167H5v-23h27c-7-52 17-82 69-68v24" id="bR"></path><path d="M206 0h-36l-40-164L89 0H53L-1-190h32L70-26l43-164h34l41 164 42-164h31" id="bS"></path><g id="R"><use transform="matrix(0.05,0,0,0.05,0,0)" xlink:href="#bR"></use><use transform="matrix(0.05,0,0,0.05,5,0)" xlink:href="#bu"></use><use transform="matrix(0.05,0,0,0.05,8.95,0)" xlink:href="#bx"></use><use transform="matrix(0.05,0,0,0.05,14.899999999999999,0)" xlink:href="#aO"></use><use transform="matrix(0.05,0,0,0.05,24.9,0)" xlink:href="#bS"></use><use transform="matrix(0.05,0,0,0.05,37.85,0)" xlink:href="#aT"></use><use transform="matrix(0.05,0,0,0.05,47.85,0)" xlink:href="#by"></use><use transform="matrix(0.05,0,0,0.05,51.800000000000004,0)" xlink:href="#by"></use></g><g id="S"><use transform="matrix(0.05,0,0,0.05,0,0)" xlink:href="#bE"></use><use transform="matrix(0.05,0,0,0.05,12,0)" xlink:href="#aO"></use><use transform="matrix(0.05,0,0,0.05,22,0)" xlink:href="#bx"></use><use transform="matrix(0.05,0,0,0.05,27.950000000000003,0)" xlink:href="#bD"></use><use transform="matrix(0.05,0,0,0.05,36.95,0)" xlink:href="#aO"></use><use transform="matrix(0.05,0,0,0.05,46.95,0)" xlink:href="#bx"></use></g><path fill="#333" d="M52 0c1-96 47-148 87-207H15v-41h169v40c-36 62-79 113-81 208H52" id="bT"></path><g id="T"><use transform="matrix(0.04938271604938272,0,0,0.04938271604938272,0,0)" xlink:href="#bT"></use><use transform="matrix(0.04938271604938272,0,0,0.04938271604938272,9.876543209876544,0)" xlink:href="#aW"></use></g><g id="U"><use transform="matrix(0.04938271604938272,0,0,0.04938271604938272,0,0)" xlink:href="#bO"></use><use transform="matrix(0.04938271604938272,0,0,0.04938271604938272,9.876543209876544,0)" xlink:href="#bH"></use><use transform="matrix(0.04938271604938272,0,0,0.04938271604938272,19.75308641975309,0)" xlink:href="#aV"></use></g><g id="V"><use transform="matrix(0.04938271604938272,0,0,0.04938271604938272,0,0)" xlink:href="#ba"></use><use transform="matrix(0.04938271604938272,0,0,0.04938271604938272,12.790123456790125,0)" xlink:href="#bb"></use><use transform="matrix(0.04938271604938272,0,0,0.04938271604938272,22.66666666666667,0)" xlink:href="#bp"></use><use transform="matrix(0.04938271604938272,0,0,0.04938271604938272,33.48148148148149,0)" xlink:href="#bk"></use><use transform="matrix(0.04938271604938272,0,0,0.04938271604938272,38.41975308641976,0)" xlink:href="#bm"></use><use transform="matrix(0.04938271604938272,0,0,0.04938271604938272,45.33333333333334,0)" xlink:href="#bb"></use><use transform="matrix(0.04938271604938272,0,0,0.04938271604938272,55.209876543209894,0)" xlink:href="#bq"></use><use transform="matrix(0.04938271604938272,0,0,0.04938271604938272,65.08641975308643,0)" xlink:href="#bf"></use></g><path fill="#333" d="M133-34C117-15 103 5 69 4 32 3 11-16 11-54c-1-60 55-63 116-61 1-26-3-47-28-47-18 1-26 9-28 27l-52-2c7-38 36-58 82-57s74 22 75 68l1 82c-1 14 12 18 25 15v27c-30 8-71 5-69-32zm-48 3c29 0 43-24 42-57-32 0-66-3-65 30 0 17 8 27 23 27" id="bU"></path><g id="W"><use transform="matrix(0.04938271604938272,0,0,0.04938271604938272,0,0)" xlink:href="#bK"></use><use transform="matrix(0.04938271604938272,0,0,0.04938271604938272,5.8765432098765435,0)" xlink:href="#bh"></use><use transform="matrix(0.04938271604938272,0,0,0.04938271604938272,21.679012345679013,0)" xlink:href="#bU"></use><use transform="matrix(0.04938271604938272,0,0,0.04938271604938272,31.555555555555557,0)" xlink:href="#bj"></use><use transform="matrix(0.04938271604938272,0,0,0.04938271604938272,36.49382716049383,0)" xlink:href="#bk"></use><use transform="matrix(0.04938271604938272,0,0,0.04938271604938272,41.4320987654321,0)" xlink:href="#bq"></use><use transform="matrix(0.04938271604938272,0,0,0.04938271604938272,51.308641975308646,0)" xlink:href="#bk"></use><use transform="matrix(0.04938271604938272,0,0,0.04938271604938272,56.24691358024692,0)" xlink:href="#bo"></use><use transform="matrix(0.04938271604938272,0,0,0.04938271604938272,67.06172839506173,0)" xlink:href="#bd"></use><use transform="matrix(0.04938271604938272,0,0,0.04938271604938272,77.87654320987654,0)" xlink:href="#be"></use></g><path fill="#333" d="M135-194c52 0 70 43 70 98 0 56-19 99-73 100-30 1-46-15-58-35L72 0H24l1-261h50v104c11-23 29-37 60-37zM114-30c31 0 40-27 40-66 0-37-7-63-39-63s-41 28-41 65c0 36 8 64 40 64" id="bV"></path><g id="X"><use transform="matrix(0.04938271604938272,0,0,0.04938271604938272,0,0)" xlink:href="#bh"></use><use transform="matrix(0.04938271604938272,0,0,0.04938271604938272,15.80246913580247,0)" xlink:href="#bU"></use><use transform="matrix(0.04938271604938272,0,0,0.04938271604938272,25.679012345679016,0)" xlink:href="#bk"></use><use transform="matrix(0.04938271604938272,0,0,0.04938271604938272,30.617283950617285,0)" xlink:href="#bj"></use><use transform="matrix(0.04938271604938272,0,0,0.04938271604938272,35.55555555555556,0)" xlink:href="#bV"></use><use transform="matrix(0.04938271604938272,0,0,0.04938271604938272,46.370370370370374,0)" xlink:href="#bo"></use><use transform="matrix(0.04938271604938272,0,0,0.04938271604938272,57.18518518518519,0)" xlink:href="#bN"></use></g><g id="Y"><use transform="matrix(0.04938271604938272,0,0,0.04938271604938272,0,0)" xlink:href="#bh"></use><use transform="matrix(0.04938271604938272,0,0,0.04938271604938272,15.80246913580247,0)" xlink:href="#bk"></use><use transform="matrix(0.04938271604938272,0,0,0.04938271604938272,20.74074074074074,0)" xlink:href="#bi"></use><use transform="matrix(0.04938271604938272,0,0,0.04938271604938272,31.555555555555557,0)" xlink:href="#bm"></use><use transform="matrix(0.04938271604938272,0,0,0.04938271604938272,38.46913580246914,0)" xlink:href="#bU"></use><use transform="matrix(0.04938271604938272,0,0,0.04938271604938272,48.345679012345684,0)" xlink:href="#bf"></use><use transform="matrix(0.04938271604938272,0,0,0.04938271604938272,54.22222222222223,0)" xlink:href="#bk"></use><use transform="matrix(0.04938271604938272,0,0,0.04938271604938272,59.1604938271605,0)" xlink:href="#bo"></use><use transform="matrix(0.04938271604938272,0,0,0.04938271604938272,69.97530864197532,0)" xlink:href="#bl"></use><use transform="matrix(0.04938271604938272,0,0,0.04938271604938272,80.79012345679013,0)" xlink:href="#aW"></use></g><path fill="#333" d="M115-159c48 0 72 30 72 78 0 54-30 85-83 85-64 0-91-50-91-122 0-98 58-163 141-120 15 8 21 24 27 44l-47 6c-5-31-48-31-61-4-7 14-11 33-11 60 9-17 28-27 53-27zM102-35c24 0 36-20 36-45s-11-43-37-43c-23 0-36 14-36 38 0 27 11 50 37 50" id="bW"></path><g id="Z"><use transform="matrix(0.04938271604938272,0,0,0.04938271604938272,0,0)" xlink:href="#bW"></use><use transform="matrix(0.04938271604938272,0,0,0.04938271604938272,9.876543209876544,0)" xlink:href="#aW"></use></g><path fill="#333" d="M138-131c27 9 52 24 51 61 0 53-36 74-89 74S11-19 11-69c0-35 22-54 51-61-78-25-46-121 38-121 51 0 83 19 83 66 0 30-18 49-45 54zm-38-16c24 0 32-13 32-36 1-23-11-34-32-34-22 0-33 12-32 34 0 22 9 36 32 36zm1 116c27 0 37-17 37-43 0-25-13-39-39-39-24 0-37 15-37 40 0 27 11 42 39 42" id="bX"></path><g id="aa"><use transform="matrix(0.04938271604938272,0,0,0.04938271604938272,0,0)" xlink:href="#bX"></use><use transform="matrix(0.04938271604938272,0,0,0.04938271604938272,9.876543209876544,0)" xlink:href="#aW"></use></g><path fill="#333" d="M99-251c69 0 84 53 88 123 5 99-61 162-144 118-15-8-21-25-26-45l46-6c4 31 50 33 63 7 7-15 12-36 12-60-9 18-29 28-54 28-48 0-72-32-72-82 0-55 31-83 87-83zm-1 128c24 0 37-16 37-39 0-27-10-51-37-51-25 0-35 19-35 45 0 25 10 45 35 45" id="bY"></path><g id="ab"><use transform="matrix(0.04938271604938272,0,0,0.04938271604938272,0,0)" xlink:href="#bY"></use><use transform="matrix(0.04938271604938272,0,0,0.04938271604938272,9.876543209876544,0)" xlink:href="#aW"></use></g><g id="ac"><use transform="matrix(0.04938271604938272,0,0,0.04938271604938272,0,0)" xlink:href="#ba"></use><use transform="matrix(0.04938271604938272,0,0,0.04938271604938272,12.790123456790125,0)" xlink:href="#bo"></use><use transform="matrix(0.04938271604938272,0,0,0.04938271604938272,23.60493827160494,0)" xlink:href="#bi"></use><use transform="matrix(0.04938271604938272,0,0,0.04938271604938272,34.41975308641975,0)" xlink:href="#bd"></use><use transform="matrix(0.04938271604938272,0,0,0.04938271604938272,45.23456790123457,0)" xlink:href="#bb"></use></g><path fill="#333" d="M24 0v-248h195v40H76v63h132v40H76v65h150V0H24" id="bZ"></path><path fill="#333" d="M114-157C55-157 80-60 75 0H25v-261h50l-1 109c12-26 28-41 61-42 86-1 58 113 63 194h-50c-7-57 23-157-34-157" id="ca"></path><g id="ad"><use transform="matrix(0.04938271604938272,0,0,0.04938271604938272,0,0)" xlink:href="#bZ"></use><use transform="matrix(0.04938271604938272,0,0,0.04938271604938272,11.851851851851853,0)" xlink:href="#bN"></use><use transform="matrix(0.04938271604938272,0,0,0.04938271604938272,21.7283950617284,0)" xlink:href="#bq"></use><use transform="matrix(0.04938271604938272,0,0,0.04938271604938272,31.60493827160494,0)" xlink:href="#ca"></use><use transform="matrix(0.04938271604938272,0,0,0.04938271604938272,42.41975308641976,0)" xlink:href="#bU"></use><use transform="matrix(0.04938271604938272,0,0,0.04938271604938272,52.2962962962963,0)" xlink:href="#bl"></use><use transform="matrix(0.04938271604938272,0,0,0.04938271604938272,63.111111111111114,0)" xlink:href="#bi"></use><use transform="matrix(0.04938271604938272,0,0,0.04938271604938272,73.92592592592594,0)" xlink:href="#bb"></use></g><g id="ae"><use transform="matrix(0.04938271604938272,0,0,0.04938271604938272,0,0)" xlink:href="#bI"></use><use transform="matrix(0.04938271604938272,0,0,0.04938271604938272,10.814814814814815,0)" xlink:href="#bm"></use><use transform="matrix(0.04938271604938272,0,0,0.04938271604938272,17.728395061728396,0)" xlink:href="#bo"></use><use transform="matrix(0.04938271604938272,0,0,0.04938271604938272,28.543209876543205,0)" xlink:href="#bN"></use><use transform="matrix(0.04938271604938272,0,0,0.04938271604938272,38.41975308641975,0)" xlink:href="#bk"></use><use transform="matrix(0.04938271604938272,0,0,0.04938271604938272,43.358024691358025,0)" xlink:href="#bb"></use><use transform="matrix(0.04938271604938272,0,0,0.04938271604938272,53.23456790123457,0)" xlink:href="#be"></use></g><g id="af"><use transform="matrix(0.04938271604938272,0,0,0.04938271604938272,0,0)" xlink:href="#bU"></use><use transform="matrix(0.04938271604938272,0,0,0.04938271604938272,9.876543209876544,0)" xlink:href="#bj"></use><use transform="matrix(0.04938271604938272,0,0,0.04938271604938272,14.814814814814817,0)" xlink:href="#bj"></use></g><g id="ag"><use transform="matrix(0.04938271604938272,0,0,0.04938271604938272,0,0)" xlink:href="#bG"></use><use transform="matrix(0.04938271604938272,0,0,0.04938271604938272,12.790123456790125,0)" xlink:href="#bq"></use><use transform="matrix(0.04938271604938272,0,0,0.04938271604938272,22.66666666666667,0)" xlink:href="#bf"></use><use transform="matrix(0.04938271604938272,0,0,0.04938271604938272,28.54320987654322,0)" xlink:href="#bk"></use><use transform="matrix(0.04938271604938272,0,0,0.04938271604938272,33.48148148148149,0)" xlink:href="#br"></use><use transform="matrix(0.04938271604938272,0,0,0.04938271604938272,43.35802469135803,0)" xlink:href="#bb"></use><use transform="matrix(0.04938271604938272,0,0,0.04938271604938272,53.23456790123457,0)" xlink:href="#bg"></use><use transform="matrix(0.04938271604938272,0,0,0.04938271604938272,65.08641975308643,0)" xlink:href="#bn"></use><use transform="matrix(0.04938271604938272,0,0,0.04938271604938272,74.96296296296298,0)" xlink:href="#bl"></use><use transform="matrix(0.04938271604938272,0,0,0.04938271604938272,85.77777777777779,0)" xlink:href="#bq"></use></g><g id="ah"><use transform="matrix(0.04938271604938272,0,0,0.04938271604938272,0,0)" xlink:href="#bm"></use><use transform="matrix(0.04938271604938272,0,0,0.04938271604938272,6.913580246913581,0)" xlink:href="#bb"></use><use transform="matrix(0.04938271604938272,0,0,0.04938271604938272,16.790123456790127,0)" xlink:href="#bc"></use><use transform="matrix(0.04938271604938272,0,0,0.04938271604938272,27.604938271604947,0)" xlink:href="#bd"></use><use transform="matrix(0.04938271604938272,0,0,0.04938271604938272,38.41975308641976,0)" xlink:href="#bb"></use><use transform="matrix(0.04938271604938272,0,0,0.04938271604938272,48.296296296296305,0)" xlink:href="#be"></use><use transform="matrix(0.04938271604938272,0,0,0.04938271604938272,58.17283950617284,0)" xlink:href="#bf"></use><use transform="matrix(0.04938271604938272,0,0,0.04938271604938272,64.0493827160494,0)" xlink:href="#be"></use></g><g id="ai"><use transform="matrix(0.04938271604938272,0,0,0.04938271604938272,0,0)" xlink:href="#bf"></use><use transform="matrix(0.04938271604938272,0,0,0.04938271604938272,5.8765432098765435,0)" xlink:href="#ca"></use><use transform="matrix(0.04938271604938272,0,0,0.04938271604938272,16.691358024691358,0)" xlink:href="#bb"></use></g><path fill="#333" d="M24 0v-54h51V0H24" id="cb"></path><g id="aj"><use transform="matrix(0.04938271604938272,0,0,0.04938271604938272,0,0)" xlink:href="#bI"></use><use transform="matrix(0.04938271604938272,0,0,0.04938271604938272,10.814814814814815,0)" xlink:href="#bm"></use><use transform="matrix(0.04938271604938272,0,0,0.04938271604938272,17.728395061728396,0)" xlink:href="#bo"></use><use transform="matrix(0.04938271604938272,0,0,0.04938271604938272,28.543209876543205,0)" xlink:href="#bN"></use><use transform="matrix(0.04938271604938272,0,0,0.04938271604938272,38.41975308641975,0)" xlink:href="#bn"></use><use transform="matrix(0.04938271604938272,0,0,0.04938271604938272,46.96296296296296,0)" xlink:href="#cb"></use></g><path fill="#333" d="M231 0h-52l-39-155L100 0H48L-1-190h46L77-45c9-52 24-97 36-145h53l37 145 32-145h46" id="cc"></path><g id="ak"><use transform="matrix(0.04938271604938272,0,0,0.04938271604938272,0,0)" xlink:href="#bK"></use><use transform="matrix(0.04938271604938272,0,0,0.04938271604938272,5.8765432098765435,0)" xlink:href="#cc"></use><use transform="matrix(0.04938271604938272,0,0,0.04938271604938272,19.703703703703706,0)" xlink:href="#ca"></use><use transform="matrix(0.04938271604938272,0,0,0.04938271604938272,30.518518518518523,0)" xlink:href="#bk"></use><use transform="matrix(0.04938271604938272,0,0,0.04938271604938272,35.45679012345679,0)" xlink:href="#bq"></use><use transform="matrix(0.04938271604938272,0,0,0.04938271604938272,45.333333333333336,0)" xlink:href="#ca"></use></g><g id="al"><use transform="matrix(0.04938271604938272,0,0,0.04938271604938272,0,0)" xlink:href="#bI"></use><use transform="matrix(0.04938271604938272,0,0,0.04938271604938272,10.814814814814815,0)" xlink:href="#bm"></use><use transform="matrix(0.04938271604938272,0,0,0.04938271604938272,17.728395061728396,0)" xlink:href="#bo"></use><use transform="matrix(0.04938271604938272,0,0,0.04938271604938272,28.543209876543205,0)" xlink:href="#bq"></use><use transform="matrix(0.04938271604938272,0,0,0.04938271604938272,38.41975308641975,0)" xlink:href="#bb"></use><use transform="matrix(0.04938271604938272,0,0,0.04938271604938272,48.2962962962963,0)" xlink:href="#bb"></use><use transform="matrix(0.04938271604938272,0,0,0.04938271604938272,58.17283950617284,0)" xlink:href="#bp"></use><use transform="matrix(0.04938271604938272,0,0,0.04938271604938272,68.98765432098766,0)" xlink:href="#be"></use></g><g id="am"><use transform="matrix(0.04938271604938272,0,0,0.04938271604938272,0,0)" xlink:href="#ca"></use><use transform="matrix(0.04938271604938272,0,0,0.04938271604938272,10.814814814814815,0)" xlink:href="#bU"></use><use transform="matrix(0.04938271604938272,0,0,0.04938271604938272,20.69135802469136,0)" xlink:href="#bl"></use><use transform="matrix(0.04938271604938272,0,0,0.04938271604938272,31.506172839506174,0)" xlink:href="#bp"></use><use transform="matrix(0.04938271604938272,0,0,0.04938271604938272,42.320987654320994,0)" xlink:href="#bj"></use><use transform="matrix(0.04938271604938272,0,0,0.04938271604938272,47.25925925925927,0)" xlink:href="#bb"></use></g><g id="an"><use transform="matrix(0.04938271604938272,0,0,0.04938271604938272,0,0)" xlink:href="#bk"></use><use transform="matrix(0.04938271604938272,0,0,0.04938271604938272,4.938271604938272,0)" xlink:href="#bf"></use></g><g id="ao"><use transform="matrix(0.04938271604938272,0,0,0.04938271604938272,0,0)" xlink:href="#bU"></use><use transform="matrix(0.04938271604938272,0,0,0.04938271604938272,9.876543209876544,0)" xlink:href="#be"></use></g><g id="ap"><use transform="matrix(0.04938271604938272,0,0,0.04938271604938272,0,0)" xlink:href="#bd"></use><use transform="matrix(0.04938271604938272,0,0,0.04938271604938272,10.814814814814815,0)" xlink:href="#be"></use><use transform="matrix(0.04938271604938272,0,0,0.04938271604938272,20.69135802469136,0)" xlink:href="#bd"></use><use transform="matrix(0.04938271604938272,0,0,0.04938271604938272,31.506172839506174,0)" xlink:href="#bU"></use><use transform="matrix(0.04938271604938272,0,0,0.04938271604938272,41.38271604938272,0)" xlink:href="#bj"></use></g><g id="aq"><use transform="matrix(0.04938271604938272,0,0,0.04938271604938272,0,0)" xlink:href="#aV"></use><use transform="matrix(0.04938271604938272,0,0,0.04938271604938272,9.876543209876544,0)" xlink:href="#bM"></use><use transform="matrix(0.04938271604938272,0,0,0.04938271604938272,19.75308641975309,0)" xlink:href="#aW"></use></g><g id="ar"><use transform="matrix(0.04938271604938272,0,0,0.04938271604938272,0,0)" xlink:href="#bg"></use><use transform="matrix(0.04938271604938272,0,0,0.04938271604938272,11.851851851851853,0)" xlink:href="#bn"></use><use transform="matrix(0.04938271604938272,0,0,0.04938271604938272,21.7283950617284,0)" xlink:href="#bl"></use><use transform="matrix(0.04938271604938272,0,0,0.04938271604938272,32.543209876543216,0)" xlink:href="#bq"></use></g><g id="as"><use transform="matrix(0.04938271604938272,0,0,0.04938271604938272,0,0)" xlink:href="#be"></use><use transform="matrix(0.04938271604938272,0,0,0.04938271604938272,9.876543209876544,0)" xlink:href="#bd"></use><use transform="matrix(0.04938271604938272,0,0,0.04938271604938272,20.69135802469136,0)" xlink:href="#bq"></use><use transform="matrix(0.04938271604938272,0,0,0.04938271604938272,30.567901234567906,0)" xlink:href="#bq"></use><use transform="matrix(0.04938271604938272,0,0,0.04938271604938272,40.44444444444445,0)" xlink:href="#bb"></use><use transform="matrix(0.04938271604938272,0,0,0.04938271604938272,50.320987654320994,0)" xlink:href="#bb"></use><use transform="matrix(0.04938271604938272,0,0,0.04938271604938272,60.19753086419754,0)" xlink:href="#bp"></use><use transform="matrix(0.04938271604938272,0,0,0.04938271604938272,71.01234567901236,0)" xlink:href="#be"></use></g><path fill="#333" d="M147 0L96-86 75-71V0H25v-261h50v150l67-79h53l-66 74L201 0h-54" id="cd"></path><g id="at"><use transform="matrix(0.04938271604938272,0,0,0.04938271604938272,0,0)" xlink:href="#aX"></use><use transform="matrix(0.04938271604938272,0,0,0.04938271604938272,12.790123456790125,0)" xlink:href="#bU"></use><use transform="matrix(0.04938271604938272,0,0,0.04938271604938272,22.66666666666667,0)" xlink:href="#bq"></use><use transform="matrix(0.04938271604938272,0,0,0.04938271604938272,32.543209876543216,0)" xlink:href="#cd"></use><use transform="matrix(0.04938271604938272,0,0,0.04938271604938272,42.41975308641976,0)" xlink:href="#bb"></use><use transform="matrix(0.04938271604938272,0,0,0.04938271604938272,52.2962962962963,0)" xlink:href="#bm"></use></g><g id="au"><use transform="matrix(0.04938271604938272,0,0,0.04938271604938272,0,0)" xlink:href="#bk"></use><use transform="matrix(0.04938271604938272,0,0,0.04938271604938272,4.938271604938272,0)" xlink:href="#be"></use></g><g id="av"><use transform="matrix(0.04938271604938272,0,0,0.04938271604938272,0,0)" xlink:href="#bU"></use><use transform="matrix(0.04938271604938272,0,0,0.04938271604938272,9.876543209876544,0)" xlink:href="#bV"></use><use transform="matrix(0.04938271604938272,0,0,0.04938271604938272,20.69135802469136,0)" xlink:href="#bj"></use><use transform="matrix(0.04938271604938272,0,0,0.04938271604938272,25.629629629629633,0)" xlink:href="#bb"></use></g><g id="aw"><use transform="matrix(0.04938271604938272,0,0,0.04938271604938272,0,0)" xlink:href="#br"></use><use transform="matrix(0.04938271604938272,0,0,0.04938271604938272,9.876543209876544,0)" xlink:href="#bk"></use><use transform="matrix(0.04938271604938272,0,0,0.04938271604938272,14.814814814814817,0)" xlink:href="#bb"></use><use transform="matrix(0.04938271604938272,0,0,0.04938271604938272,24.69135802469136,0)" xlink:href="#cc"></use></g><g id="ax"><use transform="matrix(0.04938271604938272,0,0,0.04938271604938272,0,0)" xlink:href="#bq"></use><use transform="matrix(0.04938271604938272,0,0,0.04938271604938272,9.876543209876544,0)" xlink:href="#bm"></use><use transform="matrix(0.04938271604938272,0,0,0.04938271604938272,16.790123456790127,0)" xlink:href="#bb"></use><use transform="matrix(0.04938271604938272,0,0,0.04938271604938272,26.666666666666668,0)" xlink:href="#bp"></use><use transform="matrix(0.04938271604938272,0,0,0.04938271604938272,37.48148148148149,0)" xlink:href="#bb"></use><use transform="matrix(0.04938271604938272,0,0,0.04938271604938272,47.35802469135803,0)" xlink:href="#bl"></use><use transform="matrix(0.04938271604938272,0,0,0.04938271604938272,58.17283950617284,0)" xlink:href="#bf"></use><use transform="matrix(0.04938271604938272,0,0,0.04938271604938272,64.0493827160494,0)" xlink:href="#bk"></use><use transform="matrix(0.04938271604938272,0,0,0.04938271604938272,68.98765432098767,0)" xlink:href="#bU"></use><use transform="matrix(0.04938271604938272,0,0,0.04938271604938272,78.86419753086422,0)" xlink:href="#bj"></use><use transform="matrix(0.04938271604938272,0,0,0.04938271604938272,83.80246913580248,0)" xlink:href="#be"></use></g><g id="ay"><use transform="matrix(0.04938271604938272,0,0,0.04938271604938272,0,0)" xlink:href="#bo"></use><use transform="matrix(0.04938271604938272,0,0,0.04938271604938272,10.814814814814815,0)" xlink:href="#bJ"></use></g><g id="az"><use transform="matrix(0.04938271604938272,0,0,0.04938271604938272,0,0)" xlink:href="#br"></use><use transform="matrix(0.04938271604938272,0,0,0.04938271604938272,9.876543209876544,0)" xlink:href="#bk"></use><use transform="matrix(0.04938271604938272,0,0,0.04938271604938272,14.814814814814817,0)" xlink:href="#bq"></use><use transform="matrix(0.04938271604938272,0,0,0.04938271604938272,24.69135802469136,0)" xlink:href="#bf"></use><use transform="matrix(0.04938271604938272,0,0,0.04938271604938272,30.567901234567906,0)" xlink:href="#bk"></use><use transform="matrix(0.04938271604938272,0,0,0.04938271604938272,35.50617283950618,0)" xlink:href="#bh"></use><use transform="matrix(0.04938271604938272,0,0,0.04938271604938272,51.308641975308646,0)" xlink:href="#be"></use></g><g id="aA"><use transform="matrix(0.04938271604938272,0,0,0.04938271604938272,0,0)" xlink:href="#bI"></use><use transform="matrix(0.04938271604938272,0,0,0.04938271604938272,10.814814814814815,0)" xlink:href="#bb"></use><use transform="matrix(0.04938271604938272,0,0,0.04938271604938272,20.69135802469136,0)" xlink:href="#bm"></use><use transform="matrix(0.04938271604938272,0,0,0.04938271604938272,27.604938271604947,0)" xlink:href="#be"></use><use transform="matrix(0.04938271604938272,0,0,0.04938271604938272,37.48148148148149,0)" xlink:href="#bk"></use><use transform="matrix(0.04938271604938272,0,0,0.04938271604938272,42.41975308641976,0)" xlink:href="#be"></use><use transform="matrix(0.04938271604938272,0,0,0.04938271604938272,52.2962962962963,0)" xlink:href="#bf"></use><use transform="matrix(0.04938271604938272,0,0,0.04938271604938272,58.17283950617284,0)" xlink:href="#bb"></use><use transform="matrix(0.04938271604938272,0,0,0.04938271604938272,68.0493827160494,0)" xlink:href="#bl"></use><use transform="matrix(0.04938271604938272,0,0,0.04938271604938272,78.8641975308642,0)" xlink:href="#bf"></use><use transform="matrix(0.04938271604938272,0,0,0.04938271604938272,84.74074074074075,0)" xlink:href="#bj"></use><use transform="matrix(0.04938271604938272,0,0,0.04938271604938272,89.67901234567901,0)" xlink:href="#bn"></use></g><path fill="#333" d="M67-125c0 53 21 87 73 88 37 1 54-22 65-47l45 17C233-25 199 4 140 4 58 4 20-42 15-125 8-235 124-281 211-232c18 10 29 29 36 50l-46 12c-8-25-30-41-62-41-52 0-71 34-72 86" id="ce"></path><g id="aB"><use transform="matrix(0.04938271604938272,0,0,0.04938271604938272,0,0)" xlink:href="#ce"></use><use transform="matrix(0.04938271604938272,0,0,0.04938271604938272,12.790123456790125,0)" xlink:href="#bo"></use><use transform="matrix(0.04938271604938272,0,0,0.04938271604938272,23.60493827160494,0)" xlink:href="#bh"></use><use transform="matrix(0.04938271604938272,0,0,0.04938271604938272,39.40740740740741,0)" xlink:href="#bh"></use><use transform="matrix(0.04938271604938272,0,0,0.04938271604938272,55.20987654320988,0)" xlink:href="#bd"></use><use transform="matrix(0.04938271604938272,0,0,0.04938271604938272,66.0246913580247,0)" xlink:href="#bl"></use><use transform="matrix(0.04938271604938272,0,0,0.04938271604938272,76.8395061728395,0)" xlink:href="#bk"></use><use transform="matrix(0.04938271604938272,0,0,0.04938271604938272,81.77777777777777,0)" xlink:href="#bq"></use><use transform="matrix(0.04938271604938272,0,0,0.04938271604938272,91.65432098765432,0)" xlink:href="#bU"></use><use transform="matrix(0.04938271604938272,0,0,0.04938271604938272,101.53086419753085,0)" xlink:href="#bf"></use><use transform="matrix(0.04938271604938272,0,0,0.04938271604938272,107.40740740740739,0)" xlink:href="#bk"></use><use transform="matrix(0.04938271604938272,0,0,0.04938271604938272,112.34567901234567,0)" xlink:href="#bl"></use><use transform="matrix(0.04938271604938272,0,0,0.04938271604938272,123.16049382716048,0)" xlink:href="#bi"></use></g><g id="aC"><use transform="matrix(0.04938271604938272,0,0,0.04938271604938272,0,0)" xlink:href="#bU"></use><use transform="matrix(0.04938271604938272,0,0,0.04938271604938272,9.876543209876544,0)" xlink:href="#be"></use></g><g id="aD"><use transform="matrix(0.04938271604938272,0,0,0.04938271604938272,0,0)" xlink:href="#bd"></use><use transform="matrix(0.04938271604938272,0,0,0.04938271604938272,10.814814814814815,0)" xlink:href="#be"></use><use transform="matrix(0.04938271604938272,0,0,0.04938271604938272,20.69135802469136,0)" xlink:href="#bd"></use><use transform="matrix(0.04938271604938272,0,0,0.04938271604938272,31.506172839506174,0)" xlink:href="#bU"></use><use transform="matrix(0.04938271604938272,0,0,0.04938271604938272,41.38271604938272,0)" xlink:href="#bj"></use></g></defs></g></svg>