<svg xmlns="http://www.w3.org/2000/svg" viewBox="2 .54 21 22.88">
  <path fill="#c6102e" d="M12 2 3 5.5V11c0 2.5 2 8.5 9 11Z" opacity=".3" style="isolation:isolate"/>
  <path fill="#c6102e" d="M17 9h-5a1 1 0 0 1 0-2h4V5a1 1 0 0 1 2 0v3a.99943.99943 0 0 1-1 1Zm-5 2h9v2h-9z"/>
  <path fill="#c6102e" d="M17 2a2 2 0 1 0 2 2 2 2 0 0 0-2-2Zm4 8a2 2 0 1 0 2 2 2 2 0 0 0-2-2Zm-4 10a.99943.99943 0 0 1-1-1v-2h-4a1 1 0 0 1 0-2h5a.99943.99943 0 0 1 1 1v3a.99943.99943 0 0 1-1 1Z"/>
  <path fill="#c6102e" d="M17 18a2 2 0 1 0 2 2 2 2 0 0 0-2-2Zm-4 5.419-1.33594-.47754C4.624 20.42773 2 14.28223 2 11V4.81641L13 .53809ZM4 6.18359V11a11.6619 11.6619 0 0 0 7 9.50879V3.46191Z"/>
</svg>
